<?xml version="1.0" standalone="no"?>
<!DOCTYPE svg PUBLIC "-//W3C//DTD SVG 20010904//EN"
 "http://www.w3.org/TR/2001/REC-SVG-20010904/DTD/svg10.dtd">
<svg version="1.0" xmlns="http://www.w3.org/2000/svg"
 width="521.000000pt" height="521.000000pt" viewBox="0 0 521.000000 521.000000"
 preserveAspectRatio="xMidYMid meet">
<metadata>
Created by potrace 1.14, written by Peter Selinger 2001-2017
</metadata>
<g transform="translate(0.000000,521.000000) scale(0.100000,-0.100000)"
fill="#000000" stroke="none">
<path d="M1860 4957 c0 -7 4 -38 10 -68 5 -30 12 -74 15 -99 3 -25 10 -70 15
-100 5 -30 12 -71 14 -90 6 -44 15 -107 21 -140 2 -14 7 -45 10 -70 3 -25 12
-83 20 -130 8 -47 17 -105 20 -130 3 -25 8 -56 10 -70 3 -14 9 -56 14 -95 17
-118 22 -149 26 -165 2 -8 7 -37 10 -65 4 -27 8 -61 10 -74 2 -13 7 -44 11
-69 l7 -44 -99 78 c-191 151 -999 797 -1016 812 -16 13 -18 13 -24 -3 -4 -10
-28 -54 -54 -99 -26 -44 -58 -101 -72 -126 -14 -25 -96 -168 -182 -318 -86
-150 -156 -275 -156 -278 0 -3 -9 -17 -19 -32 -36 -51 -256 -447 -256 -460 0
-8 43 -30 100 -51 55 -21 233 -89 395 -151 481 -184 681 -260 753 -287 37 -14
66 -27 65 -29 -2 -1 -96 -39 -208 -84 -113 -44 -214 -85 -225 -90 -27 -12
-805 -320 -809 -320 -2 0 -24 -9 -49 -20 l-46 -20 45 -81 c25 -44 56 -98 69
-119 14 -22 25 -41 25 -44 0 -2 49 -90 110 -196 60 -106 110 -194 110 -195 0
-2 23 -43 51 -92 28 -48 72 -124 96 -168 25 -44 60 -105 77 -135 17 -31 60
-108 96 -173 36 -64 68 -115 71 -114 3 1 23 16 44 32 21 17 128 102 239 190
110 88 332 263 491 389 160 126 309 245 333 264 l43 36 -5 -45 c-3 -24 -8 -55
-10 -69 -3 -14 -7 -43 -10 -65 -3 -22 -8 -51 -10 -64 -3 -12 -8 -44 -11 -70
-3 -25 -9 -71 -14 -101 -6 -30 -12 -75 -15 -100 -4 -25 -8 -56 -11 -70 -2 -13
-7 -42 -10 -65 -3 -22 -12 -80 -20 -130 -8 -49 -17 -110 -20 -135 -3 -25 -8
-52 -10 -60 -2 -8 -6 -37 -10 -65 -5 -44 -14 -105 -31 -210 -2 -16 -6 -41 -9
-55 -3 -14 -7 -46 -10 -73 l-6 -47 761 0 760 0 -5 28 c-2 16 -7 46 -10 68 -2
21 -7 50 -9 64 -3 14 -8 43 -11 65 -29 202 -46 312 -50 325 -2 8 -6 33 -9 56
-4 38 -7 56 -21 139 -3 17 -10 62 -16 102 -5 39 -12 82 -14 94 -3 13 -7 39 -9
59 -13 95 -17 118 -21 140 -4 21 -10 60 -20 125 -18 122 -18 127 1 116 11 -5
33 -23 50 -38 17 -15 46 -39 64 -53 18 -14 50 -38 70 -55 20 -16 53 -43 74
-60 47 -37 693 -551 721 -574 11 -9 42 -33 67 -54 l47 -38 14 23 c12 19 258
451 330 578 105 188 168 301 185 330 12 19 43 76 71 125 28 50 72 128 100 175
27 47 46 88 43 91 -4 4 -270 111 -592 238 -322 127 -594 236 -605 240 -11 5
-46 19 -78 31 -32 13 -56 24 -55 26 3 3 144 57 623 239 216 83 649 249 687
263 15 6 11 17 -28 81 -24 40 -44 75 -44 76 0 2 -49 89 -110 195 -60 106 -110
196 -110 201 0 5 -4 9 -10 9 -5 0 -10 4 -10 9 0 5 -42 83 -93 173 -52 90 -108
188 -125 218 -17 30 -69 122 -116 205 -47 82 -86 153 -86 157 0 25 -36 2 -156
-99 -60 -50 -651 -532 -714 -581 -25 -19 -49 -40 -55 -46 -5 -6 -44 -38 -85
-70 -101 -80 -105 -83 -98 -71 3 6 9 33 12 60 4 28 14 93 22 145 8 52 17 109
20 125 2 17 6 41 9 55 2 14 7 43 10 65 3 22 12 81 20 130 7 50 16 106 19 125
2 19 7 53 11 75 3 23 7 52 10 65 3 13 7 42 10 65 3 22 10 65 15 95 5 30 12 75
15 100 3 25 10 70 15 100 5 30 12 78 15 105 3 28 9 60 12 73 l5 22 -761 0
c-623 0 -761 -2 -761 -13z"/>
</g>
</svg>
