<svg xmlns="http://www.w3.org/2000/svg" width="1200" height="1220" viewBox="0 0 1200 1220"><g fill="none" fill-rule="evenodd"><polygon fill="#E61F28" fill-rule="nonzero" points="739.426 821.215 1015.144 1040.624 1200 714.645 867.885 583 1196.867 457.624 1008.877 128.511 739.426 347.919 792.689 0 416.71 0 469.974 351.054 191.123 128.511 3.133 457.624 332.115 583 0 714.645 184.856 1040.624 469.974 814.946 416.71 1166 792.689 1166"/><polygon fill="#FFF" points="463 41 746 41 685 447 999 188 1140 437 763 583 1140 733 1005 982 685 727 746 1126 463 1126 526 727 197 982 61 733 442 583 61 437 204 188 526 447"/><polygon fill="#0A3B7C" points="510 81 699 81 629 545 987 248 1081 415 655 582 1082 753 992 921 631 632 699 1085 509 1085 581 632 210 921 118 753 552 582 119 415 215 248 581 541"/></g></svg>