<svg xmlns="http://www.w3.org/2000/svg" width="291" height="48" viewBox="0 0 291 48"><path fill="#FFF" d="M37.4967495,43.9313824 C42.7356226,43.3985873 47.9259877,41.6064581 47.9259877,35.987891 L47.9259877,17.8244198 L45.4520753,15.2573158 L42.7356226,17.8244198 L42.7356226,31.3864783 L44.9669945,33.4207871 L39.9706618,38.0221998 L39.7281214,38.0221998 L34.7317886,33.6629667 L35.9929988,32.4036327 L35.9929988,4.74672048 C35.9929988,2.71241171 34.2467078,1.69525732 33.2765461,1.40464178 L33.2765461,0.87184662 C33.7616269,0.629667003 34.5377563,0.339051463 35.507918,0.339051463 C37.254209,0.339051463 38.7579597,1.35620585 39.2430405,2.66397578 L39.4855809,2.66397578 C40.5042507,1.11402624 42.2020337,0.339051463 43.7057843,0.339051463 C44.1908651,0.339051463 44.7244541,0.339051463 45.2095349,0.58123108 L45.2095349,1.11402624 C44.4819137,1.35620585 42.978163,2.37336024 42.978163,5.23107972 L42.978163,16.7588295 L49.6722787,10.3652876 L50.1573596,10.3652876 C50.6424404,10.8980827 53.4074012,13.4167508 54.1350225,13.9495459 C54.3775629,14.1917255 54.6201034,14.1917255 55.1536923,14.1917255 C55.6387731,14.1917255 56.1723621,13.9495459 56.6574429,13.6589304 L56.6574429,14.4339051 C56.1723621,14.9667003 55.3962327,15.6932392 55.3962327,17.0010091 L55.3962327,32.6942482 C55.3962327,39.6205853 47.9259877,43.9798184 37.9818303,44.7547931 L37.9818303,43.9798184 L37.4967495,43.9798184 L37.4967495,43.9313824 Z M35.0228371,1.16246216 C36.0415069,1.93743693 37.0116686,2.71241171 37.0116686,4.50454087 L37.0116686,32.9364279 L35.9929988,33.9535822 L40.2132022,37.5378406 L41.4744124,36.5206862 L38.2243707,33.7114026 L38.7094516,33.1786075 L38.7094516,4.74672048 C38.5154192,2.47023209 36.5265878,1.4530777 35.0228371,1.16246216 L35.0228371,1.16246216 Z M46.7132855,42.1392533 C48.702117,40.8799193 50.6909485,39.3299697 50.6909485,36.2300706 L50.6909485,16.7588295 L47.6834472,13.4167508 L46.1796966,14.6760848 L48.6536089,17.4853683 L48.6536089,35.9394551 C48.9446574,38.554995 47.9744957,40.6377397 46.7132855,42.1392533 Z M59.1798633,16.8072654 C62.1873646,15.2573158 66.4075679,12.6902119 69.3665611,10.4137235 L69.8516419,10.4137235 C71.8404734,12.4480323 74.5569262,15.790111 77.0793466,18.1150353 L77.0793466,18.6478305 L66.1165194,25.8163471 L66.1165194,30.4177598 C67.1351892,31.1927346 70.3367228,32.7426842 72.3255543,33.469223 L76.788298,29.1099899 L77.2733789,29.6427851 L68.5904317,38.3612513 L68.1053509,38.3612513 C65.0978496,37.1019173 61.4112352,35.3097881 58.8888148,34.0020182 C59.1313552,32.9848638 59.3738956,30.6599395 59.3738956,27.8506559 L59.3738956,16.8557013 L59.1798633,16.8557013 L59.1798633,16.8072654 Z M69.3665611,36.5206862 C66.3590598,35.2613522 63.8851475,33.9535822 61.4112352,32.6942482 C61.6537756,31.9192735 61.6537756,30.6599395 61.6537756,27.8506559 L61.6537756,16.3229062 L59.9074846,17.3400605 L59.9074846,27.8506559 C59.9074846,30.6599395 59.9074846,32.6942482 59.6649442,33.469223 C61.8963161,34.728557 65.1463577,36.2785066 68.1053509,37.5862765 L69.3665611,36.5206862 Z M66.1165194,24.9929364 L71.1128521,21.6508577 C69.3665611,19.6165489 67.62027,17.5338042 66.1165194,16.0322906 L66.1165194,24.9929364 Z M67.62027,13.7073663 L66.3590598,14.7245207 C67.8628105,16.5166498 69.8516419,18.8415742 71.8404734,21.1180626 L73.344224,20.1009082 C71.1128521,17.8244198 69.1240207,15.5479314 67.62027,13.7073663 L67.62027,13.7073663 Z M272.324387,43.9313824 C277.563261,43.3985873 282.753626,41.6064581 282.753626,35.987891 L282.753626,17.8244198 L280.279713,15.2573158 L277.563261,17.8244198 L277.563261,31.3864783 L279.794632,33.4207871 L274.7983,38.0221998 L274.313219,38.0221998 L269.316886,33.6629667 L270.578096,32.4036327 L270.578096,4.74672048 C270.578096,2.71241171 268.831805,1.69525732 267.861644,1.40464178 L267.861644,0.87184662 C268.346724,0.629667003 269.122854,0.339051463 270.093016,0.339051463 C271.839307,0.339051463 273.343057,1.35620585 273.828138,2.66397578 L274.070678,2.66397578 C275.089348,1.11402624 276.787131,0.339051463 278.290882,0.339051463 C278.775963,0.339051463 279.309552,0.339051463 279.794632,0.58123108 L279.794632,1.11402624 C279.067011,1.35620585 277.563261,2.37336024 277.563261,5.23107972 L277.563261,16.7588295 L284.014836,10.3652876 L284.499917,10.3652876 C284.984997,10.8980827 287.749958,13.4167508 288.47758,13.9495459 C288.72012,14.1917255 288.96266,14.1917255 289.496249,14.1917255 C289.98133,14.1917255 290.514919,13.9495459 291,13.6589304 L291,14.6760848 C290.514919,15.2088799 289.73879,15.9354188 289.73879,17.2431887 L289.73879,32.6942482 C289.73879,39.6205853 282.268545,43.9798184 272.324387,44.7547931 L272.324387,43.9313824 L272.324387,43.9313824 Z M269.850475,1.16246216 C270.578096,1.69525732 271.839307,2.71241171 271.839307,4.50454087 L271.839307,32.6942482 L270.820637,33.7114026 L275.04084,37.2956609 L276.30205,36.2785066 L273.052009,33.469223 L273.53709,32.9364279 L273.53709,4.74672048 C273.343057,2.47023209 271.354226,1.4530777 269.850475,1.16246216 L269.850475,1.16246216 Z M281.298383,41.8970737 C283.287215,40.6377397 285.276046,39.0877901 285.276046,35.987891 L285.276046,16.7588295 L282.268545,13.4167508 L281.055843,14.7729566 L283.529755,17.5822402 L283.529755,36.0363269 C283.772295,38.554995 282.802134,40.6377397 281.298383,41.8970737 L281.298383,41.8970737 Z M123.5986,16.8072654 C126.606101,15.2573158 130.826304,12.6902119 133.785298,10.4137235 L134.270378,10.4137235 C136.25921,12.4480323 138.975663,15.790111 141.255543,17.8244198 L141.255543,18.3572149 L130.535256,25.5257316 L130.535256,30.1271443 C131.796466,30.9021191 134.755459,32.4520686 136.744291,33.1786075 L141.207035,28.8193744 L141.692115,29.3521695 L133.009168,38.0706357 L132.524087,38.0706357 C129.516586,36.8113017 125.829972,35.0191726 123.307551,33.7114026 C123.550092,32.6942482 123.792632,30.3693239 123.792632,27.5600404 L123.792632,16.8072654 L123.5986,16.8072654 L123.5986,16.8072654 Z M133.542757,36.5206862 C130.535256,35.2613522 128.061344,33.9535822 125.587431,32.6942482 C125.829972,31.9192735 125.829972,30.6599395 125.829972,27.8506559 L125.829972,16.3229062 L124.326221,17.0978809 L124.326221,27.6084763 C124.326221,30.4177598 124.326221,32.4520686 124.083681,33.2270434 C126.315053,34.4863774 129.565094,36.0363269 132.524087,37.3440969 L133.542757,36.5206862 L133.542757,36.5206862 Z M130.535256,24.7507568 L135.531589,21.4086781 C133.785298,19.3743693 132.039007,17.2916246 130.535256,15.790111 L130.535256,24.7507568 L130.535256,24.7507568 Z M132.039007,13.7073663 L130.535256,14.7245207 C132.039007,16.5166498 134.027838,18.8415742 136.016669,21.1180626 L137.52042,20.1009082 C135.531589,17.8244198 133.542757,15.5479314 132.039007,13.7073663 L132.039007,13.7073663 Z M151.1997,4.02018163 L151.1997,30.9021191 C151.1997,31.9192735 152.21837,33.2270434 153.188531,33.469223 L154.692282,31.9192735 L155.177363,32.4520686 L149.695949,38.3612513 L149.210868,38.3612513 C147.222037,37.8284561 144.214536,35.7941473 144.214536,32.4520686 L144.214536,7.36226034 L142.710785,5.8123108 L140.964494,7.60443996 L140.479413,7.0716448 L146.688448,0.43592331 L147.173529,0.43592331 L151.1997,4.02018163 L151.1997,4.02018163 Z M150.472079,36.2785066 C148.483247,35.7457114 146.494416,34.4863774 146.494416,31.6770938 L146.494416,6.34510595 L144.263044,4.02018163 L143.001834,5.27951564 L144.990665,7.0716448 L144.990665,32.4036327 C144.990665,35.2129162 147.222037,37.0050454 149.210868,37.5378406 L150.472079,36.2785066 Z M157.651275,16.8072654 C160.658776,15.2573158 164.87898,12.6902119 167.837973,10.4137235 L168.323054,10.4137235 C170.311885,12.4480323 173.028338,15.790111 175.308218,17.8244198 L175.308218,18.3572149 L164.636439,25.5257316 L164.636439,30.1271443 C165.655109,30.9021191 168.856643,32.4520686 170.845474,33.1786075 L175.308218,28.8193744 L175.793299,29.3521695 L167.110352,38.0706357 L166.625271,38.0706357 C163.61777,36.8113017 159.931155,35.0191726 157.408735,33.7114026 C157.651275,32.6942482 157.893816,30.3693239 157.893816,27.5600404 L157.893816,16.8072654 L157.651275,16.8072654 L157.651275,16.8072654 Z M167.595433,36.5206862 C164.587931,35.2613522 162.114019,33.9535822 159.640107,32.6942482 C159.882647,31.9192735 159.882647,30.6599395 159.882647,27.8506559 L159.882647,16.3229062 L158.378896,17.0978809 L158.378896,27.6084763 C158.378896,30.4177598 158.378896,32.4520686 158.136356,33.2270434 C160.367728,34.4863774 163.61777,36.0363269 166.576763,37.3440969 L167.595433,36.5206862 L167.595433,36.5206862 Z M164.636439,24.7507568 L169.632772,21.4086781 C167.886481,19.3743693 166.14019,17.2916246 164.636439,15.790111 L164.636439,24.7507568 L164.636439,24.7507568 Z M166.14019,13.7073663 L164.87898,14.7245207 C166.38273,16.5166498 168.371562,18.8415742 170.360393,21.1180626 L171.621604,20.1009082 C169.584264,17.8244198 167.595433,15.5479314 166.14019,13.7073663 L166.14019,13.7073663 Z M210.379563,17.8244198 L210.379563,30.9021191 C210.379563,31.9192735 211.398233,33.2270434 212.368395,33.2270434 L213.872145,31.6770938 L214.357226,32.209889 L208.875813,38.1190716 L208.633272,38.1190716 C206.644441,37.5862765 203.636939,35.7941473 203.636939,32.209889 L203.636939,17.3400605 L202.133189,15.790111 L200.386898,17.3400605 L199.901817,16.8072654 L206.110852,10.4137235 L206.595933,10.4137235 L210.573596,14.530777 L210.573596,16.8557013 L215.569928,10.7043391 L216.055009,10.7043391 C217.073679,11.7214934 218.528921,13.271443 220.032672,14.2885974 L215.812469,19.4228052 C214.551259,18.4056509 213.096016,16.8557013 212.077346,16.0807265 L210.379563,17.8244198 L210.379563,17.8244198 Z M209.894482,36.2785066 C207.905651,35.7457114 205.916819,34.4863774 205.916819,31.6770938 L205.916819,16.3229062 L203.927988,13.9979818 L202.666778,15.2573158 L204.413069,17.049445 L204.413069,32.1614531 C204.413069,34.9707366 206.644441,36.7628658 208.633272,37.2956609 L209.894482,36.2785066 L209.894482,36.2785066 Z M212.659443,15.5479314 C213.387065,16.3229062 214.648275,17.5822402 215.666944,18.3572149 L216.685614,17.0978809 C215.666944,16.3229062 214.211702,14.7729566 213.435573,14.2885974 L212.659443,15.5479314 L212.659443,15.5479314 Z M226.581264,38.3128153 L220.614769,34.1957619 L220.614769,26.0100908 C222.11852,24.9929364 225.320053,22.6680121 226.823804,21.6508577 C224.349892,20.3915237 222.36106,18.8415742 221.09985,17.049445 L221.09985,16.5166498 C224.592432,14.4823411 227.308885,12.3995964 229.297716,10.3652876 L229.782797,10.3652876 C229.782797,10.3652876 237.253042,13.9495459 237.495583,14.1917255 C237.980663,14.4339051 238.223204,14.4339051 238.514252,14.4339051 C238.999333,14.4339051 239.532922,14.1917255 240.018003,13.90111 L240.018003,14.6760848 C239.532922,15.2088799 238.756793,15.9354188 238.756793,17.0010091 L238.756793,30.5630676 C238.756793,32.1130172 240.018003,32.8879919 240.988165,33.1301715 L242.491915,31.580222 L242.976996,32.1130172 L237.495583,38.0221998 L237.253042,38.0221998 C235.02167,37.4894046 232.547758,35.2129162 232.256709,32.6458123 L227.017836,38.0221998 L226.532755,38.0221998 L226.532755,38.3128153 L226.581264,38.3128153 Z M227.793966,36.2785066 L222.797633,32.9364279 L222.797633,25.235116 L221.293882,26.2522704 L221.293882,33.6629667 L226.775296,37.247225 L227.793966,36.2785066 L227.793966,36.2785066 Z M232.062677,22.9586276 L232.062677,18.8415742 L224.834972,15.0151362 C224.349892,15.5479314 222.36106,16.5650858 221.827471,17.049445 C223.573762,19.1321897 228.085014,21.9414733 232.062677,22.9586276 L232.062677,22.9586276 Z M238.514252,36.2785066 C236.525421,35.5035318 234.536589,34.2441978 234.536589,31.4349142 L234.536589,17.3400605 L227.066344,13.5136226 C226.823804,13.7558022 226.047675,14.2885974 225.805134,14.530777 L233.032839,18.3572149 L233.032839,32.209889 C233.032839,34.7769929 235.506751,36.8113017 237.253042,37.5862765 L238.514252,36.2785066 L238.514252,36.2785066 Z M232.062677,31.9192735 L232.062677,23.7336024 C230.558926,23.2008073 228.812635,22.716448 227.357393,21.9414733 L227.357393,32.209889 L230.073846,34.0020182 L232.062677,31.9192735 L232.062677,31.9192735 Z M178.073179,33.9535822 L178.073179,16.8072654 L187.047175,10.4137235 L187.532255,10.4137235 C189.278546,11.1886983 195.0025,13.7558022 195.487581,13.9979818 C195.730122,13.9979818 195.972662,14.2401615 196.506251,14.2401615 C197.03984,14.2401615 197.524921,13.9979818 198.252542,13.7073663 L198.252542,14.7245207 C197.767461,15.2573158 196.991332,16.2744702 196.991332,17.049445 L196.991332,31.6286579 C196.991332,34.9707366 197.718953,37.0050454 198.980163,38.2643794 L198.980163,38.7971746 C196.991332,40.8314834 192.528588,45.7235116 190.539757,48 L190.297216,48 C188.308385,46.9828456 185.058343,45.9656912 182.584431,45.9656912 C180.595599,45.9656912 178.364227,46.4984864 176.860477,47.7578204 L176.375396,47.5156408 C177.879147,43.9313824 181.08068,40.1049445 185.349392,40.1049445 C187.823304,40.1049445 191.315886,41.1220989 194.323387,42.9142281 C192.334556,40.5893037 190.588265,36.2785066 190.588265,32.9364279 L185.349392,38.0706357 L184.864311,38.0706357 L178.073179,33.9535822 L178.073179,33.9535822 Z M182.293382,43.9313824 C180.304551,43.9313824 178.55826,44.9485368 177.588098,46.2563068 L177.588098,46.4984864 C178.849308,45.7235116 180.06201,45.481332 182.293382,45.481332 C184.767295,45.481332 188.259877,46.2563068 190.006168,47.2734612 L191.024837,46.0141271 C188.744957,44.9969728 185.543424,43.9313824 182.293382,43.9313824 L182.293382,43.9313824 Z M184.282214,37.5378406 L185.543424,36.5206862 L180.304551,32.6942482 L180.304551,16.3229062 L178.8008,17.3400605 L178.8008,33.7114026 L184.282214,37.5378406 L184.282214,37.5378406 Z M192.23754,16.2744702 L184.767295,13.2230071 L184.767295,14.7729566 L190.491249,17.3400605 L190.491249,32.6942482 C190.491249,36.0363269 191.994999,39.6205853 194.226371,42.4298688 L195.487581,41.1705348 C193.49875,38.6034309 192.23754,35.7941473 192.23754,32.4520686 L192.23754,16.2744702 L192.23754,16.2744702 Z M190.006168,31.9192735 L190.006168,17.8244198 L185.009835,15.4994955 L185.009835,31.6286579 L188.259877,33.6629667 L190.006168,31.9192735 L190.006168,31.9192735 Z M253.697283,16.8072654 L260.148858,10.4137235 L260.633939,10.4137235 C261.11902,10.9465187 264.126521,13.7558022 264.611602,13.9979818 C264.854142,14.2401615 265.096683,14.2401615 265.339223,14.2401615 C265.824304,14.2401615 266.357893,13.9979818 266.842974,13.7073663 L266.842974,14.7245207 C266.357893,15.2573158 265.581764,16.2744702 265.581764,17.2916246 L265.581764,33.6629667 C262.865311,34.4379415 260.585431,35.987891 258.111519,38.7971746 L257.868978,38.7971746 L253.648775,37.7800202 L253.648775,41.3642785 L255.880147,43.3985873 L250.641274,48 L250.398733,48 L245.4024,43.6407669 L246.663611,42.0908174 L246.663611,35.9394551 C246.17853,35.9394551 245.15986,35.6972755 244.674779,35.4066599 L244.674779,34.6316852 C245.15986,34.3895055 246.906151,32.839556 246.906151,31.580222 L246.906151,17.4853683 L245.4024,15.9354188 L243.656109,17.7275479 L243.171029,17.1947528 L249.380063,10.8012109 L249.865144,10.8012109 L253.842807,14.9182644 L253.842807,16.7103935 L253.697283,16.7103935 L253.697283,16.8072654 Z M247.488248,42.6720484 L246.469578,43.6892028 L250.447241,47.2734612 L251.708451,46.2563068 L248.45841,43.4470232 L248.943491,42.9142281 L248.943491,16.2744702 L246.712119,13.9495459 L245.693449,14.9667003 L247.43974,16.7588295 L247.43974,42.6720484 L247.488248,42.6720484 Z M258.645108,32.6942482 L258.645108,17.8244198 L256.171195,15.2573158 L253.454742,17.8244198 L253.454742,31.3864783 C254.667445,31.9192735 258.160027,32.4036327 258.645108,32.6942482 L258.645108,32.6942482 Z M257.917486,38.0706357 C258.160027,37.5378406 258.645108,37.0534813 258.936156,36.8113017 L253.454742,35.7941473 L253.454742,37.3440969 L257.917486,38.0706357 Z M256.656276,15.0151362 L259.372729,17.8244198 L259.372729,32.6942482 L260.876479,31.9192735 L260.876479,16.8072654 L257.868978,13.7558022 L256.656276,15.0151362 L256.656276,15.0151362 Z M1.94032339,23.2008073 C1.94032339,16.5650858 6.6456076,12.2058527 11.1568595,10.123108 L11.3993999,10.6559031 C9.89564927,12.4480323 8.92548758,14.2401615 8.92548758,18.3572149 C8.92548758,22.9586276 10.1866978,26.0585267 11.9329888,28.0928355 C12.4180697,27.3178607 12.9516586,26.3007064 12.9516586,25.283552 L12.9516586,18.6478305 L20.9069845,12.7386478 L21.1495249,13.271443 C20.6644441,14.0464178 20.1308551,15.0635721 20.1308551,16.6135217 L20.1308551,20.9727548 C20.1308551,24.024218 15.4255709,27.3662967 12.4180697,28.3834511 C14.4069012,30.4177598 17.1233539,31.1927346 20.1308551,31.1927346 C21.1495249,31.1927346 22.1196866,31.1927346 23.1383564,30.950555 L23.1383564,12.2542886 C20.4219037,12.012109 17.8994832,11.4793138 15.6681114,10.7043391 C13.194199,9.92936428 10.6717786,9.15438951 8.68294716,9.15438951 C5.43290548,9.15438951 1.45524254,10.1715439 1.45524254,15.0635721 L1.45524254,16.6135217 L0.72762127,16.8557013 C0.242540423,15.3057518 0,13.8042381 0,12.4964682 C0,6.58728557 4.22020337,1.50151362 10.9628271,1.50151362 C13.6792799,1.50151362 16.4442407,2.2764884 18.918153,3.05146317 C21.3920653,3.82643794 23.9144857,4.60141271 26.3883981,4.60141271 C27.6496083,4.60141271 28.3772295,3.82643794 28.3772295,2.56710394 C28.3772295,1.30776993 27.8921487,0.774974773 26.8734789,0.532795156 L26.8734789,0 C29.8809802,0.532795156 32.8399733,2.32492432 32.8399733,6.15136226 C33.0825138,9.9778002 29.8324721,12.3027245 24.3995666,12.3027245 L23.9144857,12.3027245 L23.9144857,31.2411705 C27.4070678,30.4661958 29.8809802,28.9162462 31.6272712,25.864783 L32.1123521,26.1069627 C30.1235206,32.5005045 25.4182364,38.6518668 17.171862,38.6518668 C8.92548758,38.6518668 1.94032339,33.469223 1.94032339,23.2008073 L1.94032339,23.2008073 Z M24.3510585,9.88092836 C18.3845641,9.88092836 12.9031505,6.82946519 8.68294716,6.82946519 C5.67544591,6.82946519 2.47391232,8.08879919 1.45524254,11.4308779 L1.69778296,11.4308779 C2.95899317,9.10595358 5.91798633,8.37941473 8.68294716,8.37941473 C13.1456909,8.37941473 18.3845641,11.4308779 24.3510585,11.4308779 C29.0563427,11.4308779 32.063844,9.63874874 32.3063844,5.8123108 L32.063844,5.8123108 C31.530255,8.86377397 29.0563427,9.88092836 24.3510585,9.88092836 L24.3510585,9.88092836 Z M7.17919653,13.7073663 C4.94782464,16.0322906 2.95899317,19.0837538 2.95899317,23.2008073 C2.95899317,32.9364279 9.168028,37.7800202 17.3658943,37.7800202 C22.362227,37.7800202 25.8063011,34.9707366 27.7951325,32.9364279 L27.5525921,32.6942482 C25.3212202,34.728557 22.0711785,36.2785066 17.1233539,36.2785066 C10.6717786,36.2785066 4.41423571,32.1614531 4.41423571,23.2008073 C4.41423571,19.6165489 5.67544591,16.0322906 7.17919653,13.7073663 Z M15.1345224,24.7507568 L15.1345224,17.5822402 L13.6307718,18.8415742 L13.6307718,25.4772957 C13.6307718,26.2522704 13.3882314,26.7366297 13.3882314,27.2694248 L13.6307718,27.2694248 C14.3583931,26.542886 15.1345224,25.7679112 15.1345224,24.7507568 L15.1345224,24.7507568 Z M90.516086,23.2008073 C90.516086,16.5650858 95.2213702,12.2058527 99.7326221,10.123108 L99.9751625,10.6559031 C98.2288715,12.6902119 97.2587098,14.4823411 97.2587098,18.3572149 C97.2587098,22.9586276 98.51992,26.0585267 100.266211,28.0928355 C100.751292,27.3178607 101.284881,26.3007064 101.284881,25.283552 L101.284881,18.6478305 L109.482747,12.4964682 L109.725288,13.0292634 C108.997666,14.0464178 108.706618,15.0635721 108.706618,16.6135217 L108.706618,20.9727548 C108.706618,24.024218 104.001334,27.3662967 100.993832,28.3834511 C102.982664,30.4177598 105.699117,31.1927346 108.706618,31.1927346 C109.725288,31.1927346 110.695449,31.1927346 111.714119,30.950555 L111.714119,12.2542886 C108.997666,12.012109 106.475246,11.4793138 104.243874,10.7043391 C101.769962,9.92936428 99.2475413,9.15438951 97.2587098,9.15438951 C94.0086681,9.15438951 90.0310052,10.1715439 90.0310052,15.0635721 L90.0310052,16.6135217 L89.5459243,16.8557013 C89.0608435,15.3057518 88.8183031,13.8042381 88.8183031,12.4964682 C88.8183031,6.58728557 93.0385064,1.50151362 99.7811302,1.50151362 C102.497583,1.50151362 105.262544,2.2764884 107.736456,3.05146317 C110.210368,3.82643794 112.732789,4.60141271 115.206701,4.60141271 C116.467911,4.60141271 117.195533,3.82643794 117.195533,2.56710394 C117.195533,1.30776993 116.710452,0.774974773 115.691782,0.532795156 L115.691782,0 C118.699283,0.532795156 121.658276,2.32492432 121.658276,6.15136226 C121.658276,10.752775 118.408235,12.7870838 112.975329,12.7870838 L112.490248,12.7870838 L112.490248,31.7255298 C115.98283,30.950555 118.456743,29.4006054 120.203034,26.3491423 L120.688115,26.5913219 C118.699283,32.9848638 113.993999,39.136226 105.747625,39.136226 C97.4527421,38.554995 90.516086,33.469223 90.516086,23.2008073 L90.516086,23.2008073 Z M112.878313,9.88092836 C106.911819,9.88092836 101.430405,6.82946519 97.2102017,6.82946519 C94.493749,6.82946519 91.2437073,8.08879919 89.9824971,11.4308779 L90.2250375,11.4308779 C91.4862477,9.10595358 94.4452409,8.37941473 97.2102017,8.37941473 C101.672945,8.37941473 106.911819,11.4308779 112.878313,11.4308779 C117.583597,11.4308779 120.591099,9.63874874 120.833639,5.8123108 L120.591099,5.8123108 C119.863477,8.86377397 117.632105,9.88092836 112.878313,9.88092836 L112.878313,9.88092836 Z M95.7064511,13.7073663 C93.4750792,16.0322906 91.4862477,19.0837538 91.4862477,23.2008073 C91.4862477,32.9364279 97.6952825,37.7800202 105.893149,37.7800202 C110.889482,37.7800202 114.333556,34.9707366 116.322387,32.9364279 L116.128355,32.6942482 C113.896983,34.728557 110.646941,36.2785066 105.699117,36.2785066 C99.2475413,36.2785066 92.9899983,32.1614531 92.9899983,23.2008073 C92.9899983,19.6165489 94.2512085,16.0322906 95.7064511,13.7073663 L95.7064511,13.7073663 Z M103.661777,24.7507568 L103.661777,17.5822402 L102.158026,18.5993946 L102.158026,25.235116 C102.158026,26.0100908 101.915486,26.4944501 101.915486,27.0272452 L102.158026,27.0272452 C102.934156,26.542886 103.661777,25.7679112 103.661777,24.7507568 L103.661777,24.7507568 Z"/></svg>