<svg xmlns="http://www.w3.org/2000/svg" width="336" height="48" viewBox="0 0 336 48"><g fill="none" fill-rule="evenodd"><path fill="#FFF" fill-rule="nonzero" d="M129.546147,48 C126.921295,45.9940082 125.244725,43.9700698 124.032539,41.0837926 C123.09091,38.5295293 122.454435,35.8061184 122.782652,32.9777194 C123.125062,29.4713839 123.808109,26.4231379 124.464544,23.0177526 C124.649942,22.8302096 124.521317,22.5269105 124.635749,22.3106528 C125.063762,20.3481818 125.591571,18.4287828 126.019585,16.4663118 C126.19079,16.4232397 126.418768,16.4375971 126.604166,16.4519544 L126.390381,16.4950265 C128.030581,16.5959766 129.77102,16.6825694 131.440493,16.812683 C131.540289,16.9427965 131.725687,16.9279905 131.839676,16.8992758 C131.976729,16.9167738 132.112008,16.9387585 132.248617,16.9576025 C132.393654,16.5551479 132.553771,16.171986 132.744048,15.9476523 C132.130637,14.7645165 131.96431,14.6191482 131.23691,13.4934418 C131.23691,13.4934418 129.803398,11.2999071 129.47252,11.0764708 C129.141641,10.8534831 128.847576,10.7417649 128.4067,10.5187772 C127.965381,10.2957895 127.459749,10.3406563 126.789121,10.1100413 C125.990311,7.52661459 124.657483,4.38369971 123.904357,1.17617674 L124.931588,2.21529035 L128.440853,5.64939034 L130.51217,7.35208298 C130.569386,7.78504699 130.569386,8.37639057 130.768978,8.82371193 C130.882967,9.38678947 131.325173,9.77623274 131.567788,10.2957895 C132.723202,11.9410528 133.313993,12.5633544 134.398441,14.2373323 C134.398441,14.2373323 135.096568,13.9771053 135.537444,13.60516 C134.949757,13.3076935 135.117414,11.3739372 135.117414,11.3739372 C135.003425,10.363987 134.133206,9.48370162 134.603799,8.38670992 C134.675208,8.30011712 134.83222,7.88151047 134.8748,7.73748825 C134.789197,7.18921673 134.082643,6.83432085 134.582065,6.24297726 C134.638838,6.15638446 134.4184,5.83289529 134.4184,5.70278176 C134.375821,4.54836064 134.731981,3.43701158 134.846413,2.32611119 C135.117414,1.87878983 135.431438,1.56113334 135.902031,1.33051831 C137.086275,0.839676219 138.526883,0.767440774 139.739513,0.406712215 C139.839309,0.47894766 139.881888,0.320119414 139.982128,0.334476769 C140.623925,0.334476769 141.137541,-0.170274013 141.779339,0.060341011 C142.720968,0.969789754 143.619574,1.90750454 144.503987,2.86002535 C145.160421,3.30734671 145.474002,3.9852831 146.002254,4.57707535 C146.14463,4.89473184 146.45688,5.38422793 146.271038,5.75931385 L145.866976,6.24297726 L145.716617,8.50201743 C145.602628,8.70436641 145.631014,8.96414481 145.459809,9.15168777 L145.459809,9.26699528 L145.431422,9.23828057 C145.34582,9.77219473 145.30324,10.3204663 145.132035,10.8113083 C145.045989,11.3882946 144.953733,12.0262996 144.911154,12.6755212 C144.825551,13.7868703 145.144898,14.257971 145.486865,15.2535639 C145.757866,15.5276997 146.283457,16.158526 146.712357,16.6915428 C147.269439,17.3838365 148.623558,18.5503717 149.726634,20.6698763 C150.829267,22.7893809 152.042341,26.6192055 152.887722,30.8954541 C153.116143,32.511554 153.580527,33.7494272 152.924536,35.3946905 C152.096896,36.4768761 151.81525,36.6204497 150.645199,37.0677711 C150.645199,37.0677711 153.880358,41.3067803 153.880358,42.1300849 C153.880358,42.6989951 153.622663,42.9430702 153.622663,42.9430702 L139.691611,42.9430702 C138.184472,44.8763778 133.854221,47.5813934 129.546147,48"/><path fill="#154481" fill-rule="nonzero" d="M141.556101,0.872737989 C142.412127,1.69918327 143.229122,2.55165126 144.033255,3.41757927 C144.629812,3.82452056 144.915006,4.44098952 145.394913,4.97894169 C145.524426,5.2674348 145.744864,5.59541064 145.57632,5.93639784 L145.368745,6.18585689 L145.135444,8.54719322 C145.031656,8.73069817 145.057382,8.9666972 144.902144,9.1371908 L144.902144,9.24217896 L144.875975,9.21615626 C144.798356,9.70161434 144.759325,10.2000838 144.603643,10.6460591 C144.526024,11.1705513 144.331312,11.7349748 144.29228,12.3249724 C144.214661,13.3353713 144.513162,14.3453215 144.824081,15.2507323 C145.070688,15.4997427 145.08355,15.7882358 145.368745,15.9982121 L145.355882,16.0112235 C146.081952,16.8511288 146.886084,17.664114 147.638323,18.5565134 L148.507212,19.6189577 C148.520074,19.7634286 148.611,19.8549568 148.72765,19.9339222 C150.724897,23.0427384 151.26956,26.7554608 152.203205,30.3237123 C152.410781,31.7930979 152.942581,33.4984826 152.346024,34.9938909 C151.593786,35.9778184 150.47829,36.4502651 149.415132,36.8567578 C150.59494,38.5621424 151.930874,40.2415044 153.072094,41.9729117 C153.084957,42.0648885 153.111125,42.1434053 153.098263,42.2353821 C152.449812,42.2089107 151.76233,42.1173826 151.126741,42.130394 C150.063583,40.4775034 148.921919,38.8246128 147.715942,37.2502391 C147.677354,37.2107563 147.560704,37.2632504 147.560704,37.1847336 C147.547398,37.197745 147.521673,37.2107563 147.534535,37.2372277 C147.223172,37.2107563 146.860359,37.3157445 146.509965,37.3287558 C146.393315,37.4992494 146.36759,37.7617198 146.315696,37.9847075 C146.263802,38.1816725 146.250496,38.4046602 146.133846,38.5491311 C146.354727,38.8376242 146.419484,39.1786114 146.665647,39.4540931 C147.09366,40.3855266 147.469779,41.3564428 147.871623,42.3008875 L145.394913,42.3008875 L140.842894,42.3138989 C140.635318,42.3533816 140.402018,42.2483935 140.207305,42.3138989 L139.675504,42.2878762 C139.909248,42.1173826 140.051624,41.8419008 140.259199,41.6714072 C142.451158,41.6319245 144.565056,41.7629354 146.743709,41.6184645 C146.471377,40.5690315 145.913408,39.598564 145.303988,38.6671306 L144.526024,37.7881912 C143.903298,37.4992494 143.202954,37.3947099 142.567809,37.1322395 L143.293879,34.613421 C144.499856,34.8889027 145.654382,35.4398662 146.782297,35.8728303 C148.662893,32.8425309 149.972658,29.4317616 149.700326,25.6010397 L149.544645,24.3416304 C149.427995,24.2236309 149.51892,24.0921713 149.440857,23.9611605 C149.051875,21.7312837 148.11823,19.6979232 146.536134,18.0055499 C146.509965,18.0710553 146.60089,18.110538 146.613753,18.1630321 C146.691815,18.5695248 146.886084,19.0679942 146.548996,19.4089814 C146.276665,19.77644 145.796758,19.7239459 145.433501,19.6319691 C144.370343,18.8844892 143.605242,17.7035967 142.72349,16.811646 C141.529932,15.5522367 140.090655,14.3583329 138.274815,14.4372984 C137.587776,14.3978156 136.939325,14.5552979 136.342768,14.7257915 C136.290874,14.7522628 136.303736,14.8177683 136.316599,14.843791 C137.328307,14.9752505 138.184333,15.4602599 139.040359,15.9982121 C140.194443,16.9296455 140.920512,18.1495721 141.322801,19.4879468 C140.583424,19.2649592 139.857354,19.0155001 139.079391,18.8710292 C139.196041,18.727007 139.429341,18.6745129 139.39031,18.4645366 C139.234629,18.2545603 138.975159,18.3200657 138.741859,18.2285376 L138.508559,18.2415489 C138.495696,18.5170307 138.807059,18.7530297 138.988466,18.8450065 C138.768028,18.7530297 138.547146,18.6875243 138.313846,18.6350302 C138.417634,18.5170307 138.300983,18.3725598 138.158164,18.3725598 C137.924864,18.4120425 137.691564,18.2415489 137.45782,18.3465371 L137.561607,18.4515252 C137.367338,18.3990312 137.172625,18.3725598 136.991219,18.294043 C137.107869,18.2415489 137.120732,18.1495721 137.107869,18.0315726 C136.900737,17.9005617 136.589374,18.0315726 136.47228,17.7560908 L136.407524,17.7560908 C136.381799,17.8085849 136.433693,17.861079 136.485587,17.8875504 C136.381799,17.8740903 136.278011,17.7300681 136.187086,17.8480676 C136.161361,18.0055499 136.303736,18.110538 136.407524,18.1630321 L136.602237,18.2150775 C135.253441,18.0185612 133.839889,17.664114 132.439199,17.4545864 C132.698668,16.9561169 133.061925,16.5231529 133.450907,16.0641662 C132.893381,14.9882619 132.075942,14.0173457 131.414629,12.9943841 L129.858701,10.8950695 C129.547338,10.6985532 129.339763,10.3705774 128.97695,10.2916119 C128.445149,9.93761338 127.861454,9.7146257 127.252035,9.50464937 C126.525521,7.1563244 125.695663,4.8604935 124.671093,2.63061671 L125.604738,3.57506151 L128.7951,6.69733769 L129.93632,7.72029927 C129.988214,8.11422922 129.988214,8.65173272 130.169621,9.05867401 C130.273408,9.57015481 130.675696,9.92460202 130.896134,10.3966001 C131.94643,11.8924571 133.035756,13.2568545 134.021295,14.7782855 C134.125083,14.9092964 134.306933,15.0272959 134.242177,15.1717668 L134.228871,15.1982382 C134.462171,15.1062614 134.60499,14.8307796 134.864459,14.7257915 C135.486741,14.3583329 136.161361,14.0963112 136.874568,13.9648516 L136.952187,13.991323 C137.03025,13.8468521 136.861706,13.794358 136.861706,13.6503358 C136.822675,13.5843817 136.679856,13.6108531 136.73175,13.4928536 C136.303736,13.3353713 135.642423,13.1778891 135.62956,12.5744315 L135.500048,11.1575399 C135.39626,10.2391178 134.60499,9.43914394 135.033003,8.44220506 C135.09776,8.3632396 135.110622,8.25825144 135.149653,8.1667233 L135.09776,8.1667233 C135.188685,8.12724057 135.240578,7.98276968 135.27961,7.85175881 C135.201547,7.35328937 134.579265,6.88084264 135.033003,6.34333914 C135.084897,6.26437368 135.136791,6.18585689 135.110622,6.08086873 C135.058728,6.13336281 134.864459,6.12035146 134.864459,6.00190327 C134.825428,4.95247031 135.149653,3.94252008 135.253441,2.93212118 C135.500048,2.52562855 135.785242,2.23713544 136.213255,2.02715911 C137.289719,1.58118375 138.59904,1.51567832 139.701673,1.18770248 C139.792155,1.25320791 139.831186,1.10873702 139.922111,1.12174837 C140.505805,1.12174837 140.972406,0.662761663 141.556101,0.872737989"/><path fill="#FFF" fill-rule="nonzero" d="M143.877317,17.2184098 L144.123923,17.4019148 C144.032998,17.5199143 143.877317,17.4808803 143.721635,17.4938916 C143.57926,17.4808803 143.566397,17.3494207 143.501197,17.2578926 C143.566397,17.087399 143.747804,17.2184098 143.877317,17.2184098 Z M145.991431,17.2052656 C145.991431,17.2837824 146.030462,17.3627479 146.082356,17.4017819 C146.082356,17.467736 146.004293,17.454276 145.965262,17.4807474 L145.926674,17.4412646 C145.770993,17.4807474 145.602449,17.4017819 145.45963,17.2972424 L145.433905,17.2707711 C145.563418,17.1397602 145.848612,16.9952893 145.991431,17.2052656 Z M139.533309,17.0084795 L139.598065,17.0084795 C139.649515,17.0869963 139.675684,17.1789731 139.74044,17.2574899 C139.675684,17.4804775 139.442383,17.4019607 139.299565,17.4544548 C139.079127,17.4279835 138.884414,17.3494667 138.690145,17.2444785 C138.651114,17.2054444 138.651114,17.1529504 138.625388,17.1004563 C138.716313,17.0609735 138.89772,17.1919844 138.975339,17.0479622 C139.247671,17.2314671 139.312427,16.693515 139.533309,17.0084795 Z M136.044445,16.9295616 C136.239158,17.0610212 136.511489,17.0345498 136.731927,17.1265266 C136.809546,17.139538 136.848577,17.0870439 136.939059,17.1135152 L136.913334,17.2970202 C136.680033,17.3495143 136.433427,17.3625256 136.212989,17.2840088 C136.083476,17.2315148 135.992551,17.139538 135.850176,17.1005039 C135.850176,16.9820557 135.979688,16.9955157 136.044445,16.9295616 Z M138.262272,17.0347242 C138.223241,17.1922065 138.002803,17.113241 137.911878,17.2447006 C137.704746,17.4017341 137.497171,17.1527237 137.328183,17.0607469 C137.211533,16.9427474 137.302458,16.8377593 137.431971,16.7987252 C137.743334,16.7332198 137.950909,17.0347242 138.262272,17.0347242 Z M144.525988,16.8641451 C144.590745,16.9296505 144.720701,17.0216273 144.720701,17.1136041 C144.56502,17.2181436 144.38317,17.1136041 144.227488,17.0871327 C144.162732,17.008616 144.033219,16.9691332 144.020356,16.8511337 C144.110838,16.7196742 144.318413,16.8901678 144.435063,16.7721683 C144.525988,16.7331342 144.49982,16.8246623 144.525988,16.8641451 Z M145.316992,16.5626362 C145.472673,16.641153 145.524567,16.8116466 145.524567,16.9691289 L145.472673,17.0216229 C145.395054,16.9426575 145.252235,16.9296461 145.148448,16.8641407 C145.031797,16.8511293 144.92801,16.824658 144.849947,16.7331298 C144.849947,16.6541644 144.940872,16.6541644 145.005629,16.6541644 C145.148448,16.6806357 145.187035,16.4576481 145.316992,16.5626362 Z M134.64398,16.5885261 C134.955343,16.732997 135.240537,16.7854911 135.564763,16.7985025 C135.37005,16.8640079 135.123887,17.0739842 134.916312,16.9295133 C134.825386,16.8379852 134.734905,16.6935143 134.64398,16.5885261 Z M143.41076,16.5623239 C143.514547,16.614818 143.475516,16.7592888 143.592166,16.7723002 C143.475516,16.8378056 143.475516,16.9952879 143.294109,16.9033111 C143.177459,16.850817 142.943715,16.7853116 142.982746,16.628278 C143.125122,16.6018066 143.281247,16.5363012 143.41076,16.5623239 Z M137.185711,16.4181257 C137.20025,16.5711712 137.110611,16.6189736 137.003572,16.6514666 L136.872327,16.6888654 C136.829496,16.7027193 136.789436,16.7198795 136.757698,16.7461016 C136.602017,16.5886193 136.329685,16.5625966 136.18731,16.4051144 C136.316823,16.2476322 136.433473,16.4445971 136.576292,16.4311371 C136.744836,16.3526203 137.03003,16.2081494 137.185711,16.4181257 Z M138.62539,16.2214681 C138.74204,16.2999848 139.014372,16.2869735 138.962478,16.5099612 C139.001509,16.5494439 139.066266,16.5229725 139.11816,16.4834898 C138.845828,16.7329489 138.365921,16.7199375 138.041695,16.6279607 L137.925045,16.4969498 C138.119314,16.3524789 138.521602,16.5229725 138.62539,16.2214681 Z M144.046125,16.0114956 C144.175637,16.0509783 144.07185,16.2344832 144.214669,16.2344832 L144.279425,16.32646 C144.085156,16.509965 143.851412,16.3654941 143.64428,16.3919655 C143.734762,16.313 143.76093,16.1034724 143.903306,16.1555178 L144.046125,16.0114956 Z M135.785067,15.9982618 L135.940749,16.0902386 C135.811236,16.1427327 135.733174,16.3132263 135.577936,16.3787317 C135.357054,16.4047544 135.18851,16.1952267 134.95521,16.1952267 L134.95521,16.0377445 C135.266573,16.2867549 135.499873,15.8537909 135.785067,15.9982618 Z M145.044609,15.9589581 C145.018884,16.0639462 145.096503,16.155923 145.031747,16.2344398 C144.849896,16.103429 144.435189,16.3264166 144.448052,15.9459467 C144.499946,15.8674299 144.564702,15.9719694 144.616596,15.9194753 C144.746552,15.7359704 144.914653,15.8934526 145.044609,15.9589581 Z M143.514543,15.9327558 C143.514543,16.0247326 143.423618,16.1557435 143.294105,16.1817662 C143.216042,16.2867544 143.08653,16.2082376 142.982742,16.1817662 L142.956573,16.1557435 C143.034636,15.8672504 143.306967,16.0507553 143.514543,15.9327558 Z M138.132226,15.7488491 L138.210289,15.8278145 C138.236457,15.9588254 138.158395,16.0902849 138.041745,16.1163077 C137.769413,16.142779 137.45805,16.1818131 137.224749,16.0247795 L137.406156,15.8672973 C137.470912,15.9063313 137.588006,15.8672973 137.665625,15.8013432 C137.795138,15.6833436 137.976988,15.709815 138.132226,15.7488491 Z M142.541915,15.5913668 L142.788078,15.8278145 C142.684291,15.9588254 142.502884,16.0247795 142.347203,15.9458141 C142.295309,15.8672973 142.074871,15.8148032 142.152933,15.6703323 C142.256277,15.5913668 142.411959,15.6178382 142.541915,15.5913668 Z M137.13387,15.3164221 C137.160039,15.3819275 137.030082,15.3424448 137.030082,15.4079502 C137.069113,15.4999271 137.172901,15.5914552 137.121007,15.6964434 L136.705857,15.9589138 C136.433525,15.9328911 136.083574,15.8409143 136.018818,15.5524211 C136.070268,15.447433 136.161193,15.5654325 136.252118,15.5259498 C136.511588,15.5784438 136.732025,15.3554562 136.978188,15.4079502 L137.13387,15.3164221 Z M143.527188,15.1981055 C143.410538,15.3291163 143.657145,15.5390927 143.436707,15.6045981 C143.320056,15.6570922 143.177238,15.6570922 143.060587,15.565564 L142.826843,15.3030936 C142.930631,15.2636109 143.086313,15.2505996 143.1901,15.2505996 C143.293888,15.2111168 143.423401,15.2111168 143.527188,15.1981055 Z M144.292688,15.0670999 C144.370307,15.0801112 144.409116,15.1292403 144.438279,15.1882401 L144.492382,15.3116236 C144.502136,15.3317887 144.512978,15.3511063 144.525988,15.3686044 C144.513126,15.5260866 144.409338,15.6310748 144.227488,15.6046034 C144.07225,15.591592 143.903263,15.5130752 143.838506,15.355593 C143.942294,15.1191453 144.266519,15.3686044 144.292688,15.0670999 Z M134.864333,15.3294805 L135.34424,15.3555032 C135.422303,15.5784909 135.162834,15.4865141 135.084771,15.5654795 C134.980984,15.5129855 134.825302,15.5915023 134.760546,15.4735027 C134.734821,15.3819746 134.773408,15.3424919 134.864333,15.3294805 Z M142.178924,14.9226706 L142.47698,15.0931642 C142.437949,15.3556346 142.139892,15.185141 142.009936,15.3031405 C141.906592,15.2901292 141.724742,15.2901292 141.659985,15.1326469 C141.75091,15.1326469 141.815667,15.0011874 141.854255,14.935682 C141.94518,14.988176 142.100861,15.0011874 142.178924,14.9226706 Z M142.645428,14.4371682 C142.840141,14.4636396 142.904897,14.71265 143.125335,14.5421564 C143.268154,14.5946505 143.203398,14.7911668 143.281017,14.8961549 C143.021548,15.0146031 142.697322,14.9096149 142.476884,14.7386727 C142.489747,14.6206732 142.489747,14.4371682 142.645428,14.4371682 Z M141.089146,14.5161722 C141.231965,14.647183 141.426234,14.7126885 141.608084,14.7651826 C141.465265,14.8176766 141.25769,14.9881702 141.063421,14.9226648 L140.726333,14.6866658 C140.83012,14.6077003 140.985358,14.594689 141.089146,14.5161722 Z M144.27951,14.3322691 C144.292372,14.3847632 144.240479,14.47674 144.331404,14.4897513 C144.253341,14.6207622 144.175722,14.7912558 144.033347,14.8832326 C143.825772,14.8437499 143.540134,14.8702213 143.488684,14.5812795 C143.592028,14.3322691 143.981453,14.6207622 144.033347,14.3322691 C144.084797,14.2012582 144.240479,14.2142696 144.27951,14.3322691 Z M141.94544,14.0564663 C142.06209,14.2009372 142.476797,14.0044209 142.308253,14.3584194 C142.204465,14.5683957 141.971165,14.4898789 141.802621,14.542373 C141.673108,14.3979021 141.465533,14.3714308 141.322714,14.2274085 C141.439364,13.9914095 141.750727,14.1749145 141.94544,14.0564663 Z M140.635415,14.2667209 C140.66114,14.4242032 140.454008,14.3322264 140.454008,14.4897086 C140.246433,14.3847205 139.974101,14.3847205 139.792251,14.2272382 C139.908901,14.1352614 140.142645,14.1092387 140.311189,14.1222501 C140.414977,14.083216 140.700171,14.0307219 140.635415,14.2667209 Z M143.838371,13.9124945 L143.86454,13.9124945 C143.838371,14.174965 143.514589,14.0565168 143.358908,14.1484936 C143.216089,14.174965 143.034682,14.1354822 142.930894,14.0565168 C142.995651,13.8994832 143.228951,13.9255059 143.358908,13.8075064 C143.527008,13.9124945 143.86454,13.5060019 143.838371,13.9124945 Z M141.569237,13.5975763 L141.569237,13.7290358 C141.374524,13.8075526 141.154087,13.8860694 140.998405,14.0305403 C140.881755,13.9255521 140.700348,13.873058 140.67418,13.7155758 C140.79083,13.676093 140.985543,13.6240476 141.154087,13.7155758 C141.245012,13.5580935 141.426418,13.4925881 141.569237,13.5975763 Z M142.930939,13.4792605 L142.943802,13.6632141 C142.917633,13.7026969 142.930939,13.755191 142.930939,13.7946737 C142.619576,13.8992132 142.243457,13.9651673 142.010157,13.6502028 C141.983988,13.6367428 141.997294,13.5977087 141.997294,13.5712373 C142.113944,13.5322033 142.243457,13.374721 142.360107,13.5187433 C142.567682,13.558226 142.762395,13.2697329 142.930939,13.4792605 Z M140.337175,13.4794866 C140.272418,13.6109462 140.155768,13.6894629 140.051981,13.8074625 C139.831543,13.7814398 139.52018,13.8339338 139.40353,13.5844748 C139.429255,13.5584521 139.416392,13.505958 139.429255,13.4664753 L139.909162,13.5844748 C139.986781,13.4929466 140.233387,13.1779822 140.337175,13.4794866 Z M143.825504,12.9286587 L143.916429,13.0466582 C143.95546,13.1911291 143.825504,13.3221399 143.735022,13.4006567 C143.579341,13.4531508 143.34604,13.4926335 143.190359,13.3616227 C143.138465,13.3221399 142.956615,13.2041404 143.112296,13.1121636 C143.34604,13.0991522 143.579341,12.8761646 143.825504,12.9286587 Z M141.154036,12.9548605 C141.154036,13.0598487 141.257823,13.1253541 141.193067,13.2303423 C140.894567,13.2433536 140.531753,13.3748132 140.324178,13.0468373 C140.311316,12.9283892 140.466997,12.9023664 140.557479,12.8893551 C140.635541,12.9283892 140.71316,12.9548605 140.804085,12.9418492 C140.855979,12.7843669 141.141173,12.7713556 141.154036,12.9548605 Z M142.035969,12.8760318 L142.035969,12.8890431 C142.126894,12.8630204 142.308301,12.8760318 142.347332,12.9940313 C142.282132,13.217019 141.984075,13.1909963 141.789806,13.2565017 C141.711743,13.0860081 141.491306,13.0599854 141.413687,12.8890431 C141.607956,12.7320096 141.880287,13.0990195 142.035969,12.8760318 Z M143.164154,12.403806 C143.203185,12.4563001 143.164154,12.5482769 143.255079,12.5612882 C143.216048,12.7582532 143.099398,12.8762527 142.904685,12.9152868 C142.710416,12.8497813 142.450947,12.8102986 142.347159,12.600771 C142.425221,12.5482769 142.554734,12.4957828 142.632797,12.5742996 C142.684691,12.6792877 142.801341,12.639805 142.87896,12.6137823 C142.982747,12.5348169 143.021779,12.3907946 143.164154,12.403806 Z M139.079391,4.82114889 C139.947836,4.97863114 140.778137,5.22809019 141.556101,5.56907739 C141.504207,5.88404188 141.763676,6.0940182 141.789401,6.39552267 C142.009839,7.45841565 142.036008,8.756859 141.841295,9.85878604 C141.672751,10.2787387 141.529932,10.6592086 141.348526,11.0657012 C141.089057,11.4856539 140.842894,11.957652 140.402018,12.207111 C139.740261,12.82358 138.728996,13.0070849 137.899139,12.6530864 C137.393063,12.626615 137.250688,11.6036534 136.654131,12.1416056 C136.589374,12.2856278 136.42083,12.390616 136.407524,12.5611096 L136.35563,12.6005923 C136.226117,12.390616 136.35563,12.0105947 136.316599,11.8266411 C136.362239,11.5788421 136.553927,11.5045024 136.762653,11.4551153 L136.942726,11.4154307 C136.97243,11.4086805 137.001731,11.4015736 137.03025,11.3936771 L137.535882,11.4591825 L137.587776,11.4331598 C137.45782,11.2626662 137.393063,11.0132072 137.328307,10.8297022 C137.095006,10.7377254 136.835537,10.8821963 136.563206,10.8297022 C136.47228,10.8427136 136.342768,10.8427136 136.265149,10.7641968 L136.342768,10.7511854 C136.342768,10.6982427 136.278011,10.6067145 136.342768,10.5277491 C136.641268,10.3312328 137.016944,10.3182214 137.367338,10.2132333 C137.535882,10.3047614 137.717289,10.1607392 137.847245,10.29175 L138.378602,10.3707155 C138.469527,10.5017264 138.612346,10.5672318 138.754722,10.6327372 C138.830492,10.5781494 138.726077,10.5416328 138.69661,10.485539 L138.68949,10.4495027 L138.677103,10.475255 C138.547146,10.3967382 138.560452,9.88525741 138.262396,10.1212564 C137.704426,10.1867619 137.289719,9.47831611 136.745056,9.92429147 C136.563206,9.99024558 136.433693,9.68829244 136.290874,9.89826877 L136.135192,10.0427397 C136.200392,9.81930331 136.278011,9.58330428 136.35563,9.38678797 L136.316599,9.38678797 C136.524618,9.29481116 136.79695,9.51779884 136.952187,9.26833979 L136.9136,9.17681165 L136.952187,9.21629438 L136.96505,9.189823 L136.9136,9.13732892 L136.991219,9.08483484 C137.289719,9.08483484 137.730595,9.37332795 137.886276,9.0193294 C137.899139,8.82236443 137.769183,8.65187083 137.613501,8.54688267 C137.289719,8.52085996 137.043113,8.7828817 136.745056,8.71737627 C136.563206,8.61283677 136.303736,8.50784861 136.23898,8.31088364 C136.407524,7.74690876 136.589374,7.19594524 136.887431,6.67100443 C137.055975,6.6315217 137.185488,6.76298124 137.367338,6.73650986 C137.510157,7.07794573 137.899139,7.15646252 138.158164,7.36643884 C138.378602,7.40592157 138.586178,7.54994379 138.807059,7.48443836 L138.857636,7.47739989 L138.963614,7.51749953 C138.981009,7.521173 138.998002,7.52033175 139.014191,7.51046106 C138.949434,7.2349793 138.59904,7.06448571 138.59904,6.72349851 C138.573315,6.68401578 138.495696,6.68401578 138.547146,6.6315217 C139.15701,6.51352219 139.753567,6.60549899 140.207305,6.90745213 C140.233474,6.92046348 140.259199,6.90745213 140.285368,6.88098075 C139.766429,6.57902762 139.27366,6.04152412 138.612346,6.15952364 L138.625209,6.14651228 L138.508559,6.08055818 C139.130841,5.67406555 139.870217,6.15952364 140.492943,6.2645118 L140.544837,6.22502907 C139.961142,5.84455915 139.338416,5.55606603 138.650934,5.45107787 C138.210058,5.46408922 137.847245,5.63458282 137.444957,5.72655963 C137.26355,5.58208874 137.095006,5.45107787 137.172625,5.16258476 C137.1469,5.11009068 137.198794,5.07060795 137.224519,5.04458524 C137.795351,4.79512619 138.43094,4.78211483 139.079391,4.82114889 Z M141.880373,12.2858056 C141.893235,12.3252883 141.997023,12.3777824 141.919404,12.4168164 C141.75086,12.5218046 141.504253,12.6267928 141.309984,12.5218046 C141.219059,12.4168164 140.985759,12.4302765 141.037209,12.2463228 C141.296678,12.1413347 141.63421,12.2463228 141.880373,12.2858056 Z M144.046257,12.0231985 C144.136739,12.141198 143.994363,12.2726576 144.111013,12.3776457 C144.111013,12.6266561 143.903438,12.4826339 143.760619,12.535128 C143.618244,12.5086566 143.514456,12.3646344 143.4497,12.2596462 C143.540181,12.2201635 143.643969,12.2856689 143.734894,12.2201635 C143.851544,12.154658 143.903438,12.0231985 144.046257,12.0231985 Z M142.489885,11.7346147 C142.502747,11.892097 142.710323,11.944591 142.775079,12.0890619 C142.606535,12.1940501 142.347066,12.2335328 142.152797,12.1285447 C142.061871,12.0365678 141.828571,11.9710624 141.867159,11.8135802 C142.036146,11.6821206 142.295172,11.7871088 142.489885,11.7346147 Z M143.65687,11.550981 L143.747795,11.6954519 C143.708764,11.7874287 143.644008,11.8659454 143.579251,11.9184395 C143.345951,11.9579223 143.203132,11.9969563 142.969832,11.8924168 C142.9308,11.7609573 142.658469,11.7609573 142.801288,11.5904637 C143.086482,11.5249583 143.397845,11.4984869 143.65687,11.550981 Z M141.698838,10.9872694 C141.945444,10.9872694 142.074957,11.2232684 142.256364,11.341268 L142.26967,11.4462561 C142.062095,11.3672907 141.815488,11.6692438 141.634081,11.4332448 C141.530294,11.3672907 141.504125,11.2497398 141.543156,11.1312916 C141.59505,11.0918089 141.607913,10.9872694 141.698838,10.9872694 Z M144.136691,10.7509155 C144.305679,10.7903982 144.214754,11.0133859 144.27951,11.1313854 C144.227616,11.2623963 144.318541,11.4198785 144.175722,11.4723726 C143.994316,11.3938558 143.760572,11.3543731 143.67009,11.1574081 C143.747709,11.104914 143.864359,11.0919027 143.955284,11.0524199 L144.136691,10.7509155 Z M142.775074,10.9478372 L143.02168,10.9083545 L143.267843,11.0658367 C143.164055,11.1313422 143.099299,11.2493417 142.969786,11.2758131 C142.684592,11.1573649 142.269441,11.1708249 142.165654,10.8033663 C142.359923,10.7638836 142.619392,10.7378609 142.775074,10.9478372 Z M144.033168,10.5672717 C143.968412,10.724754 143.773699,10.7377653 143.644186,10.8162821 C143.475642,10.7377653 143.229036,10.7902594 143.125248,10.5937431 C143.255204,10.4752949 143.39758,10.4887549 143.553261,10.4097895 C143.721805,10.3837668 143.916518,10.4228008 144.033168,10.5672717 Z M142.424997,10.1737939 L142.67116,10.3442875 C142.567816,10.3967816 142.347378,10.5147811 142.178834,10.4228043 C142.114078,10.3707589 141.996984,10.4228043 141.958396,10.3178161 C141.919365,10.1473225 142.12694,10.2132766 142.100772,10.0423344 C142.256453,9.89831213 142.360241,10.029323 142.424997,10.1737939 Z M144.42049,9.64950275 L144.370392,9.71453648 C144.59083,9.79305327 144.422286,10.0689837 144.448011,10.2390286 C144.396117,10.4099709 144.214711,10.2524886 144.110923,10.2524886 L143.79956,10.0164896 C143.918576,9.84150934 144.163569,9.83945295 144.33202,9.72990334 L144.42049,9.64950275 Z M143.138245,9.70147824 L143.293926,9.81947776 L143.436745,9.76698367 C143.475333,9.79345505 143.488639,9.85896048 143.488639,9.92446592 C143.34582,10.0294541 143.190139,10.2524418 142.982563,10.1344422 C142.7364,10.1079709 142.749263,9.81947776 142.580719,9.68846689 C142.723538,9.46547921 142.930669,9.76698367 143.138245,9.70147824 Z M144.188812,9.2291291 C144.253568,9.25515181 144.175949,9.29463454 144.201674,9.33411726 L143.760798,9.72759854 C143.579392,9.67510446 143.371816,9.59658767 143.268029,9.42609407 C143.410848,9.28162318 143.592254,9.28162318 143.79983,9.24258912 C143.903617,8.99313007 144.006961,9.30809456 144.188812,9.2291291 Z M142.360287,8.87499282 C142.528831,8.94049826 142.749269,8.95350961 142.853056,9.0979805 C142.878781,9.15047458 142.982569,9.07150913 142.969706,9.16348594 C142.90495,9.32096818 142.762131,9.36045091 142.632618,9.41294499 C142.580725,9.36045091 142.515968,9.30795683 142.425043,9.32096818 C142.334118,9.21598002 142.217468,9.0979805 142.282224,8.94049826 L142.360287,8.87499282 Z M144.513126,8.48119808 C144.525988,8.4946581 144.486957,8.56016354 144.525988,8.56016354 L144.538851,8.58618625 C144.551714,8.58618625 144.370307,8.62566897 144.461232,8.69162308 C144.513126,8.71764578 144.603607,8.70463443 144.603607,8.78315122 C144.577882,8.86166801 144.590745,8.90115073 144.590745,8.99312754 C144.461232,9.22912658 144.279382,9.0061389 144.07225,9.05863298 L143.942294,8.91461076 C143.968462,8.73065714 144.201763,8.87512803 144.201763,8.67816306 C144.279382,8.65214035 144.331276,8.54715219 144.422201,8.58618625 L144.409338,8.56016354 L144.513126,8.48119808 Z M143.488421,8.63890745 L143.656965,8.69140153 C143.695996,8.7963897 143.592209,8.88791784 143.51459,8.91438921 C143.371771,8.95387194 143.216089,9.03238873 143.060408,8.94041192 C142.943758,8.80940105 142.827107,8.67839018 142.775213,8.52090793 C143.008514,8.41591977 143.25512,8.52090793 143.488421,8.63890745 Z M144.04586,7.9567943 C144.214847,7.9567943 144.396254,7.98281701 144.46101,8.14029925 C144.435285,8.27131012 144.22771,8.33726422 144.11106,8.44225239 C143.903484,8.41578101 143.683047,8.50775782 143.579259,8.2977815 C143.617847,8.28477014 143.656878,8.25829877 143.669741,8.21881604 L143.645686,8.18255811 L143.60849,8.15750275 L143.622215,8.16258187 C143.750464,8.1948572 143.885299,8.17188543 144.020135,8.14029925 C144.059166,8.08780517 144.072029,7.99582836 144.04586,7.9567943 Z M142.956712,7.90420972 L142.956712,8.2191742 C142.736274,8.16668012 142.424911,8.1532201 142.308261,7.93068109 C142.360154,7.86472699 142.308261,7.74672747 142.424911,7.7202561 C142.645349,7.68122204 142.80103,7.81223291 142.956712,7.90420972 Z M140.803818,2.23709412 L142.087858,2.68306947 C142.814371,3.15506754 143.682817,3.40452659 144.279374,4.15245509 C144.253649,4.16546644 144.22748,4.15245509 144.214618,4.17847779 C144.214618,4.21796052 144.266511,4.21796052 144.29268,4.23097187 L144.331268,4.20494917 C144.551706,4.57195907 144.40933,5.08388853 144.383162,5.49038116 L144.214618,6.8287559 C144.383162,6.99880083 144.486949,7.15628308 144.590737,7.34023669 L144.642631,7.22223718 C144.694525,6.50033139 144.759281,5.73939155 144.850206,4.99191172 C144.863069,4.96588901 144.9021,4.91294627 144.927825,4.88692356 C145.01875,4.97890037 145.109675,5.10991124 145.1354,5.24137077 L145.083506,5.25438213 C145.070644,6.13332149 145.031613,7.05129491 144.875931,7.87818886 L144.837343,7.90421157 C144.759281,7.89120022 144.733556,7.81223476 144.681662,7.75974068 C144.746418,7.62872981 144.565012,7.70769526 144.565012,7.58924708 C144.383162,7.39273078 144.240786,7.18275445 144.046074,7.01226085 C143.838498,6.6582623 143.436654,6.38233188 143.138153,6.10685012 C142.801065,5.87085108 142.451115,5.5558866 142.048827,5.41186437 C141.154213,4.76892404 140.012992,4.67694723 138.962253,4.41447683 C138.443758,4.46697091 137.847201,4.36243141 137.328263,4.49344228 L137.328263,4.4409482 L137.367294,4.4409482 C137.522976,3.666997 137.756276,2.8930458 137.834339,2.06660052 C138.83274,1.96161236 139.895898,1.948601 140.803818,2.23709412 Z M143.281195,7.45801179 C143.449739,7.51050587 143.604977,7.61549403 143.747795,7.72048219 C143.65687,7.91744716 143.475464,7.82547036 143.319782,7.89097579 C143.164101,7.85194173 143.125513,7.66798811 143.008863,7.57645997 C143.060757,7.49749451 143.177407,7.47147181 143.281195,7.45801179 Z M143.33305,6.65780926 C143.592076,6.69729199 143.670139,6.94675104 143.799651,7.13025599 L143.747758,7.26126686 C143.553488,7.26126686 143.449701,7.06475056 143.397807,6.90726831 L143.33305,6.65780926 Z M142.943802,6.74987928 C142.995696,6.84140742 143.047589,6.92037288 143.047589,7.02536104 C142.995696,7.11733785 142.879045,7.07785512 142.800983,7.1303492 C142.67147,7.0643951 142.593408,6.88089015 142.48962,6.78936201 C142.567682,6.56592566 142.814289,6.73641926 142.943802,6.74987928 Z M142.087687,5.91024606 C142.269537,6.01523422 142.69755,5.81826925 142.671381,6.18572782 C142.502837,6.19873918 142.399049,6.42172685 142.204337,6.31673869 C142.243368,6.14624509 141.880555,6.06772831 142.087687,5.91024606 Z M135.875856,3.20778531 L135.616387,4.9001586 C135.486874,4.9001586 135.409255,5.08366355 135.31833,5.04418082 C135.383086,4.41470051 135.538768,3.74573747 135.655418,3.10279714 C135.746343,3.011269 135.914887,3.06376308 135.875856,3.20778531 Z M137.484036,2.14520529 C137.35408,2.95863921 137.146505,3.74560177 137.016992,4.54602434 L136.563254,4.70350659 C136.654179,3.94256674 136.796998,3.10266144 136.978404,2.32871024 C137.12078,2.21071072 137.30263,2.17167666 137.484036,2.14520529 Z M141.478265,1.4630067 C141.789628,1.81745391 142.256229,1.98794751 142.438079,2.40745149 C142.256229,2.4734056 142.074822,2.30246333 141.893416,2.24996925 C141.218796,1.96147614 140.467001,1.80399389 139.75335,1.65997167 L139.75335,1.55498351 C139.884755,1.52698666 140.024487,1.53816945 140.164909,1.55942578 L140.375104,1.59522717 C140.688308,1.64934723 140.985673,1.68078983 141.180208,1.35801853 C141.296859,1.16150223 141.45254,1.34500718 141.478265,1.4630067 Z M126.058884,4.50653987 C127.22583,5.6869837 128.315157,6.82839347 129.547302,7.8782751 C129.728709,7.86481508 129.586334,8.0487687 129.65109,8.14029684 C129.897696,9.80664742 131.181292,11.0395853 131.9597,12.4824996 C131.972562,12.5874877 131.855469,12.548005 131.816881,12.5744764 C131.752124,12.6529932 131.687368,12.7184986 131.596443,12.7319586 L131.622168,12.6794645 C130.662354,11.3020557 129.702984,9.91118692 128.691276,8.56024949 C128.185644,7.82533235 127.757631,7.02535844 127.148211,6.34293539 C127.446268,7.19585204 127.861418,8.0487687 128.159475,8.92725939 C128.120887,9.04525891 127.991375,9.12422437 127.874281,9.07173028 C127.64098,8.97975347 127.498162,8.69126036 127.40768,8.46827268 L125.82514,4.28355219 L125.70849,4.15254132 C125.851309,4.25708082 126.00699,4.33604628 126.058884,4.50653987 M132.439383,13.1647006 C132.984046,13.8731463 133.502541,14.6210748 133.995754,15.3685547 C133.904829,15.4605315 133.891523,15.6705078 133.723422,15.6440364 C133.126421,14.8700852 132.568896,14.0176172 132.01137,13.1911719 C132.076126,13.1516892 132.088989,13.0202297 132.167051,13.1122065 L132.192776,13.1252178 C132.140882,12.9677356 132.374626,13.0336897 132.439383,13.1647006 M134.579179,15.9458569 C134.604904,16.0508451 134.565873,16.1033392 134.475391,16.1428219 C134.358741,16.0903278 134.151166,16.0903278 134.151166,15.9193856 C134.281122,15.8408688 134.501116,15.8673402 134.579179,15.9458569 M134.306805,16.6541633 C134.190155,16.6671747 134.242049,16.7591515 134.21588,16.8116456 C134.060642,16.877151 133.904961,16.7986342 133.853067,16.6541633 L133.826898,16.5101411 C133.956855,16.5231525 134.176849,16.5626352 134.306805,16.6541633 M133.489812,17.323308 C133.515538,17.4018248 133.437919,17.4413075 133.398887,17.506813 C133.2951,17.4807903 133.113693,17.4677789 133.126556,17.3363194 C133.204618,17.1922972 133.359856,17.3497794 133.489812,17.323308 M134.617941,17.4806585 C134.579353,17.5726354 134.540322,17.6641635 134.423228,17.6776235 C134.255128,17.5986581 134.060415,17.5986581 133.917596,17.4411758 L134.008521,17.3231763 C134.189928,17.4151531 134.423228,17.3891304 134.617941,17.4806585"/><path fill="#154481" fill-rule="nonzero" d="M127.031469,17.4019148 C128.523083,17.4938916 130.10518,17.5724084 131.622076,17.6904079 C131.713001,17.8088561 131.881545,17.7953961 131.985333,17.7693734 C135.032875,18.1628546 137.938042,18.8843118 140.804178,19.6977457 C142.347243,20.1307097 143.812689,20.7341673 145.239104,21.4296017 C145.355754,21.5341412 145.342891,21.6916235 145.381923,21.823083 C144.850122,24.8008883 144.331184,27.6871654 143.760795,30.5729939 C143.527051,31.8454145 143.112344,33.1573179 142.982831,34.3512217 C142.9438,34.3377617 142.956663,34.495244 142.866181,34.4562099 L142.904769,34.495244 C142.360105,37.0400852 141.517385,39.480387 139.79247,41.5137475 C139.662514,41.5267589 139.72727,41.6842411 139.623926,41.7367352 C137.055847,44.7410119 133.567429,46.8134064 129.650998,47.1938763 C127.264769,45.3704922 125.617916,42.7336741 124.515727,40.110316 C123.659701,37.7880137 123.270719,35.2561838 123.568776,32.6848712 C123.880139,29.4970896 124.684271,26.4277561 125.280828,23.3315027 C125.449372,23.1610091 125.332722,22.8855273 125.43651,22.6885623 C125.825492,20.9046609 126.305399,19.1597935 126.694381,17.3758921 C126.850062,17.3364094 127.057194,17.3494764 127.226181,17.3624321 L127.031469,17.4019148 Z"/><path fill="#FFF" fill-rule="nonzero" d="M136.251847,30.5075763 C137.47113,30.6910812 138.625213,31.0320684 139.818328,31.2945388 C140.765279,31.6619974 141.750818,31.9504905 142.697326,32.3309605 L142.723495,32.3834545 L142.697326,32.3834545 C142.464025,32.7769358 142.619263,33.1309344 142.489751,33.5638984 C142.152663,35.2037776 141.698924,36.8041741 141.140955,38.3520765 C139.688371,41.1068941 137.237386,43.5077131 134.488344,44.8981333 C133.813724,45.3180859 133.035761,45.5805563 132.296828,45.8950721 C132.348722,45.6590731 132.374447,45.4100627 132.400172,45.1606037 L132.374447,45.1606037 L132.245379,45.654505 L132.66913,43.8529106 C133.247913,41.4496041 133.868368,39.0631245 134.397419,36.6597032 C134.942082,34.6658254 135.383402,32.5409368 135.875728,30.4941163 C136.018547,30.4155995 136.135197,30.5730817 136.251847,30.5075763 Z M134.242049,27.4113715 C134.267774,27.4508543 134.163987,27.4638656 134.229187,27.5033484 C134.293943,27.3324061 134.449624,27.5293711 134.553412,27.5818651 C134.70865,27.726336 134.851469,27.9228523 135.071907,27.9888064 L135.162832,28.106806 L135.00715,28.6837922 L132.893253,37.7486676 C132.426209,39.8084994 131.842514,41.8153885 131.284988,43.8227263 C131.336882,43.9802086 131.168338,44.0327027 131.181644,44.1637135 L131.116444,44.3997126 C130.805081,44.898182 130.494162,45.4361342 130.066149,45.8560868 C129.741923,45.2131465 129.586242,44.4522066 129.586242,43.7042781 C130.260862,39.7954881 131.155476,35.859778 131.920577,32.0555274 L132.854222,27.673842 C133.048935,27.6083365 133.19131,27.4378429 133.412192,27.4508543 L133.48981,27.5818651 L132.828497,31.3075989 L131.207369,39.5195577 C131.155476,40.0314871 130.935038,40.5169452 130.9479,41.0154146 L130.974069,41.0154146 C132.101983,36.4762469 133.009904,31.9110565 134.21588,27.4113715 L134.242049,27.4113715 Z M127.225779,28.6968945 C128.496956,28.828354 129.806721,29.0643531 131.064592,29.2348467 C130.545653,31.7666766 130.001434,34.3379892 129.495358,36.8698192 C129.313951,37.5127595 129.15827,38.1687112 129.04162,38.8376742 C128.743563,39.979084 128.496956,41.1595278 128.302244,42.3139489 C128.147006,43.1143715 128.029912,43.9798509 127.926124,44.7542507 L127.87423,44.8067448 C125.125188,41.4219982 123.698774,37.2897718 124.152512,32.7766268 C124.217268,31.3731953 124.4896,30.0087979 124.813825,28.6574118 C125.553202,28.4608955 126.395922,28.6838831 127.225779,28.6968945 Z M136.524447,20.1306667 L136.641097,20.6556075 C136.537309,21.0356287 136.329734,21.4555814 135.953615,21.626075 L135.888858,21.7310631 C135.681283,23.0164951 135.564633,24.4333867 135.331332,25.6927959 C136.16119,26.0077604 137.004354,26.2962535 137.730424,26.8602284 C137.704698,27.1096875 137.587605,27.4901574 137.587605,27.7131451 C136.874397,27.463686 136.200221,27.1621816 135.460845,26.9786766 C134.254868,26.7422289 133.035585,26.4932185 131.816746,26.4142531 C131.427764,26.4142531 131.142569,26.558724 130.792175,26.4142531 C130.856932,26.1127486 130.831206,25.7717614 130.922132,25.4698083 C131.816746,25.312326 132.828453,25.2993147 133.762099,25.4303255 C133.943505,25.1943265 133.930643,24.8663507 134.03443,24.5908689 C134.332931,23.5544473 134.566231,22.4525203 134.916182,21.4160986 C134.94235,21.1800996 134.64385,21.2195823 134.708606,20.9701233 C134.514337,20.8391124 134.695744,20.5896534 134.618125,20.4321711 C134.682881,19.9996558 135.162788,19.7501967 135.538908,19.6191859 C135.953615,19.5666918 136.316871,19.8287135 136.524447,20.1306667 Z M138.573406,19.6977035 C140.726334,20.0781734 142.658381,21.0356296 144.655628,21.8360521 C144.499947,22.3084989 144.578009,22.7935083 144.460916,23.265955 C144.25334,24.6563752 144.007177,26.0602554 143.890527,27.4771469 C143.747708,27.568675 143.618195,27.3721587 143.475376,27.3586987 C142.775032,27.1361597 142.087993,26.8602293 141.374342,26.6897357 L141.322448,26.6372416 C139.96079,26.283243 138.612437,25.8632904 137.22461,25.5617859 C137.250779,25.5092918 137.185579,25.4828205 137.146548,25.4567978 C137.393154,25.1548446 137.328398,24.7353406 137.445048,24.3808934 C137.795442,22.8069683 138.13253,21.1931118 138.573406,19.6977035 Z M127.239042,17.9790357 C128.017006,18.0974838 128.873032,18.0580011 129.650996,18.1365179 L133.554564,18.5824933 C133.217476,20.4718315 132.763295,22.2952157 132.322419,24.1710939 C132.2448,24.1580826 132.218631,24.2630707 132.192906,24.2890934 C130.169934,23.9350949 128.146962,23.7776127 126.123546,23.5676363 C126.17544,23.4756595 126.071653,23.4626482 126.084959,23.3841314 C126.395878,21.6262527 126.771997,19.9993848 127.148117,18.2940002 C127.239042,18.2154834 127.212873,18.0840238 127.239042,17.9790357 Z M145.524567,18.9236625 C145.615048,19.0286507 145.705973,19.2646497 145.900686,19.2516383 C145.77073,19.2646497 145.65408,19.3041324 145.511704,19.2646497 C145.407917,19.1731216 145.096554,19.2256156 145.187035,19.002628 C145.252235,18.8321344 145.395054,19.002628 145.524567,18.9236625 Z M146.225041,18.7531641 C146.315523,18.7661755 146.445036,18.7926469 146.471204,18.9106464 C146.445036,18.9236577 146.458342,18.9631405 146.458342,18.9891632 C146.367417,18.9631405 146.380279,19.0941513 146.30266,19.08114 C146.082222,19.1206227 146.108391,18.8846237 145.900816,18.897635 C145.965572,18.7926469 146.12081,18.8186696 146.225041,18.7531641 Z M140.648273,18.6087398 L140.687304,18.713728 C140.713473,18.7792334 140.622548,18.8317275 140.700167,18.8712102 C140.726335,18.8451875 140.778229,18.8712102 140.803954,18.8581989 C140.765366,18.8842216 140.726335,18.9892098 140.687304,18.910693 C140.440697,19.2911629 140.064578,18.8712102 139.753659,18.8451875 C139.779384,18.8317275 139.857446,18.727188 139.831278,18.6352112 C140.129778,18.727188 140.363078,18.477729 140.648273,18.6087398 Z M145.304087,18.5170363 C145.109374,18.6615072 144.863211,18.6745185 144.642773,18.5435077 C144.603742,18.5170363 144.629911,18.4775536 144.616605,18.4385195 C144.798455,18.2940486 145.265056,18.1365664 145.304087,18.5170363 Z M146.289577,18.0318039 L146.237683,18.2153089 C146.133895,18.4122738 145.887732,18.3072857 145.732051,18.3072857 C145.667294,18.2547916 145.550644,18.3072857 145.524475,18.2022975 C145.576369,18.0183439 145.80967,18.1628148 145.900595,18.0318039 C145.939626,18.0318039 146.004382,18.0973094 146.043414,18.0318039 C146.043414,18.0053326 146.004382,17.9793098 145.99152,17.9662985 C146.133895,17.7168394 146.15962,18.0973094 146.289577,18.0318039 Z M139.974277,17.7428996 C140.051896,17.8478877 140.207577,17.9398646 140.22044,18.1103582 L140.168546,18.2283577 C139.844321,18.202335 139.468201,18.2153463 139.299657,17.9003818 C139.481507,17.6643828 139.779564,17.9793473 139.974277,17.7428996 Z M144.513121,17.8218648 L144.694527,18.0448525 C144.59074,18.0053698 144.513121,18.0578639 144.422196,18.1498407 C144.292683,18.0843352 144.059382,18.1758634 144.033214,17.9923584 C144.085108,17.7693707 144.344577,17.9003816 144.513121,17.8218648 Z M137.341259,17.5593507 C137.484078,17.6378675 137.613591,17.6513275 137.75641,17.6643388 C137.98971,17.585822 137.87306,17.9398206 138.080635,17.9793033 C138.106361,18.1628083 137.87306,18.0712801 137.808304,18.1233255 C137.523109,18.005326 137.198884,17.9398206 137.056065,17.6378675 C137.095096,17.5463393 137.250778,17.4543625 137.341259,17.5593507 Z M138.430635,17.4283398 C138.495392,17.5463393 138.638211,17.6378675 138.741998,17.6643388 C138.819617,17.7298443 138.936711,17.7298443 139.01433,17.7953497 C138.923405,17.9007865 138.741998,17.8478438 138.612042,17.9007865 C138.443498,17.8088097 138.262091,17.7298443 138.210198,17.5203166 C138.249229,17.5203166 138.326848,17.3493743 138.430635,17.4283398 Z M135.097585,17.4281174 C135.383223,17.4545887 135.642248,17.5725883 135.940749,17.5200942 C136.070705,17.5461169 135.940749,17.6641164 136.031674,17.7166105 C135.79793,17.8740927 135.538904,17.8215986 135.279435,17.7560932 C135.318466,17.6641164 135.149479,17.6905878 135.227541,17.598611 C135.162785,17.5595769 135.084723,17.5200942 135.097585,17.4281174 Z M145.317039,17.4283398 C145.40752,17.4673739 145.550339,17.533328 145.537477,17.6643388 C145.35607,17.8613038 145.070432,17.6903615 144.837132,17.6903615 L144.759513,17.5593507 C144.940919,17.4413512 145.135632,17.5203166 145.317039,17.4283398 Z M149.856015,22.9511217 L149.829846,23.0955926 C149.700333,23.1480867 149.622714,23.0166271 149.544652,22.925099 C149.518927,22.8591449 149.570821,22.8461335 149.622714,22.8331222 C149.713196,22.8066508 149.843152,22.8331222 149.856015,22.9511217 M150.245038,23.8300592 C150.180282,23.9875414 150.180282,24.1710464 149.985569,24.1975178 C149.868919,24.1975178 149.739406,24.1185523 149.661344,23.9875414 C149.661344,23.8430705 149.895088,23.8300592 149.804163,23.6595656 C149.895088,23.8170478 150.141251,23.6465542 150.245038,23.8300592 M150.556264,24.8401497 C150.38772,24.9976319 150.581989,25.2076083 150.361551,25.2991364 C150.180144,25.247091 149.972569,25.233631 149.817331,25.1286428 C149.869225,24.853161 150.193007,24.8796324 150.348688,24.7221502 C150.439613,24.7091388 150.517232,24.7746443 150.556264,24.8401497 M150.984238,25.7060758 C151.075163,25.9685462 150.828556,26.0340516 150.841419,26.2700507 C150.595256,26.244028 150.348649,26.2305679 150.141074,26.0865457 C150.180105,25.8240753 150.517193,25.9290635 150.660012,25.7715812 C150.750937,25.7190872 150.88045,25.5616049 150.984238,25.7060758 M150.400634,26.7948061 C150.361603,27.0177938 150.128303,26.9783111 150.011652,27.122782 C149.959759,27.0832992 149.855971,27.0442652 149.855971,26.9522884 C149.985484,26.8603116 149.830246,26.5718184 149.985484,26.4933017 C150.167334,26.5457957 150.244953,26.742312 150.400634,26.7948061 M151.204628,27.1752395 C151.28269,27.3722045 151.10084,27.4771926 150.945159,27.5162267 C150.763752,27.4637326 150.556177,27.4507213 150.452389,27.2672163 C150.68569,27.1487681 151.023221,26.6502987 151.204628,27.1752395 M150.945386,27.8705817 C150.99728,27.9100645 150.971111,27.9885812 150.945386,28.0410753 C150.802567,28.1855462 150.634023,28.1065808 150.478342,28.1985576 C150.32266,28.1985576 150.024603,28.1855462 150.102222,27.9490985 C150.102222,27.8835931 150.141254,27.8441104 150.20601,27.8441104 C150.400723,27.9885812 150.517373,27.6475941 150.712086,27.831099 L150.945386,27.8705817 Z M151.515863,28.4346057 C151.515863,28.5395938 151.463969,28.6575934 151.373487,28.6970761 C151.101156,28.7890529 150.89358,28.6840647 150.646974,28.6315706 L150.582217,28.5395938 C150.854549,28.5526052 151.049262,28.2771234 151.308287,28.2246293 C151.38635,28.3035948 151.476831,28.3296175 151.515863,28.4346057 M150.193145,28.5527331 C150.245038,28.6442612 150.21887,28.7757208 150.335963,28.8152035 C150.193145,28.8807089 150.050326,28.8152035 149.933675,28.7496981 C149.881782,28.6967553 149.895088,28.6052272 149.90795,28.5397217 C149.998875,28.4212736 150.089357,28.5787558 150.193145,28.5527331 M150.322789,29.7333602 L150.582258,29.7858543 C150.595121,29.9038538 150.595121,30.1138302 150.413714,30.1008188 C150.154245,30.1138302 149.83002,30.0878075 149.713369,29.8383484 C149.674338,29.7333602 149.752401,29.6283721 149.869051,29.6283721 C150.024732,29.6548435 150.206139,29.5628666 150.322789,29.7333602 Z M151.502773,29.3659438 C151.645592,29.3789552 151.645592,29.5368861 151.697486,29.6284142 C151.762242,29.8123679 151.56753,29.9169074 151.412292,29.9169074 C151.204716,29.9169074 151.049035,29.8514019 150.84146,29.7989078 C151.061897,29.6939197 151.308504,29.5498975 151.502773,29.3659438 Z M150.880624,29.1429971 L151.217712,29.1429971 C151.049168,29.4184788 150.724943,29.3920075 150.439305,29.3659848 C150.361686,29.2609966 150.309792,29.1954912 150.284067,29.0774916 C150.426442,28.7889985 150.673049,29.1429971 150.880624,29.1429971 Z M149.246465,33.6558309 C149.298358,33.708325 149.389283,33.8133132 149.285496,33.8788186 L149.311221,33.89183 C149.116952,34.0232895 148.870345,33.8658073 148.66277,33.7998531 C148.610876,33.7213364 148.468501,33.708325 148.494226,33.5768655 C148.727526,33.3538778 148.96127,33.7473591 149.246465,33.6558309 Z M150.504242,33.3408659 L150.750848,33.4983482 C150.621336,33.6163477 150.478517,33.7868413 150.283804,33.8133127 C150.102397,33.7083245 149.726278,33.7343472 149.778172,33.4063714 C149.985747,33.3148432 150.283804,33.3148432 150.504242,33.3408659 Z M152.060614,33.0786683 C152.138233,33.0786683 152.229158,33.0786683 152.281052,33.1441737 C152.332945,33.3411387 152.24202,33.4721496 152.164401,33.6426432 C151.917795,33.6556545 151.658769,33.7081486 151.425025,33.5771377 C151.3993,33.2226905 151.840176,33.2491619 152.060614,33.0786683 Z M151.282779,32.7243525 C151.373261,32.7898579 151.477048,32.8688233 151.593699,32.8818347 C151.373261,32.9738115 151.321367,33.2623046 151.049035,33.2358332 C150.919522,33.0653396 150.672916,33.0653396 150.569128,32.8688233 C150.647191,32.842352 150.763841,32.9213174 150.828597,32.8033179 C150.984279,32.8293406 151.165685,32.8553633 151.282779,32.7243525 Z M149.013154,32.6716834 C149.181698,32.7111661 149.311211,32.9341538 149.518786,32.8031429 C149.661605,32.7111661 149.765393,32.9081311 149.86918,32.9606252 L149.479755,33.1966242 C149.27218,33.1441301 148.999848,33.0391419 148.935091,32.8031429 C148.96126,32.7636602 148.922229,32.658672 149.013154,32.6716834 Z M150.011472,32.173255 C150.245216,32.4487368 150.659923,31.9502673 150.815605,32.37022 C150.776573,32.567185 150.53041,32.5537249 150.439485,32.7112072 C150.283804,32.6717245 150.154291,32.5801963 149.985747,32.567185 L149.791034,32.37022 C149.855791,32.3047146 149.881959,32.173255 150.011472,32.173255 Z M151.995948,31.9896596 L152.073567,32.1471419 C152.086429,32.2916127 152.073567,32.488129 151.930748,32.5670945 C151.827404,32.5540832 151.749341,32.449095 151.619828,32.4621063 L151.425116,32.2391187 C151.580797,32.1471419 151.788372,31.9766483 151.995948,31.9896596 Z M149.233242,31.5963137 C149.350336,31.6748305 149.544605,31.7273246 149.700287,31.6618191 C149.700287,31.7407846 149.739318,31.80629 149.804074,31.8587841 C149.700287,31.9373009 149.596499,32.18676 149.427955,31.989795 C149.350336,31.989795 149.28558,32.1208059 149.207517,32.0028063 C149.155623,31.9373009 149.22038,31.8717955 149.129898,31.8193014 C149.129898,31.7273246 149.129898,31.6353478 149.233242,31.5963137 Z M151.502953,31.49124 C151.49009,31.6092395 151.68436,31.8062045 151.451059,31.8456872 C151.282515,31.8847213 151.243484,32.0422035 151.035909,32.0027208 C150.945427,31.8192158 150.711683,31.7797331 150.556445,31.740699 C150.646927,31.4122745 150.906396,31.7142277 151.07494,31.5307227 C151.19159,31.4517573 151.412028,31.2157582 151.502953,31.49124 Z M149.979263,30.9924415 L150.072956,31.0598314 C150.1045,31.0814571 150.136151,31.100355 150.167287,31.1108538 C150.348694,31.1368765 150.543407,30.9138889 150.685782,31.1238652 C150.595301,31.2943588 150.426756,31.3468529 150.283938,31.5043351 C150.0635,31.3993469 149.726412,31.3598642 149.739274,31.032337 C149.801547,30.8904684 149.887132,30.9282103 149.979263,30.9924415 Z M151.606787,30.5994192 C151.762468,30.5859592 151.879118,30.6909473 151.956737,30.7829241 C151.982906,30.9664291 151.814362,31.0319345 151.645818,31.0453946 C151.528724,30.9664291 151.412074,31.0584059 151.308286,30.9534177 C151.42538,30.8354182 151.451105,30.6514646 151.606787,30.5994192 Z M151.373445,30.3630174 C151.178733,30.4940282 151.074945,30.9534636 150.750719,30.6779818 C150.6731,30.586005 150.49125,30.6779818 150.400769,30.5599823 C150.543588,30.5204996 150.711688,30.4025001 150.880676,30.3369946 C150.98402,30.2975119 151.217764,30.3369946 151.373445,30.3630174 Z M149.505791,36.3188504 C149.53196,36.3843559 149.53196,36.4633213 149.441035,36.4763327 C149.23346,36.5023554 149.090641,36.3583332 148.896372,36.3188504 C148.831615,36.2663564 148.883509,36.1483568 148.961128,36.1483568 C149.23346,36.05638 149.285354,36.3058391 149.505791,36.3188504 Z M148.066474,36.0169017 C148.235018,36.0828558 148.455456,36.0563844 148.572106,36.2138667 C148.468318,36.423843 148.260743,36.2533494 148.092199,36.2533494 C148.040305,36.1878439 147.923655,36.0828558 148.066474,36.0169017 Z M150.03751,35.7544725 L150.141298,35.833438 C150.270811,35.833438 150.504555,35.7284498 150.504555,35.9254148 L150.491249,35.9909202 C150.257948,35.9909202 150.03751,36.266402 149.817073,36.0564257 C149.765179,35.9779089 149.648529,35.8729207 149.752316,35.7809439 C149.843241,35.7024271 149.946585,35.7414612 150.03751,35.7544725 Z M148.48136,35.4791231 C148.558979,35.6890994 149.090779,35.5055944 148.818448,35.8465816 C148.662766,35.7940875 148.429466,35.8205589 148.377572,35.5971226 C148.377572,35.5446285 148.416603,35.4921344 148.48136,35.4791231 Z M148.844261,34.9152445 C149.012805,35.0332441 149.155624,34.9677386 149.363199,34.98075 C149.648394,34.9282559 149.466987,35.2562317 149.635531,35.3612199 C149.454124,35.3482085 149.272274,35.6891957 149.117036,35.4007026 C149.064699,35.1642549 148.649992,35.2037376 148.844261,34.9152445 Z M150.141297,34.9019595 C150.257948,34.8889482 150.335567,34.980925 150.413629,35.0594418 C150.595036,35.1384072 150.932567,34.9414422 150.958292,35.2299354 C151.023049,35.2564067 150.958292,35.3479349 150.997324,35.3874176 C150.867367,35.4399117 150.724992,35.5709226 150.582173,35.452923 L150.556448,35.4793944 C150.322704,35.452923 150.050372,35.400429 149.972753,35.1514186 C149.959447,35.0859131 150.03751,35.0989245 150.063235,35.0724531 C150.03751,35.0334191 150.03751,34.8889482 150.141297,34.9019595 Z M152.112461,34.5610226 C151.943917,34.6660108 151.995811,34.9154699 151.827267,35.006998 C151.606829,35.0464807 151.438285,34.9154699 151.269741,34.810033 C151.476872,34.6265281 151.801098,34.3115636 152.112461,34.5610226 Z M149.985569,34.2725246 C150.076494,34.3250187 150.141251,34.4165469 150.193145,34.5085237 C149.933675,34.4295582 149.7913,34.8234882 149.544694,34.6529946 C149.414737,34.521535 149.194743,34.4690409 149.168574,34.285536 C149.402318,33.9315374 149.687512,34.2985473 149.985569,34.2725246 Z M148.299684,34.2853138 C148.455366,34.3378078 148.584878,34.4558074 148.779591,34.4297847 C148.883379,34.4822787 148.844348,34.5872669 148.792454,34.6527723 C148.584878,34.639761 148.325853,34.639761 148.222065,34.4167733 C148.195897,34.3512679 148.234928,34.2853138 148.299684,34.2853138 Z M151.178596,33.9707069 C151.243796,34.0626837 151.321414,34.023201 151.425202,34.0362124 C151.438065,34.0887064 151.489959,34.1281892 151.541852,34.1281892 C151.295689,34.206706 151.269521,34.5086591 150.97102,34.456165 L150.91957,34.5086591 L150.530145,34.1936946 C150.685826,33.9967296 150.958158,33.9442355 151.178596,33.9707069 Z M147.949604,35.8203794 C147.962466,36.0693898 147.768197,35.793908 147.651547,35.8598621 C147.573484,35.8203794 147.612516,35.7153912 147.677272,35.6759085 C147.78106,35.6759085 147.923435,35.6893685 147.949604,35.8203794 M147.79388,36.686178 C147.79388,36.7781548 147.638199,36.738672 147.56058,36.7781548 C147.482517,36.7781548 147.417761,36.7646948 147.379173,36.6991893 C147.379173,36.6336839 147.430623,36.5677298 147.482517,36.5417071 C147.586305,36.5811898 147.754849,36.5677298 147.79388,36.686178 M149.15571,37.0141549 L149.077647,37.0536376 C150.18028,38.5360346 151.101063,40.0049715 152.138496,41.5138399 C151.879026,41.4873685 151.541938,41.5793453 151.308638,41.4348744 C150.284068,40.0049715 149.324254,38.6800568 148.273958,37.2631653 C148.286821,37.1586258 148.183033,37.0011435 148.351577,36.9746721 C148.559152,37.0011435 148.740559,36.883144 148.960997,36.8961554 C149.025753,36.9356381 149.051922,37.0536376 149.15571,37.0141549"/><path fill="#154481" fill-rule="nonzero" d="M138.184295,8.4683659 C138.314251,8.61283679 138.573276,8.4683659 138.664201,8.71737628 C138.923671,9.03234077 138.819883,9.51779886 139.118383,9.79328062 C139.118383,9.85878605 139.169834,9.92429149 139.118383,9.97678557 C139.027458,9.92429149 138.936533,9.79328062 138.832746,9.72777518 C138.728958,9.47831613 138.482351,9.43928207 138.314251,9.22930574 C138.339976,8.92735261 138.158569,8.71737628 138.067644,8.4683659 L138.158569,8.50784863 L138.184295,8.4683659 Z"/><path fill="#FFF" fill-rule="nonzero" d="M198.907421,6.88589966 L198.907421,4.35048039 L210.303215,4.33836637 L210.303215,6.892181 L206.766895,7.24214154 L198.831132,18.5413804 C198.831132,18.5413804 206.464403,30.1591731 207.432201,31.6101633 C208.525076,33.2482479 209.306588,33.8548461 210.556475,33.8548461 C210.973843,33.8548461 211.315367,33.8624735 211.315367,33.8624735 L211.130855,36.4194288 L196.528732,36.4194288 L196.709252,33.8624735 L200.039327,33.585197 L194.292862,24.6939559 C194.292862,24.6939559 189.9737,30.9990784 189.120335,32.2356056 C188.342371,33.3617607 188.455473,33.6951206 189.629959,33.7009532 L192.928099,33.8579868 L192.758668,36.4194288 L180.488219,36.4275048 L180.743696,33.8741388 L184.321708,33.5905811 L192.60964,21.9176023 C192.60964,21.9176023 185.532564,10.8269938 184.229009,8.77389192 C183.341048,7.37584442 182.296075,6.88320765 180.439873,6.87961831 L180.449631,4.34464772 L195.337392,4.34464772 L195.337392,6.89621901 L191.871594,7.24617955 L197.096459,15.9243037 L201.982019,8.55942892 C202.592326,7.6208168 202.474345,7.18426345 201.55578,7.09363265 L198.907421,6.88589966 Z M237.681331,4.33846081 L248.772416,4.34205015 C257.839642,4.33890948 263.573687,6.24350243 263.549293,12.3610819 C263.532882,16.5292017 259.24521,19.4172735 255.466276,20.3119162 C255.365149,20.3356956 255.332327,20.3846004 255.353617,20.3895357 C258.841592,21.1895096 261.328947,23.4647018 262.110459,27.1038428 C262.404081,28.4704836 262.43912,28.759874 262.756249,30.9574467 C263.107087,33.3842885 263.540422,33.8971153 265.334529,33.8885906 L265.139373,36.4222152 C265.139373,36.4222152 264.561444,36.4854773 264.118351,36.4877207 C263.783924,36.4895153 263.443288,36.51823 262.969147,36.51823 C258.061854,36.51823 256.546288,35.1928666 255.679173,30.8080405 C255.334102,29.0658651 255.217008,27.8369652 254.880807,26.4003324 C254.126351,23.174414 252.267931,21.9064801 248.529358,21.9271187 C248.405611,21.9275674 248.343072,21.9055827 248.343072,21.9055827 L248.343526,30.9773633 C248.357614,33.7726468 248.719992,33.8484739 252.248859,33.8603246 L252.560665,33.8607733 L252.359743,36.4298426 L237.915075,36.4208692 L238.099587,33.8607733 L241.292609,33.5785615 L241.289061,11.5297013 C241.274424,8.4792119 240.113244,6.90304346 237.833464,6.87926409 C237.78645,6.87746942 237.738991,6.87612342 237.691089,6.87567475 L237.681331,4.33846081 Z M211.764849,4.33276511 L222.918029,4.33590579 C231.873484,4.33276511 237.706438,6.36433093 237.708656,13.1392081 C237.711317,20.8002033 230.50872,24.490941 222.783637,22.7312676 C222.634166,22.6971689 222.57961,22.6343555 222.57961,22.6343555 L222.580498,30.2953507 C222.577393,33.5324857 222.866135,33.8739216 227.169331,33.8546289 L228.054187,33.8644996 L227.854152,36.4236982 L212.377374,36.4299795 L212.552571,33.8573209 L215.49943,33.5881205 L215.508745,11.4746522 C215.515398,8.39006407 214.363089,6.88478507 211.774607,6.88523374 L211.764849,4.33276511 Z M222.632059,6.87990581 L222.566748,6.87984973 L222.566748,20.0406095 C222.566748,20.0406095 222.65102,20.0652862 222.805371,20.0791949 C227.410615,20.4897255 230.649765,18.2441453 230.649765,13.5421114 C230.649765,8.76963666 227.431905,6.89600175 222.698035,6.8802984 C222.653681,6.87984973 222.610215,6.87984973 222.566748,6.87984973 Z M248.591897,6.88105876 L248.358596,6.88195609 L248.358596,19.1669171 C248.358596,19.1669171 248.400732,19.1642251 248.478795,19.1637765 C252.957187,19.1467271 256.200329,17.4471751 256.199886,12.7249511 C256.198999,8.71655694 253.38387,6.88464809 248.591897,6.88105876 Z M169.696832,21.6512318 C171.423521,21.6642431 172.142938,22.0119604 172.883201,22.9922985 C173.364439,23.6303035 173.643423,24.0834576 173.769388,24.3019586 C173.825274,24.3993194 173.850999,24.4500188 173.850999,24.4500188 L175.654863,24.4500188 L175.654863,15.5139109 L173.498387,15.5175003 C173.499274,15.579865 173.492621,15.6547925 173.477541,15.7386933 C173.046866,17.7563504 172.327893,18.361154 169.314946,18.358462 L165.758667,18.3346827 L165.759998,7.18350403 L173.082793,7.19292605 C173.961439,7.20414273 174.266593,7.29881154 174.37038,7.62319805 C174.57219,8.25267836 174.705694,8.68025835 175.195359,9.8961469 C175.64067,11.0012146 176.032313,11.653577 176.365853,12.0578263 L178.736558,12.0403282 L177.830412,4.3438883 L154.463112,4.33940162 L154.472426,6.88469157 C154.511014,6.88469157 154.549158,6.88514024 154.587302,6.8855889 C157.335014,6.89770292 158.690462,7.8919498 158.691793,11.6935084 L158.699333,33.582643 L155.20648,33.8715847 L155.029509,36.419118 L178.991148,36.427194 L179.932777,27.3686 C179.404968,27.2241291 178.875385,27.1747757 178.375519,27.1747757 C177.791824,27.1747757 177.319901,27.4350028 177.125632,27.9258449 C176.897654,28.5010364 176.558792,29.3736944 175.98929,30.7255292 C175.056532,32.9410486 173.806201,33.5346356 170.362137,33.5346356 L166.397804,33.5346356 C165.861568,33.5346356 165.759998,33.2703705 165.759998,32.8082431 L165.759998,21.6530265 L169.696832,21.6512318 Z M294.005736,26.3736365 C295.240543,26.3754312 295.760812,26.7370571 296.046893,27.9946717 C296.91179,31.7957816 298.885529,34.3527369 302.431164,34.3500449 C305.596243,34.3478015 307.68131,32.4450032 307.684859,29.465852 C307.687964,27.0098468 306.388844,25.4529711 301.402601,23.4424926 C296.044232,21.2821593 293.257046,18.0234882 293.237086,13.0769305 C293.213135,7.27476422 297.480848,3.59299984 303.971124,3.57906419 C306.057078,3.57460448 307.852959,4.13005467 309.312639,5.28223246 C309.312639,5.28223246 309.347679,5.25037708 309.416427,5.20147233 C309.786337,4.93855326 310.19306,4.69358088 310.763005,4.5105246 C311.708626,4.20677679 312.279014,4.33823633 312.279014,4.33823633 C312.279014,4.33823633 312.153493,5.45227739 312.467961,8.77510788 C312.73364,11.5819709 313.102219,13.2173634 313.102219,13.2173634 L310.419708,13.2164661 C308.689026,8.4049573 306.713956,6.32179474 303.424243,6.3195514 C300.580284,6.31730806 298.644689,8.02089804 298.644689,10.7842403 C298.644689,13.5045105 300.29642,15.1179184 304.614252,16.7358129 C310.45386,18.9244123 313.394066,22.0139357 313.390521,26.9842728 C313.385639,32.8102185 309.028332,37.0788398 302.62632,37.1335772 C299.632446,37.1591512 297.833016,36.5148649 295.912501,35.2249462 C295.912501,35.2249462 295.876131,35.2491743 295.818028,35.3066037 C295.552349,35.5663821 295.020105,35.8894226 294.45149,36.0697869 C293.202934,36.4655115 292.287474,36.4197474 292.287474,36.4197474 L293.293416,26.3660091 C293.293416,26.3660091 293.614093,26.3731878 294.005736,26.3736365 M61.7540875,33.5984798 L58.4044965,33.8744102 L58.2288559,36.4102781 L73.1946795,36.4102781 L73.3831827,33.8744102 L73.1334714,33.8649882 C69.4436875,33.6998786 68.8324936,33.553613 68.8324936,30.3667287 L68.8302759,7.20472484 L72.8331968,6.88303034 L72.8331968,4.33011305 L57.227793,4.34132974 L57.227793,6.88437634 L57.4398037,6.88123567 C60.1892892,6.876749 61.7629583,8.19986905 61.7500957,11.0372414 L61.7540875,33.5984798 Z M0.00310475861,4.33123913 L11.7404229,4.33796914 C23.0541633,4.33527714 28.6861954,9.87766507 28.6972984,20.3894927 C28.7079287,30.0928217 22.9131185,36.4082635 11.9754975,36.4230696 L0.585468766,36.4253129 L0.769536597,33.8674603 L4.24775331,33.5879405 L4.25307575,11.9383943 C4.25174514,8.37821874 3.22673127,6.90344912 0.262573871,6.89088644 C0.176527704,6.88550243 0.0891509257,6.89357844 3.30367748e-15,6.8899891 L0.00310475861,4.33123913 Z M45.7317599,4.34397478 L53.6719582,31.8840748 C54.0662626,33.1412408 54.9307161,33.7971924 56.1943528,33.8048198 L57.1670293,33.8775039 L56.9785261,36.4079878 L42.6123645,36.4111285 L42.7906664,33.8761579 L47.0220088,33.5984328 L45.2518529,26.7342708 L35.1804595,26.7378602 L33.7620284,30.7938131 C33.0208781,33.1452788 34.1975816,33.8770552 37.7170473,33.8788499 L38.0785299,33.8662872 L37.9024457,36.4079878 L26.2312146,36.4079878 L26.4148389,33.8792986 L29.3883106,33.5629881 L40.2704895,4.34397478 L45.7317599,4.34397478 Z M11.321724,7.09682475 L11.321724,31.3329383 C11.3310383,32.9732662 11.3620859,33.6018492 12.762332,33.6027492 C16.8348882,33.6058872 21.3345705,30.8744003 21.3514858,20.7120845 C21.3700535,9.24190341 17.1143165,7.09906809 11.321724,7.09682475 Z M41.0790573,10.523919 L36.291076,23.6528234 L44.4517122,23.6523747 L41.0790573,10.523919 Z M123.261355,4.34039243 L123.261355,6.88074703 L120.097163,7.2248749 L111.790159,22.744279 L111.790159,31.1698034 C111.790159,33.5576111 112.620017,33.8250168 116.799909,33.8667429 L117.019903,33.8689862 L116.865553,36.4286335 L100.640084,36.4169682 L100.860078,33.8653969 L104.878523,33.5782498 L104.866548,22.6491615 C104.866548,22.6491615 102.930176,19.1449572 100.993694,15.6405286 L100.631075,14.9843011 C98.8227005,11.7117049 97.1205907,8.631391 97.1201748,8.63054975 C96.4375715,7.46580928 95.4640079,6.8771577 93.7732451,6.8771577 L93.5288562,6.87626036 L93.5288562,4.34622511 L108.470285,4.34801977 L108.470285,6.87670903 L104.264668,7.19974953 L110.442694,18.9530398 L115.428493,9.38610559 C116.426007,7.24506493 115.992228,6.86773568 113.201937,6.89375839 L112.443046,6.8811957 L112.443046,4.34039243 L123.261355,4.34039243 Z M91.0295648,4.33949235 L91.0295648,6.88657697 L85.6170835,7.20199012 L85.6113175,32.7145623 C85.6113175,33.0272835 85.676961,33.2345678 85.7865146,33.3485293 C85.8854234,33.4512742 86.0539674,33.5262016 86.3023481,33.5262016 L89.2283613,33.5351749 C92.7833099,33.5351749 93.5657091,32.9815194 94.9420042,29.728681 C95.5137233,28.3777436 95.719968,27.7321113 95.9395188,27.1533304 C96.1892301,26.4937894 96.6487344,26.1779275 97.3153704,26.1779275 C97.8152365,26.1779275 98.3452632,26.227281 98.8730721,26.3713032 L97.8476147,36.4286308 L74.4532586,36.4138247 L74.6399877,33.8725728 L78.5408951,33.582285 L78.5408951,11.1246889 C78.5284761,7.20692547 76.1999071,6.94400639 74.6218027,6.89869099 L74.2980207,6.8874743 L74.2980207,4.34083836 L91.0295648,4.33949235 Z M280.833133,21.6466554 C282.559822,21.6596667 283.279239,22.0199466 284.019502,23.0002848 C284.50074,23.6382898 284.779281,24.0914438 284.905245,24.3099448 C284.961575,24.4073057 284.9873,24.4580051 284.9873,24.4580051 L286.791165,24.4580051 L286.791165,15.5218972 L284.634688,15.5254866 C284.635575,15.5878513 284.628922,15.6627788 284.613398,15.7466796 C284.182724,17.7643367 283.464194,18.3691403 280.451247,18.3664483 L276.894968,18.3426689 L276.896299,7.1914903 L284.357477,7.20091231 C285.236124,7.212129 285.430393,7.39114727 285.534181,7.71508511 C285.736434,8.34456542 285.841995,8.68824462 286.33166,9.90413317 C286.776971,11.0092009 287.168614,11.6490005 287.502154,12.0532498 L289.872859,12.0483145 L288.96627,4.33931188 L265.599413,4.34738789 L265.608727,6.88011515 C265.647315,6.88011515 265.685459,6.88056381 265.72316,6.88101248 C268.470871,6.86486046 269.826764,7.89948739 269.827651,11.7014946 L269.835634,33.5906292 L266.592049,33.879571 L266.402658,36.4271043 L290.127006,36.4226176 L291.069078,27.3765863 C290.541269,27.2321154 290.011686,27.182762 289.511377,27.182762 C288.928126,27.182762 288.456202,27.442989 288.26149,27.9338311 C288.033955,28.5090227 287.694649,29.3816807 287.125591,30.7335155 C286.192833,32.9490349 284.942059,33.5426218 281.498438,33.5426218 L277.533661,33.5426218 C276.997869,33.5426218 276.896299,33.2783567 276.896299,32.8162294 L276.896299,21.6610127 L280.833133,21.6466554 Z M316.615653,26.3604456 C317.85046,26.3622403 318.370729,26.7238662 318.65681,27.9814808 C319.521707,31.7825907 321.495003,34.339546 325.041081,34.336854 C328.206161,34.3346107 330.290784,32.4318124 330.294776,29.4526611 C330.297437,26.9966559 328.998761,25.4397802 324.012519,23.4293018 C318.654149,21.2689684 315.866963,18.0102973 315.847004,13.0637397 C315.823053,7.26157335 320.090765,3.6358924 326.581041,3.62195376 C328.666996,3.61749704 330.462877,4.11686381 331.922113,5.2690416 C331.922113,5.2690416 331.957596,5.23718621 332.025901,5.18828147 C332.396254,4.9253624 332.802978,4.68039002 333.372923,4.49733373 C334.318543,4.19358593 334.888932,4.32504547 334.888932,4.32504547 C334.888932,4.32504547 334.763411,5.43908653 335.077879,8.76191701 C335.343557,11.56878 335.712136,13.2041726 335.712136,13.2041726 L333.029625,13.2032752 C331.298944,8.39176644 329.323874,6.3646873 326.03416,6.36244396 C323.190201,6.36020062 321.254163,8.00770718 321.254163,10.7714981 C321.254163,13.4913197 322.906338,15.1047275 327.223726,16.722622 C333.063777,18.9112214 336.003984,22.0007449 335.999996,26.9710819 C335.995557,32.7970276 331.63825,37.0656489 325.236237,37.1203863 C322.241919,37.1459603 320.442934,36.501674 318.522419,35.2117554 C318.522419,35.2117554 318.486049,35.2359834 318.427945,35.2934128 C318.162267,35.5531912 317.630022,35.8762317 317.061408,36.056596 C315.812408,36.4523206 314.897391,36.4065565 314.897391,36.4065565 L315.903333,26.3528183 C315.903333,26.3528183 316.22401,26.359997 316.615653,26.3604456"/></g></svg>