<svg xmlns="http://www.w3.org/2000/svg" width="80" height="80" viewBox="0 0 80 80"><path fill="#FFF" fill-rule="evenodd" d="M40,0 C62.09139,0 80,17.90861 80,40 C80,62.09139 62.09139,80 40,80 C17.90861,80 0,62.09139 0,40 C0,17.90861 17.90861,0 40,0 Z M43.2433704,4 L43.2211348,11.078429 L43.2063111,18.1494461 L8,18.1494461 L8,61.9541744 L43.2063111,61.9541744 L43.2069968,71.9718257 C43.2070654,72.0532225 43.2071408,72.1329925 43.2072238,72.2111671 L43.2078176,72.661323 C43.2128004,75.7538551 43.2342651,76.0131422 43.3267283,75.9441227 L43.3400964,75.9326134 C43.4212549,75.8442017 49.7583909,67.7429211 57.4296608,57.9220641 C65.8569399,47.1376513 71.3639482,40.0295744 71.3417797,39.9628667 C71.319477,39.9035709 64.9897529,31.7948784 57.2740119,21.9295496 L43.2433704,4 Z M13.4773608,47.1302393 L13.4995964,51.303177 C13.521832,54.3346718 13.5514794,55.5428225 13.6181861,55.7355336 C13.8701891,56.4841424 14.4260783,56.8695647 15.256206,56.8695647 C16.1456286,56.8769767 16.6273992,56.5879099 16.9090497,55.891185 C16.9212263,55.8610077 16.9325332,55.8329103 16.9430405,55.8052369 L16.9630099,55.7499651 C17.0798375,55.4065583 17.0821694,54.9597477 17.1017579,51.303177 L17.1239935,47.1302393 L18.376597,47.1302393 L18.3760741,51.8153855 C18.3719042,54.159416 18.3429585,55.4225206 18.2950666,55.6688259 C18.0504753,56.802857 17.2425832,57.6404093 16.1678642,57.8701803 C15.7231529,57.9665359 14.7892592,57.9665359 14.3149004,57.8701803 C13.5811268,57.7293529 12.8992361,57.2105152 12.5582908,56.5434381 C12.2099336,55.8615371 12.2025218,55.7725935 12.1728744,51.3402369 L12.1432269,47.1302393 L13.4773608,47.1302393 Z M21.341339,47.1302393 L21.341339,52.2667328 L23.1720671,49.702192 L25.0102072,47.1302393 L25.8690215,47.1307197 C26.3244217,47.1343056 26.451813,47.1586518 26.4110478,47.2265949 C26.3814003,47.2710667 25.6624504,48.2790943 24.8100871,49.4501851 L23.2684212,51.5848318 L24.9731479,54.6163265 C25.4961284,55.5460838 25.967973,56.3898384 26.2819472,56.9562465 L26.4065309,57.1814546 C26.5779746,57.4921225 26.6778745,57.6768762 26.6778745,57.6848811 C26.6778745,57.707117 26.3517529,57.7293529 25.9589246,57.7293529 L25.2325628,57.721941 L23.8761934,55.2982276 C23.1350079,53.9640734 22.4975883,52.8300424 22.4605291,52.7781586 C22.4160579,52.7040389 22.2529971,52.8745142 21.8675807,53.4007639 L21.341339,54.1271367 L21.341339,57.7293529 L20.0072051,57.7293529 L20.0072051,47.1302393 L21.341339,47.1302393 Z M37.5881251,34.4557748 C38.0254245,34.4557748 38.5590781,34.4928346 38.7740218,34.5373064 C40.0785083,34.8115492 40.8493412,35.6639255 41.1828747,37.1982028 C41.2940525,37.7244524 41.3162881,38.1765825 41.3162881,39.9406308 L41.316113,40.1955719 C41.3138422,41.7500773 41.2884936,42.1831215 41.1828747,42.6830588 C40.8567531,44.2099241 40.0710965,45.0697123 38.7740218,45.3439551 C38.3218987,45.4403107 36.9507055,45.4403107 36.4763468,45.3439551 C35.5943361,45.1734799 34.8976217,44.6472302 34.5047934,43.8615616 C34.0378465,42.9276537 33.9785517,42.4903476 33.9785517,39.9406308 L33.9788134,39.6658894 C33.9835031,37.3578397 34.0551408,36.9190186 34.5047934,36.0196999 C35.0532707,34.9227287 35.9723407,34.4557748 37.5881251,34.4557748 Z M12.1506388,34.6707218 L14.7670236,34.6929577 L17.3759965,34.7151936 L17.7836486,34.9079048 C18.376597,35.1821476 18.6360119,35.4415664 18.9102505,35.997464 C19.1326062,36.4421821 19.1548417,36.5681855 19.1770773,37.2797344 C19.2141366,38.1988184 19.0955469,38.7028322 18.7471897,39.1846101 C18.5248341,39.4959127 17.865179,39.9332188 17.5983522,39.9480427 C17.5168218,39.9554547 17.5835285,39.9999265 17.7540011,40.0518103 C18.8583675,40.4001727 19.0362521,40.7411233 19.1251943,42.6459989 C19.2215484,44.5360506 19.243784,44.7213498 19.4661396,44.9807687 L19.651436,45.2031277 L18.2580073,45.1883038 L16.8571667,45.1660679 L16.7682244,44.7584097 C16.7237533,44.5360506 16.6792822,43.9208573 16.6792822,43.3871957 C16.6718703,42.2828125 16.5681043,41.5564397 16.382808,41.2377251 C16.2197472,40.9486583 15.819507,40.8152429 15.1894993,40.8448908 L14.7077288,40.8671267 L14.6854932,43.0388332 L14.6706695,45.2031277 L12.1506388,45.2031277 L12.1506388,34.6707218 Z M26.3814003,34.6781338 L26.3814003,36.679365 L22.7495914,36.679365 L22.7495914,38.7547159 L26.1590447,38.7547159 L26.1590447,40.8300669 L22.7495914,40.8300669 L22.7495914,43.2018965 L26.5296374,43.2018965 L26.5296374,45.2031277 L20.2295607,45.2031277 L20.2295607,34.6781338 L26.3814003,34.6781338 Z M33.348544,34.6781338 L33.348544,36.679365 L29.7167351,36.679365 L29.7167351,38.7547159 L33.1261884,38.7547159 L33.1261884,40.8300669 L29.7167351,40.8300669 L29.7167351,45.2031277 L27.1967044,45.2031277 L27.1967044,34.6781338 L33.348544,34.6781338 Z M42.24277,34.6707218 L44.8591548,34.6929577 L47.4681277,34.7151936 L47.8906035,34.9227287 C48.6466127,35.2933271 49.0690884,35.9233443 49.2099137,36.8869001 C49.3507389,37.9023397 49.091324,38.9474271 48.5650823,39.429205 C48.3279029,39.651564 47.8016612,39.9406308 47.6015411,39.9480427 C47.5274226,39.9554547 47.6015411,39.9999265 47.7720138,40.0518103 C48.4020215,40.2519334 48.7059075,40.4817044 48.9430869,40.9634823 C49.0839121,41.2377251 49.2025018,42.3569322 49.2099137,43.3946076 C49.2099137,44.2692198 49.3136796,44.8325293 49.5063879,44.9955926 C49.5879183,45.0623003 49.654625,45.13642 49.654625,45.1586559 C49.654625,45.1808918 49.039441,45.2031277 48.2834318,45.2031277 L46.9196505,45.2031277 L46.8381201,44.9288849 C46.7936489,44.7732336 46.7269422,43.994977 46.6972948,43.2018965 C46.6009407,41.0524259 46.4971747,40.8745387 45.3705728,40.8671267 L44.7257414,40.8671267 L44.7035058,43.0388332 L44.6886821,45.2031277 L42.24277,45.2031277 L42.24277,34.6707218 Z M54.0127957,34.6781338 L54.0498549,34.848609 C54.0720905,34.9375526 54.3611529,36.464418 54.6946863,38.2358782 C54.917042,39.4168517 55.1163385,40.4627627 55.2288889,41.0310135 L55.2669047,41.2210482 C55.3006055,41.3873542 55.3209881,41.480467 55.324694,41.48232 C55.3323055,41.4898593 55.3346948,41.4913466 55.3372952,41.4905013 C55.3770003,41.4327731 55.4633499,40.9506469 56.0288202,37.82822 L56.5921212,34.7151936 L58.3857901,34.6929577 L60.179459,34.6781338 L60.179459,45.2031277 L57.881784,45.2031277 L57.8743721,41.1858413 C57.8669603,38.7547159 57.8373128,37.2797344 57.8002536,37.4576216 C57.7883946,37.5228469 57.7231703,37.8501594 57.6235549,38.3499039 L57.5598106,38.6697252 C57.413414,39.4043957 57.21531,40.4001727 57.0071851,41.4600841 L56.2734114,45.1660679 L55.3024584,45.1883038 C54.4278596,45.2031277 54.3315054,45.1957158 54.2944462,45.0771243 C54.2722106,45.0030046 53.9016179,43.2241324 53.4643184,41.1265456 C53.0344308,39.0289587 52.6638381,37.2945583 52.6490144,37.2797344 C52.6358377,37.2665576 52.6226611,38.6647658 52.6198956,40.5113116 L52.6193669,45.2031277 L50.3958104,45.2031277 L50.3958104,34.6781338 L54.0127957,34.6781338 Z M38.5887255,37.0499634 C38.3737817,36.2717068 37.9290704,35.9604042 37.3212983,36.1605273 C36.6542313,36.3828863 36.5134061,37.0277275 36.5134061,39.9406308 L36.513839,40.2172632 C36.5223333,42.8219837 36.6594196,43.4331499 37.2397679,43.6910863 C37.5658895,43.8467377 38.0031889,43.772618 38.2477801,43.5206111 C38.662844,43.1129529 38.7221389,42.6385869 38.7221389,39.9406308 C38.7221389,37.8578679 38.7073152,37.4650336 38.5887255,37.0499634 Z M45.3174545,36.393867 L45.1852764,36.3977103 L44.7257414,36.4199462 L44.7035058,37.6799806 C44.696094,38.3692936 44.7035058,38.977075 44.7183295,39.0289587 C44.7628007,39.1475502 45.4891625,39.1623742 45.8894026,39.0511946 C47.0085927,38.739892 47.0530639,36.7534847 45.9412856,36.457006 C45.7782248,36.4125342 45.4372795,36.3828863 45.1852764,36.3977103 Z M15.1820875,36.3828863 L14.6706695,36.3828863 L14.6706695,39.1253143 L15.1450282,39.1253143 C16.2049235,39.1253143 16.7015177,38.6805963 16.7015177,37.7170405 C16.7015177,36.7608967 16.2716302,36.3828863 15.1820875,36.3828863 Z"/></svg>