<svg xmlns="http://www.w3.org/2000/svg" width="164" height="71" viewBox="0 0 164 71"><path fill="#FFF" fill-rule="evenodd" d="M56.377,32.056 L59.359,32.149 L62.155,32.336 L64.671,32.709 L67,33.175 L69.144,33.827 L71.007,34.666 L71.846,35.038 L72.685,35.504 L73.43,36.063 L74.735,37.181 L75.294,37.741 L75.853,38.393 L76.319,39.138 L76.692,39.884 L77.064,40.629 L77.344,41.375 L77.624,42.213 L77.81,43.052 L77.996,44.916 L77.996,45.848 L77.903,47.898 L77.53,50.041 L77.251,51.346 L76.878,52.65 L76.505,53.862 L76.039,54.98 L75.48,56.191 L74.921,57.216 L74.269,58.335 L73.617,59.36 L72.964,60.292 L72.126,61.223 L71.38,62.155 L70.542,62.994 L68.678,64.485 L67.653,65.231 L66.628,65.883 L64.577,67.001 L62.527,67.84 L60.291,68.585 L58.055,69.051 L55.725,69.517 L53.209,69.703 L50.507,69.89 L31.59,69.89 L40.256,32.056 L56.377,32.056 Z M54.886,39.791 L49.948,39.791 L44.822,61.876 L49.948,61.876 L51.532,61.783 L53.023,61.596 L54.42,61.41 L55.818,61.037 L57.123,60.664 L58.334,60.198 L59.452,59.546 L60.477,58.894 L61.502,58.148 L62.341,57.403 L63.18,56.471 L63.925,55.539 L65.043,53.489 L65.789,51.066 L65.975,49.762 L66.068,48.457 L66.068,47.339 L65.882,46.221 L65.696,45.196 L65.323,44.264 L64.764,43.425 L64.112,42.68 L63.366,42.027 L62.527,41.468 L61.596,40.909 L60.477,40.536 L59.266,40.257 L57.868,39.977 L56.47,39.884 L54.886,39.791 Z M23.296,33.641 L23.483,35.318 L23.389,36.063 L23.203,36.809 L23.017,37.461 L22.644,38.207 L21.899,39.511 L20.967,40.816 L20.128,42.213 L19.382,43.518 L19.103,44.264 L18.917,45.009 L18.357,47.712 L18.078,49.109 L17.612,50.414 L17.053,51.719 L16.307,52.837 L15.841,53.396 L15.282,53.862 L14.63,54.328 L13.978,54.7 L13.698,54.794 L13.512,54.794 L13.139,54.607 L14.257,53.489 L14.537,53.023 L14.816,52.371 L15.003,51.719 L15.189,50.228 L15.189,48.737 L15.376,45.755 L15.562,44.357 L15.748,43.705 L16.028,43.052 L16.401,42.4 L16.867,41.748 L15.562,41.841 L14.257,42.12 L13.046,42.586 L11.928,43.146 L11.369,43.612 L10.996,44.171 L10.716,44.73 L10.623,45.382 L10.437,45.475 L10.25,45.289 L10.157,45.102 L10.064,44.637 L10.064,43.612 L10.25,42.866 L11.182,41.375 L12.487,40.257 L13.326,39.791 L14.164,39.418 L15.003,39.138 L15.748,38.952 L16.587,38.859 L18.264,38.673 L19.01,38.486 L19.848,38.3 L20.594,37.927 L21.246,37.461 L21.899,36.622 L22.551,35.691 L23.296,33.641 Z M33.919,26.186 L34.106,26.279 L34.758,27.49 L35.131,29.074 L35.224,29.82 L35.317,30.752 L35.224,31.59 L35.224,32.429 L35.038,33.175 L34.851,34.013 L33.919,35.877 L30.844,41.468 L30.006,43.332 L29.26,45.289 L28.888,46.221 L28.515,48.271 L28.422,49.296 L28.701,50.973 L28.888,51.253 L28.981,51.439 L28.981,51.532 L28.794,51.719 L28.422,51.719 L27.769,50.693 L27.303,49.575 L27.024,48.457 L26.93,47.246 L26.838,46.127 L27.117,42.493 L27.397,41.468 L27.769,40.443 L28.328,39.418 L28.888,38.486 L30.099,36.622 L31.404,34.666 L31.87,33.734 L32.429,32.709 L33.174,30.659 L33.454,29.54 L33.547,28.515 L33.547,27.397 L33.36,26.279 L33.454,26.186 L33.919,26.186 Z M3.634,26.745 L3.727,26.838 L3.727,27.863 L3.82,28.888 L4.007,29.913 L4.286,30.845 L4.659,31.684 L5.125,32.522 L5.778,33.361 L6.616,34.013 L8.014,33.268 L9.505,32.522 L10.996,31.963 L12.58,31.404 L14.257,30.938 L15.841,30.659 L17.612,30.472 L19.289,30.286 L19.848,30.472 L19.942,30.659 L19.942,30.752 L19.848,30.938 L18.917,32.243 L18.637,32.895 L18.264,33.641 L17.798,35.038 L17.519,35.784 L17.146,36.529 L16.68,36.436 L16.307,36.343 L15.562,36.063 L14.91,35.691 L14.537,35.504 L14.164,35.411 L13.326,35.131 L12.487,34.945 L10.716,34.945 L9.878,35.131 L9.039,35.318 L8.294,35.691 L7.548,36.063 L7.082,36.529 L6.523,37.647 L6.15,38.766 L6.15,40.536 L6.616,41.188 L7.175,41.841 L7.828,42.307 L8.666,42.68 L8.294,42.959 L7.082,42.68 L6.523,42.493 L5.964,42.307 L5.498,42.027 L4.566,41.282 L4.193,40.816 L3.914,40.163 L3.727,39.511 L3.541,38.02 L3.634,37.368 L3.727,36.622 L4.007,35.97 L4.38,35.318 L4.007,34.945 L3.261,34.013 L2.982,33.547 L2.609,32.429 L2.423,31.311 L2.329,30.193 L2.516,29.074 L2.795,27.956 L3.168,27.024 L3.261,26.838 L3.448,26.745 L3.634,26.745 Z M30.844,23.111 L31.031,23.297 L31.031,23.577 L31.124,23.763 L31.031,24.508 L30.938,25.161 L30.658,25.72 L30.285,26.279 L29.819,26.652 L29.353,27.118 L28.142,27.77 L26.93,28.515 L25.719,29.168 L25.16,29.54 L24.228,30.472 L23.855,30.938 L23.389,30.938 L23.296,30.565 L23.203,30.1 L23.203,29.727 L23.296,29.354 L23.576,28.702 L23.855,27.956 L24.601,27.211 L25.533,26.558 L26.465,26.093 L27.49,25.627 L28.422,25.254 L29.353,24.695 L30.099,23.949 L30.379,23.577 L30.565,23.111 L30.844,23.111 Z M56.564,15.469 L56.843,15.656 L56.936,15.842 L57.216,16.308 L57.402,16.774 L57.682,17.147 L58.148,17.799 L58.707,18.358 L59.825,19.29 L61.13,20.129 L62.527,20.874 L65.416,22.272 L66.814,23.017 L68.119,23.856 L68.957,24.974 L69.33,25.533 L69.609,26.093 L69.796,26.745 L69.982,27.304 L70.075,27.956 L70.075,28.702 L69.889,28.702 L69.423,27.956 L68.864,27.304 L68.212,26.745 L67.559,26.279 L66.814,25.813 L65.975,25.44 L64.391,24.788 L62.714,24.136 L61.13,23.483 L60.384,23.017 L59.732,22.552 L59.08,21.992 L58.521,21.247 L58.148,20.594 L57.682,19.942 L57.123,18.638 L56.843,17.892 L56.657,17.147 L56.47,15.656 L56.564,15.469 Z M37.647,21.06 L38.392,21.153 L39.417,21.527 L40.442,21.899 L42.306,22.831 L44.263,23.856 L46.22,24.695 L47.152,25.161 L48.177,25.533 L49.295,25.813 L50.413,25.999 L51.532,26.093 L52.65,25.999 L53.675,25.72 L54.234,25.533 L54.7,25.254 L54.793,25.44 L54.7,25.627 L54.42,25.906 L54.048,26.186 L53.768,26.558 L52.929,27.024 L52.091,27.304 L51.159,27.583 L50.227,27.77 L49.295,27.863 L48.27,27.863 L47.338,27.677 L46.406,27.49 L44.915,26.931 L43.424,26.279 L42.027,25.627 L40.722,24.788 L39.324,24.042 L37.926,23.39 L36.436,22.831 L35.69,22.644 L34.851,22.458 L34.385,22.552 L33.826,22.644 L33.36,22.738 L33.174,22.738 L32.988,22.644 L33.454,22.179 L34.013,21.806 L34.665,21.433 L35.411,21.247 L36.156,21.06 L37.647,21.06 Z M6.989,22.924 L7.641,23.017 L8.2,23.297 L9.412,23.67 L9.412,24.136 L8.48,24.974 L7.362,25.627 L6.803,25.906 L6.243,25.999 L5.591,26.093 L4.939,26.093 L5.125,25.906 L5.405,25.72 L5.964,25.44 L6.43,24.881 L6.803,24.229 L6.989,22.924 Z M21.712,4.473 L22.551,4.66 L23.389,5.033 L23.762,5.219 L24.042,5.592 L24.321,5.871 L24.414,6.244 L24.601,6.803 L24.601,7.455 L24.414,8.574 L24.135,9.133 L23.855,9.599 L23.11,10.531 L22.644,10.903 L22.178,11.183 L21.153,11.742 L20.035,12.115 L19.01,12.394 L17.892,12.767 L16.867,13.233 L16.401,13.512 L15.655,14.258 L15.282,14.724 L14.816,15.656 L14.257,16.587 L13.512,17.426 L12.766,18.172 L11.835,18.824 L10.809,19.383 L9.691,19.663 L9.132,19.849 L8.48,19.849 L7.828,19.942 L7.082,20.036 L5.684,20.129 L4.939,20.222 L4.286,20.315 L3.634,20.502 L2.982,20.781 L2.702,21.34 L2.516,21.899 L2.423,22.552 L2.423,23.111 L2.609,24.415 L2.889,25.533 L2.329,25.347 L1.77,25.068 L1.398,24.695 L0.652,23.763 L0.373,23.297 L0,22.365 L0,20.315 L0.186,19.849 L0.373,19.476 L0.745,19.103 L1.118,18.731 L2.236,18.731 L3.261,18.544 L5.311,18.172 L7.269,17.706 L9.225,17.147 L9.784,16.867 L10.25,16.587 L10.623,16.308 L10.996,15.935 L11.648,15.097 L12.766,13.419 L13.419,12.581 L14.257,11.835 L14.63,11.556 L15.189,11.276 L18.917,10.344 L19.755,10.065 L20.594,9.692 L21.433,9.133 L22.085,8.574 L22.271,8.108 L22.271,6.803 L21.992,6.43 L21.712,6.151 L21.339,5.871 L20.967,5.685 L20.128,5.592 L19.662,5.685 L19.476,5.778 L19.289,5.964 L19.196,5.964 L19.103,5.871 L19.289,5.499 L19.476,5.219 L19.848,5.033 L20.128,4.846 L20.873,4.567 L21.712,4.473 Z M36.901,16.028 L37.833,16.122 L38.765,16.308 L39.697,16.587 L40.536,16.96 L41.747,17.426 L42.958,17.985 L45.288,19.103 L46.499,19.569 L47.711,20.036 L49.016,20.408 L50.32,20.688 L51.345,20.781 L52.184,20.688 L53.023,20.408 L53.954,20.036 L54.048,20.222 L54.048,20.502 L53.768,20.967 L52.277,21.899 L51.438,22.272 L50.507,22.458 L49.575,22.644 L48.643,22.644 L47.711,22.552 L46.779,22.365 L45.009,21.713 L43.238,20.967 L41.561,20.222 L39.79,19.383 L38.02,18.731 L37.088,18.544 L36.156,18.265 L35.224,18.172 L34.292,18.078 L33.267,18.172 L32.242,18.265 L32.056,18.451 L31.87,18.451 L31.683,18.078 L31.683,17.799 L31.87,17.612 L32.149,17.426 L32.801,17.053 L33.081,16.867 L33.267,16.681 L35.131,16.122 L36.063,16.028 L36.901,16.028 Z M23.203,17.24 L23.389,17.426 L23.296,17.612 L23.11,17.799 L22.83,17.985 L22.644,18.172 L20.967,19.29 L20.128,19.849 L19.289,20.594 L18.451,20.594 L18.078,20.408 L17.426,19.756 L17.332,19.383 L17.239,18.451 L18.637,18.078 L20.128,17.799 L20.873,17.612 L21.619,17.519 L22.271,17.426 L22.924,17.24 L23.203,17.24 Z M37.461,10.251 L38.765,10.437 L40.163,10.81 L41.561,11.369 L42.772,12.021 L44.077,12.767 L46.593,14.165 L47.804,14.817 L49.202,15.283 L50.04,15.469 L50.879,15.562 L51.811,15.469 L52.65,15.376 L53.023,15.283 L53.395,15.097 L53.302,15.469 L53.209,15.749 L53.023,15.935 L52.743,16.122 L52.091,16.494 L51.532,16.681 L50.134,16.96 L48.829,16.96 L47.524,16.867 L46.22,16.587 L45.009,16.215 L43.797,15.749 L42.679,15.097 L41.654,14.444 L40.256,13.885 L38.765,13.419 L37.274,13.046 L35.69,12.86 L34.106,12.86 L33.36,12.953 L32.615,13.14 L31.963,13.326 L31.217,13.606 L29.913,14.351 L29.726,14.165 L29.726,13.978 L29.913,13.512 L30.751,12.674 L31.683,11.928 L32.708,11.276 L33.826,10.81 L35.038,10.531 L36.249,10.344 L37.461,10.251 Z M27.676,2.27373675e-13 L29.074,0.28 L30.472,0.653 L31.776,1.212 L32.988,1.864 L35.224,1.585 L37.461,1.585 L39.604,1.678 L41.747,1.958 L43.797,2.517 L44.729,2.889 L45.754,3.262 L46.686,3.728 L47.524,4.287 L48.456,4.846 L49.202,5.499 L50.6,6.71 L51.811,8.108 L53.116,9.505 L55.166,11.556 L55.911,12.115 L56.75,12.581 L57.589,12.953 L58.427,13.326 L59.359,13.512 L60.384,13.512 L61.502,13.419 L62.155,13.512 L62.9,13.419 L62.9,13.699 L62.621,13.885 L62.248,14.071 L61.968,14.258 L60.664,14.537 L59.359,14.817 L58.148,14.724 L57.029,14.537 L56.004,14.258 L54.98,13.792 L53.954,13.326 L53.023,12.674 L51.252,11.369 L47.711,8.387 L45.847,7.083 L44.915,6.524 L43.89,6.058 L42.492,5.499 L41.002,5.033 L39.511,4.66 L38.02,4.38 L34.851,4.194 L33.267,4.194 L31.683,4.287 L30.565,4.473 L28.515,5.219 L27.49,5.685 L27.21,5.685 L27.583,5.033 L28.049,4.38 L28.608,3.914 L29.26,3.448 L28.422,2.983 L27.49,2.61 L26.465,2.33 L25.44,2.237 L24.321,2.144 L23.296,2.237 L22.271,2.517 L21.339,2.796 L19.848,3.542 L19.942,3.169 L20.128,2.796 L20.314,2.517 L20.594,2.237 L21.246,1.771 L21.899,1.212 L22.551,0.839 L23.203,0.56 L23.948,0.373 L24.601,0.187 L25.346,2.27373675e-13 L27.676,2.27373675e-13 Z M96.54,32.056 L91.508,54.235 L91.415,54.607 L91.229,55.446 L91.136,56.285 L91.136,57.03 L91.229,57.776 L91.415,58.335 L91.602,58.987 L91.974,59.453 L92.347,60.012 L92.813,60.385 L93.279,60.757 L94.583,61.317 L95.329,61.503 L96.168,61.689 L97.006,61.783 L99.056,61.783 L100.081,61.689 L101.013,61.503 L101.852,61.223 L102.597,60.944 L103.343,60.664 L104.088,60.198 L104.647,59.732 L105.206,59.173 L105.766,58.521 L106.697,57.03 L107.07,56.191 L107.443,55.26 L108.002,53.21 L113.407,32.056 L124.962,32.056 L119.278,54.328 L118.812,56.285 L118.159,58.055 L117.414,59.732 L116.482,61.317 L115.457,62.808 L114.246,64.112 L113.034,65.323 L111.543,66.349 L110.052,67.281 L108.375,68.119 L106.604,68.865 L104.741,69.424 L102.69,69.89 L100.547,70.169 L98.311,70.356 L95.888,70.449 L93.558,70.356 L91.415,70.169 L89.365,69.89 L87.594,69.424 L85.917,68.865 L84.426,68.212 L83.121,67.467 L82.003,66.535 L81.071,65.51 L80.326,64.298 L79.674,63.087 L79.301,61.689 L79.021,60.198 L79.021,58.521 L79.115,56.751 L79.394,54.887 L79.487,54.514 L84.706,32.056 L96.54,32.056 Z M148.165,32.056 L150.308,32.149 L152.358,32.243 L154.222,32.522 L155.9,32.802 L157.391,33.268 L158.788,33.734 L160,34.386 L161.025,35.038 L161.863,35.877 L162.609,36.716 L163.168,37.741 L163.541,38.766 L163.727,39.977 L163.82,41.188 L163.727,42.586 L163.447,43.984 L163.075,45.382 L162.516,46.687 L161.863,47.898 L161.118,49.016 L160.186,50.134 L159.161,51.159 L158.043,52.091 L156.831,52.93 L154.036,54.421 L152.451,54.98 L150.867,55.446 L149.19,55.819 L147.42,56.098 L145.556,56.285 L143.599,56.378 L135.585,56.378 L132.044,69.89 L119.278,69.89 L128.876,32.056 L148.165,32.056 Z M144.624,38.766 L139.685,38.766 L136.983,49.575 L141.735,49.575 L143.692,49.482 L145.369,49.203 L146.86,48.83 L147.606,48.55 L148.165,48.178 L148.817,47.805 L149.283,47.432 L150.215,46.5 L150.495,45.941 L150.867,45.382 L151.054,44.823 L151.24,44.171 L151.333,43.518 L151.426,42.959 L151.426,42.307 L151.333,41.841 L151.147,41.375 L150.588,40.443 L150.215,40.163 L149.749,39.791 L149.19,39.511 L148.631,39.325 L147.979,39.138 L146.395,38.859 L144.624,38.766 Z"/></svg>