<svg xmlns="http://www.w3.org/2000/svg" width="78" height="80" viewBox="0 0 78 80"><path fill="#FFF" fill-rule="evenodd" d="M40.2164831,49.8822525 C39.9016238,54.5311575 39.0429539,58.8376721 37.5545655,62.6879373 C37.7300364,62.7474569 37.9055617,62.8071926 38.0811672,62.8670129 L39.1359702,63.2259011 C42.6565696,64.4185808 46.2299583,65.5401061 50.0630273,65.5401061 C58.4211832,65.5401061 61.398164,61.6898409 62.3713097,57.3831229 L65.5199021,57.3831229 C65.4339942,72.6131919 58.1063239,80 48.5746389,80 C43.2505997,80 37.32541,76.3778595 33.0318564,72.5845238 C30.1409874,76.0070044 25.4752346,79.771672 18.0330886,79.8572696 C10.2758792,79.9428672 7.38501022,74.3814633 7.38501022,69.6469608 C7.38501022,62.0320279 13.9397144,59.1229296 20.5805304,59.1229296 C22.9275887,59.1229296 25.4178947,59.236992 27.5647736,59.9784989 C27.2499143,56.2994289 25.9619094,53.1622059 24.902652,49.9109206 L24.902652,49.8822525 Z M18.6054671,64.0855569 C14.3119135,64.0855569 11.5640881,66.9375224 11.5926561,70.3884677 C11.5926561,73.2691013 14.11153,76.1210667 18.2906079,76.1210667 C24.2729335,76.1210667 27.0780987,72.1282744 27.8510649,68.1924116 C26.0190453,66.1960154 22.7559772,64.0855569 18.6054671,64.0855569 Z M5.03774784,29.6043653 L5.03774784,40.5846458 C5.03774784,44.4920438 7.2705345,44.9198285 10.6766463,44.9482933 L11.1347532,44.9482933 C14.512297,44.9482933 16.7448796,44.5205086 16.7448796,40.5846458 L16.7448796,29.6043653 L21.8399674,29.6043653 L21.8399674,41.2120904 C21.8399674,44.5205086 19.092142,47.6861964 11.1633211,47.8289268 L10.7052142,47.8289268 C2.71925744,47.6861964 0,44.5205086 0,41.2120904 L0,29.6043653 L5.03774784,29.6043653 Z M70.0711791,29.5756972 C74.1643492,29.5756972 78,30.916184 78,35.2229019 C78,38.160465 75.8816891,40.8414386 71.6454753,40.8414386 L64.6038922,40.8414386 L64.6038922,47.4865364 L59.4516687,47.4865364 L59.4516687,29.5756972 Z M55.0436393,29.6043653 L55.0436393,47.4865364 L49.8340759,47.4865364 L49.8340759,29.6043653 L55.0436393,29.6043653 Z M31.7438515,29.6043653 L31.7438515,38.2460626 L39.6153325,29.6043653 L45.8553815,29.6043653 L37.8406528,36.9625053 L47.2007262,47.4865364 L40.8747695,47.4865364 L34.7206283,39.8431388 L31.7152836,42.6951043 L31.7152836,47.4865364 L26.6201958,47.4865364 L26.6201958,29.6043653 L31.7438515,29.6043653 Z M69.9852713,32.0854756 L64.6326642,32.1141437 L64.6326642,38.2745273 L69.9852713,38.2745273 C71.4450918,38.2745273 72.9334802,36.9055758 72.9334802,35.3082962 C72.9334802,33.6540871 71.6169074,32.0854756 69.9852713,32.0854756 Z M43.136124,0 C54.2994451,0 63.2585475,4.59177216 63.2585475,12.7200872 C63.2585475,17.397457 60.6251978,21.4758469 54.8432558,21.4758469 C50.63561,21.4758469 46.6569156,19.3369236 46.6569156,13.8324493 C46.6569156,12.2353731 46.9717748,10.2389769 46.9717748,8.69883015 C46.9717748,4.79143211 44.5100367,3.5365429 40.9321093,3.5365429 C36.6671236,3.5365429 34.2627254,7.01615629 34.2627254,10.7808239 C34.2627254,15.7588789 37.2502481,26.9855916 37.43131,27.6614273 L37.4398857,27.6933634 L18.6913749,27.6933634 C18.3479478,25.6685025 18.2047001,23.7005711 18.2047001,21.7041749 C18.2047001,9.78252416 28.5664871,0 43.136124,0 Z"/></svg>