<svg xmlns="http://www.w3.org/2000/svg" width="294" height="48" viewBox="0 0 294 48"><path fill="#FFF" d="M149.038225,26.6641811 L149.692315,27.1551543 C149.610345,26.4195323 149.734137,25.1879101 149.734137,25.1879101 C149.240642,25.514667 149.120196,26.1296403 149.120196,26.1296403 L148.424284,26.2117484 L149.038225,26.6641811 Z M175.849208,31.9911567 C175.767238,31.8269404 175.643446,31.7062917 175.437684,31.7062917 C175.235267,31.7062917 175.029505,31.9090486 175.029505,32.197265 C175.029505,32.4854813 175.235267,32.6882382 175.437684,32.6882382 C175.681922,32.6882382 175.889357,32.4854813 175.889357,32.197265 C175.887684,32.1168325 175.849208,32.0732649 175.849208,31.9911567 Z M175.832479,30.0674801 C175.842517,30.1026693 175.849208,30.1462369 175.849208,30.1881288 C175.845427,30.39612 175.714553,30.5804497 175.519654,30.6522912 L175.519654,31.2572104 C175.748172,31.2797015 175.956858,31.3969812 176.095119,31.580616 C176.227234,31.7582734 176.29826,31.9740611 176.297535,32.1955893 C176.297535,32.6379679 176.046606,32.994887 175.680249,33.1054816 C176.690658,33.0267248 177.323001,32.9345626 177.323001,32.9345626 C176.339357,32.7284544 176.911476,32.155373 176.911476,32.155373 C177.363149,31.7850485 178.221328,31.4968322 178.221328,31.4968322 C177.199209,31.3728321 176.62709,30.555102 176.377833,30.0641287 L175.832479,30.0641287 L175.832479,30.0674801 L175.832479,30.0674801 Z M175.317237,33.1306168 C174.925787,33.0652654 174.621326,32.6815355 174.621326,32.197265 C174.621326,31.7331026 174.902367,31.3594267 175.275416,31.2739672 L175.275416,30.6723993 C175.045311,30.6368862 174.864265,30.456889 174.827088,30.2266694 L174.823743,30.2300207 C174.415564,30.3506694 174.045861,30.3506694 174.045861,30.3506694 C173.963891,30.5567776 174.127832,30.6388858 174.127832,30.6388858 C174.987683,31.2538591 174.415564,31.8269404 174.415564,31.8269404 C174.007385,32.197265 173.801623,32.197265 173.801623,32.197265 C173.393445,32.321265 172.409801,33.1825627 172.409801,33.1825627 C173.503853,33.2160763 174.505899,33.1825627 175.317237,33.1306168 L175.317237,33.1306168 Z M164.100688,29.3285068 C164.174388,29.3286682 164.246308,29.305826 164.30645,29.2631554 L165.122808,29.6167231 C165.122808,29.8613719 165.286748,30.0691558 165.49251,30.0691558 C165.619648,30.0691558 165.73173,29.9870476 165.796972,29.8697503 L166.489537,29.9719665 C166.534704,30.1780748 166.675225,30.3154802 166.842511,30.3154802 C167.031545,30.3154802 167.222251,30.1412099 167.247344,29.8898584 L167.826155,29.6150474 C167.894742,29.7172637 167.996787,29.7826151 168.113887,29.7826151 C168.316304,29.7826151 168.522066,29.5765069 168.522066,29.3301824 L168.891769,28.7185605 C169.587383,28.7726751 170.28661,28.7586446 170.979503,28.6766686 C172.083592,28.1002359 172.985266,27.773479 172.985266,27.773479 C172.655712,28.0181277 172.32783,28.2259116 172.122068,28.4705604 C171.916357,28.6753399 171.725185,28.8942697 171.549949,29.1257499 C171.249301,29.3438091 171.079306,29.6995069 171.098276,30.0708315 C171.129867,30.304746 171.213319,30.5286134 171.342514,30.726021 C171.548276,30.9706697 171.836009,31.0963455 171.836009,31.0963455 L172.287682,31.5052106 C171.917979,31.7934269 171.098276,31.9961838 171.098276,31.9961838 C170.646603,32.1637514 170.036008,31.8755351 170.036008,31.8755351 C168.602364,31.5487781 168.112215,32.202292 168.112215,32.202292 C167.824482,32.5290489 167.292511,32.5726165 167.292511,32.5726165 L167.53675,32.942941 C167.004779,33.1071573 166.720392,32.9010491 166.720392,32.9010491 C166.678571,32.2039677 167.046601,31.5068862 167.046601,31.5068862 C166.88266,30.4009397 164.589164,30.6036966 164.589164,30.6036966 L164.018718,30.0674801 L163.894926,29.94348 L162.585074,28.7135335 C162.585074,29.083858 162.421133,29.6167231 162.218717,30.0691558 C162.054776,30.4361289 161.849014,30.7662372 161.849014,30.7662372 L161.358865,30.5182371 C161.452081,30.3815777 161.520595,30.229572 161.561281,30.0691558 C161.96946,29.083858 162.257192,27.6896951 162.257192,27.6896951 C162.501431,27.6896951 162.708866,27.731587 162.871133,27.7718033 C162.994925,27.8539114 163.076896,27.8958033 163.076896,27.8958033 C163.172249,27.9410466 163.275966,27.9846142 163.388048,28.0298575 L163.839721,28.6716416 C163.796934,28.7472677 163.774455,28.8327151 163.77448,28.9196417 C163.772807,29.1642905 163.894926,29.3285068 164.100688,29.3285068 Z M168.670951,28.690074 L168.431731,29.0302363 C168.364808,28.915817 168.24448,28.8432462 168.112215,28.8375335 C167.906452,28.8375335 167.742512,29.0402904 167.742512,29.3285068 C167.742512,29.3670473 167.745857,29.4072636 167.755895,29.4424528 L167.233961,29.6871015 C167.178757,29.4943987 167.01147,29.3268311 166.842511,29.3268311 C166.640095,29.3268311 166.476154,29.5714799 166.476154,29.8178043 L165.852176,29.710561 C165.858822,29.6791583 165.862186,29.6471479 165.862213,29.6150474 C165.862213,29.3703987 165.694927,29.1207229 165.49251,29.1207229 C165.338607,29.1207229 165.211469,29.2581283 165.156265,29.4290474 L164.433588,29.1022904 C164.458039,29.0445745 164.470012,28.9823261 164.468718,28.9196417 C164.468718,28.7135335 164.304777,28.5107766 164.099015,28.5107766 C164.066402,28.5094974 164.033893,28.5152104 164.003662,28.5275334 L163.811283,28.1806683 L163.807937,28.1806683 C164.850131,28.5208307 166.143254,28.7571011 166.143254,28.7571011 L167.044928,28.7571011 L167.33266,28.3046684 C167.704036,28.5124523 168.184148,28.6314253 168.670951,28.690074 L168.670951,28.690074 Z M163.819647,21.6890975 C163.853104,21.7309894 163.884889,21.76953 163.918346,21.8047192 L163.866487,21.8968814 C163.839091,21.8787069 163.807302,21.8682855 163.77448,21.8667192 C163.610539,21.8667192 163.486747,22.0309355 163.486747,22.1951518 L163.448271,22.1549356 L163.118717,21.7846111 L162.998271,21.6622867 L162.260538,20.8830971 C161.400686,19.7352587 160.090834,20.8830971 160.090834,20.8830971 L159.888418,20.7188808 C160.580983,20.3083401 159.970388,19.775475 159.970388,19.775475 L161.320389,16.2900678 L160.950686,15.8393108 C161.608121,14.4853642 160.216299,14.445148 160.216299,14.445148 C159.804775,13.2152014 159.068715,13.7899584 159.068715,13.7899584 C158.824477,12.6002281 157.92113,13.2152014 157.92113,13.2152014 C157.594922,12.3957956 156.81704,12.8867688 156.81704,12.8867688 L156.855516,10.9597408 L155.957189,10.999957 L154.973545,10.9597408 L155.055515,12.926985 C154.075217,12.4360118 153.907931,13.4196339 153.907931,13.4196339 C152.763692,12.7627687 152.763692,14.0346072 152.763692,14.0346072 C151.820197,13.7463909 151.862019,14.6495805 151.862019,14.6495805 C150.593988,14.7719049 150.757929,15.8795271 150.757929,15.8795271 L151.738227,19.2409341 C151.493989,19.8559074 148.588225,23.4234227 148.588225,23.4234227 L147.35867,23.0547739 L147.2767,22.8503414 C147.56276,23.0145577 147.768522,22.9324495 147.768522,22.9324495 C147.646403,22.5219088 147.808671,21.7025029 147.808671,21.7025029 C148.178374,20.1039075 147.522611,19.5291505 147.522611,19.5291505 C147.56276,18.8722853 147.11276,18.0947714 147.11276,18.0947714 C147.7267,17.3155818 146.8267,16.5363922 146.8267,16.5363922 L146.702908,16.330284 L146.662759,14.6495805 C146.498819,14.6495805 146.416848,14.4434723 146.416848,14.4434723 C146.170937,13.7463909 145.720937,14.1988235 145.720937,14.1988235 C145.393056,13.4615258 144.861085,14.0346072 144.861085,14.0346072 C144.409412,13.4196339 143.959412,14.0346072 143.959412,14.0346072 L143.591382,12.8448769 L142.3635,13.3358501 L142.773352,14.6479048 C141.871678,14.4417966 142.159411,15.3449862 142.159411,15.3449862 C141.381529,15.3852025 141.749559,16.0822839 141.749559,16.0822839 C141.013499,16.1643921 141.299559,16.9854736 141.299559,16.9854736 L142.117589,18.3377445 C141.461827,19.0750422 142.077441,19.5676911 142.077441,19.5676911 C142.283203,19.9380156 142.529114,19.9380156 142.529114,19.9380156 C142.159411,21.0456377 142.651233,22.1934762 142.651233,22.1934762 C142.119262,22.8084494 141.341381,23.2994227 140.645469,23.6680715 C139.62335,24.1607204 138.721676,24.4070448 138.721676,24.4070448 C137.124092,24.7773693 133.97409,25.8012077 133.97409,25.8012077 C132.868327,26.0860727 131.108475,26.6189378 131.108475,26.6189378 C128.898622,27.2774787 128.32483,26.5803973 128.32483,26.5803973 C127.792859,26.250289 128.202711,25.3889913 128.202711,25.3889913 C128.734682,24.323261 129.840444,24.0769366 129.840444,24.0769366 C130.618326,24.5712611 130.904385,24.8561261 130.904385,24.8561261 C131.394534,25.3504507 132.256059,25.3085588 132.256059,25.3085588 L132.296208,25.1443425 C132.664238,25.1862344 132.910149,25.0622344 132.910149,25.0622344 C132.664238,24.8175856 132.664238,24.5293692 132.664238,24.5293692 C132.664238,24.3249367 132.378178,23.9981798 132.378178,23.9981798 L138.067587,23.7518553 C138.273349,23.7133148 138.435617,23.7133148 138.599557,23.6697472 C140.563499,23.3010983 141.015172,22.8503414 141.015172,22.8503414 C142.365173,21.7829354 141.793054,20.0201237 141.793054,20.0201237 C141.055321,18.2992039 139.62335,18.2154201 139.62335,18.2154201 C138.517587,17.9288794 137.699557,18.0930957 137.699557,18.0930957 C137.085616,18.1349876 135.817585,17.806555 135.817585,17.806555 C135.775764,18.0512038 136.307734,18.8303934 136.307734,18.8303934 C135.936997,18.8638254 135.568475,18.7460142 135.285615,18.5036365 C134.629852,17.8886632 133.565911,18.1752039 133.565911,18.1752039 C133.729852,18.5036365 134.713496,19.324718 134.713496,19.324718 C134.139703,19.3649342 132.585613,18.7097447 132.585613,18.7097447 C132.871673,20.0636913 134.427436,21.0054215 134.427436,21.0054215 C136.269259,21.7846111 137.86517,20.9652053 137.86517,20.9652053 C138.643052,20.4742321 139.420933,20.1860157 139.420933,20.1860157 C139.658215,20.0774688 139.931092,20.0786637 140.167416,20.1892846 C140.403741,20.2999054 140.579717,20.5088131 140.648815,20.7607727 C140.566845,22.1549356 139.543052,22.1951518 139.543052,22.1951518 C136.595467,22.8101251 132.665911,22.3995844 132.665911,22.3995844 C132.95197,22.0309355 132.993792,21.0875297 132.993792,21.0875297 L132.665911,21.1696378 C130.94788,21.0054215 130.496207,21.375746 130.496207,21.375746 C129.882266,21.7443949 129.596206,22.5235844 129.596206,22.5235844 C128.818325,22.852017 128.204384,23.2608821 127.752711,23.6714228 C126.606799,24.7807207 126.48468,26.0089916 126.48468,26.0089916 C126.40271,27.4852626 127.22074,27.6913708 127.22074,27.6913708 C126.48468,29.1240742 127.58877,29.658615 127.58877,29.658615 C128.080592,29.2916419 128.284681,28.8794255 128.284681,28.8794255 C129.266652,28.1438035 132.132267,27.5271545 132.132267,27.5271545 C131.558475,27.9795872 131.230594,29.3301824 131.230594,29.3301824 C130.740445,29.4943987 129.920742,29.2061824 129.920742,29.2061824 C129.470741,29.1676418 129.470741,29.5362906 129.470741,29.5362906 L129.264979,30.0272639 L128.97892,30.9304535 C127.219067,30.8483454 127.464978,31.8721837 127.464978,31.8721837 L127.219067,34.6186175 C127.628919,35.6424559 128.283008,35.4799152 128.283008,35.4799152 L128.283008,34.4560769 L128.733009,34.4560769 C129.264979,35.5620234 130.084682,35.8083478 130.084682,35.8083478 L130.330593,35.8083478 C130.616653,35.7262397 130.740445,36.1384561 130.740445,36.1384561 L131.026504,36.1769967 L131.066653,35.4799152 L131.392862,35.4413747 C131.598624,35.5234828 131.720743,35.8502398 131.720743,35.8502398 L131.964981,35.8502398 C132.046951,35.6860235 132.088773,35.2352665 132.088773,35.2352665 C132.416654,35.0291583 132.333011,34.2935363 132.333011,34.2935363 C132.988773,34.1695362 133.684685,34.4175363 133.684685,34.4175363 L133.644536,35.0291583 C134.134685,35.8502398 134.750299,35.9742398 134.750299,35.9742398 C135.16015,36.0948885 135.772418,36.1769967 136.510151,36.2188886 C137.779854,36.3009967 139.375766,36.2574291 140.849559,36.2188886 C142.449033,36.1381493 144.046071,36.0146638 145.638967,35.8485641 C145.802907,36.0932128 145.883205,36.0546723 145.883205,36.0546723 C146.579116,36.2993211 147.356998,35.5603477 147.356998,35.5603477 L147.11276,36.0546723 C147.64473,36.0127804 148.218522,35.6424559 148.218522,35.6424559 C148.360442,35.8374815 148.560916,35.9819245 148.790642,36.0546723 L148.914433,35.9306722 L149.078374,36.175321 C149.404582,36.0111047 149.610345,35.439699 149.610345,35.439699 C149.980048,35.7664559 150.512018,35.6843478 150.512018,35.6843478 L150.675959,35.9289966 L150.796405,35.7228883 C151.040643,35.890456 151.492316,36.0932128 151.492316,36.0932128 C151.985811,35.4782396 151.780049,34.5784013 151.780049,34.5784013 L151.90384,34.7811581 L152.024287,34.2901849 C152.268525,34.5348337 152.681722,34.5348337 152.681722,34.5348337 C151.90384,34.8615906 152.352168,35.4380233 152.352168,35.4380233 C152.448362,35.5998625 152.592077,35.7280191 152.763692,35.8049965 C153.032631,35.7715548 153.281927,35.9511746 153.335812,36.2172129 C153.949752,36.5054293 154.319455,35.8468884 154.319455,35.8468884 L154.401426,35.3559152 C154.277634,35.0676988 154.277634,34.6169418 154.277634,34.6169418 L154.401426,35.149807 L154.603842,35.273807 L155.995665,36.3797535 L157.18507,35.3944557 C157.83916,35.8468884 158.740833,35.8468884 158.740833,35.8468884 C159.067042,35.8468884 158.822804,35.4380233 158.822804,35.4380233 C159.888418,36.2993211 161.482657,36.0932128 161.482657,36.0932128 C161.726895,35.890456 161.564627,35.7664559 161.564627,35.7664559 C161.852359,35.6424559 162.342508,36.0546723 162.342508,36.0546723 C162.750687,36.3395373 163.364628,36.0932128 163.364628,36.0932128 C163.326152,35.890456 163.12039,35.8485641 163.12039,35.8485641 C163.408123,35.8485641 163.244182,35.439699 163.244182,35.439699 C163.528569,35.4782396 163.776152,35.8066722 163.776152,35.8066722 C164.020391,36.1367804 164.472064,36.0546723 164.472064,36.0546723 L164.51054,35.8485641 C164.798272,36.0546723 165.450689,36.0932128 165.450689,36.0932128 C165.617975,35.9289966 165.49251,35.6843478 165.49251,35.6843478 C168.440096,36.5875374 172.817979,36.4199698 172.817979,36.4199698 C178.509061,36.3814292 179.286942,35.273807 179.286942,35.273807 C179.492705,35.0258069 179.368913,34.7409419 179.368913,34.7409419 L179.368913,34.414185 C179.656645,34.2466173 180.106646,34.3722931 180.106646,34.3722931 L179.695121,35.2335908 L179.574675,35.5218072 C180.554973,36.6277537 182.028766,35.3978071 182.028766,35.3978071 L182.028766,35.0274826 C182.316498,34.9068339 182.560736,34.5784013 182.560736,34.5784013 L183.218172,34.7426176 C183.300142,35.1129421 183.054231,35.5218072 183.054231,35.5218072 C184.076351,35.8066722 184.442708,34.7426176 184.442708,34.7426176 L183.914083,31.9928324 C183.09438,31.0511022 181.620587,31.2136428 181.620587,31.2136428 L181.578765,30.5165614 C181.496795,30.2719126 181.212408,30.1076963 180.964825,30.0674801 L180.648653,29.9535341 L180.350884,30.0674801 C179.899211,30.1060207 179.243448,30.1060207 179.243448,30.1060207 L179.243448,30.0674801 L179.325418,29.1223985 L179.325418,28.058344 L179.243448,27.6880195 L180.106646,27.8120195 C180.760735,28.0968845 182.276349,28.0968845 182.276349,28.0968845 C182.766498,28.3029927 182.766498,28.793966 182.766498,28.793966 L182.602558,29.3703987 C183.99438,29.2463986 183.83044,27.6880195 183.83044,27.6880195 C184.810738,26.866938 184.564827,24.6533693 184.564827,24.6533693 C184.441035,24.1205042 184.238618,23.7920716 184.113154,23.6680715 L184.074678,23.6295309 C184.074678,22.2336924 182.682855,21.6187191 182.682855,21.6187191 C182.438617,21.4126109 182.150885,21.4126109 182.150885,21.4126109 C181.824676,21.3321784 181.373003,20.7976376 181.373003,20.7976376 C180.841033,21.7812597 181.291033,22.5185574 181.291033,22.5185574 C180.47133,22.3543411 176.37616,23.1754226 176.37616,23.1754226 C175.395862,23.421747 173.759802,22.8888819 173.759802,22.8888819 C172.734336,22.3141249 172.89995,21.5768272 172.89995,21.5768272 C173.102366,20.3870969 174.08601,20.5513132 174.08601,20.5513132 L174.373742,20.5513132 C175.233594,20.3870969 175.847535,20.7155295 175.847535,20.7155295 C177.565566,21.5349353 180.633598,20.7155295 180.633598,20.7155295 C182.10739,20.1407724 182.518915,18.2137444 182.518915,18.2137444 C181.535271,19.1169341 180.595122,18.9527178 180.595122,18.9527178 C180.387261,18.9946003 180.182215,19.0494459 179.981181,19.1169341 C180.145121,18.4198527 180.961479,18.0914201 180.961479,18.0914201 C179.899211,17.6406631 178.753299,18.4198527 178.753299,18.4198527 C178.18118,19.0348259 176.909803,19.2392585 176.909803,19.2392585 C177.849953,18.8706096 178.343447,17.8450956 178.343447,17.8450956 C177.729507,18.2137444 176.625417,18.1316363 176.625417,18.1316363 C174.945862,17.8032037 173.104039,19.3196909 173.104039,19.3196909 C171.424484,20.8780701 172.244187,22.6006656 172.244187,22.6006656 C172.44995,23.0916388 172.940099,23.4619633 173.472069,23.6663958 C174.249951,24.0367203 175.066308,24.1188285 175.066308,24.1188285 C176.827833,24.323261 180.431181,23.9127203 180.431181,23.9127203 C180.757389,23.8306121 181.127092,23.8306121 181.127092,23.8306121 C180.469657,24.323261 180.349211,25.4308832 180.349211,25.4308832 C181.0033,25.1862344 181.493449,25.1862344 181.493449,25.1862344 L181.454974,25.3504507 C182.232855,25.2264507 182.885272,25.3504507 182.885272,25.3504507 C183.296796,25.3889913 183.378767,25.0236938 183.378767,25.0236938 C183.868915,25.7593158 182.885272,26.582073 182.885272,26.582073 C182.313152,27.1551543 181.045122,26.7027217 181.045122,26.7027217 C180.349211,26.3759647 178.545864,26.250289 178.545864,26.250289 C178.219656,25.8414239 174.494189,25.1041263 174.494189,25.1041263 C174.288426,24.7338018 173.922069,24.8980181 173.922069,24.8980181 L173.592515,24.8561261 C173.266307,24.0769366 172.530247,24.5293692 172.530247,24.5293692 C171.998276,24.4472611 171.138425,23.9562879 170.64493,23.6680715 C170.400692,23.5457471 170.278573,23.4234227 170.278573,23.4234227 C172.242514,21.2500703 172.118723,18.9141772 172.118723,18.9141772 C171.874484,15.5510945 169.132661,15.0182293 169.132661,15.0182293 C168.724483,14.0346072 167.41463,13.9524991 167.41463,13.9524991 L167.33266,14.1586073 L167.453106,14.445148 C167.41463,14.6512562 167.658869,15.019905 167.658869,15.019905 L167.126898,15.1422294 L163.811283,13.2152014 C162.994925,13.0107689 163.321134,13.7061746 163.321134,13.7061746 L163.485074,13.9524991 L166.350689,16.2079597 C166.062957,16.781041 165.082659,17.5200144 165.082659,17.5200144 L164.712956,17.6021225 L164.261283,18.0930957 L164.303104,18.7499609 C164.097342,18.9141772 163.645669,18.9141772 163.645669,18.9141772 L163.607193,19.324718 C163.89158,19.7352587 164.711283,19.7352587 164.711283,19.7352587 L165.365373,20.3904482 C165.571135,20.5144483 165.735076,20.350232 165.735076,20.350232 L166.307195,19.6950425 L167.085076,19.3263936 C167.290839,19.448718 167.660541,19.4906099 167.660541,19.4906099 C167.128571,19.6967182 166.556452,20.4742321 166.556452,20.4742321 C166.104778,20.350232 165.367046,20.5144483 165.367046,20.5144483 L165.285075,20.9652053 L165.261655,21.0741242 L165.082659,20.9652053 C164.794926,19.7771506 163.893253,20.5144483 163.893253,20.5144483 C163.593033,20.8386706 163.562257,21.3298166 163.819647,21.6890975 L163.819647,21.6890975 Z M163.838048,22.5470439 C163.936747,22.5018006 164.017045,22.3610438 164.017045,22.1934762 C164.017033,22.1460334 164.00676,22.0991564 163.986933,22.0560707 L164.042138,21.9186652 C164.170305,22.0226862 164.33053,22.0789478 164.495484,22.0778545 C164.917045,22.0644491 165.080986,21.4545028 165.080986,21.4545028 L165.183031,21.4545028 L165.080986,21.945476 C164.669462,22.1918005 164.303104,23.0112063 164.303104,23.0112063 L163.838048,22.5470439 L163.838048,22.5470439 Z M164.093997,21.375746 C163.874851,20.919962 164.344926,20.7172052 164.344926,20.7172052 C164.917045,20.635097 164.796599,21.3723947 164.796599,21.3723947 C164.642696,21.5650975 164.518904,21.6371516 164.416859,21.6455299 C164.194368,21.6639624 164.097342,21.3790974 164.093997,21.375746 Z M141.749559,30.0255882 C141.421678,30.3138046 140.847886,30.7226696 140.111826,30.7645615 L139.783945,31.2940753 L140.561826,31.5001835 L140.725767,31.5822917 L141.421678,31.7883999 C141.421678,31.7883999 141.461827,31.3359672 141.99547,31.4180754 C141.99547,31.4180754 142.3635,30.4327776 143.837293,30.7628859 C143.837293,30.7628859 144.083204,30.6807777 144.409412,30.844994 C144.533204,30.9271022 144.655323,31.0092103 144.777442,31.129859 L144.613502,30.5969939 C144.613502,30.5969939 144.777442,30.3523451 145.185621,30.4327776 C145.185621,30.4327776 145.02168,30.2685613 144.899561,30.0239125 C144.726403,29.7839704 144.626979,29.4985921 144.613502,29.202831 C144.613502,29.202831 145.103651,29.0000742 145.595472,29.0821823 L145.595472,28.6297497 L145.881532,28.6297497 L145.349561,28.3029927 C145.349561,28.3029927 143.997888,29.8178043 141.460154,29.0821823 C140.958323,28.9399866 140.476995,28.7332757 140.028183,28.467209 C140.028183,28.467209 140.520005,29.6971556 142.075768,29.6552637 C142.077441,29.6552637 141.955321,29.81948 141.749559,30.0255882 L141.749559,30.0255882 Z M135.16015,30.0255882 C135.97818,30.270237 137.411824,30.3959127 137.411824,30.3959127 C137.288032,30.5165614 137.165913,30.6405615 137.043794,30.7226696 C136.593794,31.0929941 136.225764,31.1751023 136.225764,31.1751023 C135.979853,31.5839673 136.103645,32.3246164 136.103645,32.3246164 C136.225764,32.4888327 136.593794,32.6094814 136.921675,32.7334814 C137.331527,32.8976977 137.739706,33.0216978 137.739706,33.0216978 C137.240174,33.1234843 136.725296,33.1234843 136.225764,33.0216978 C135.774091,32.9798059 135.489704,32.8541301 135.489704,32.8541301 L135.693794,32.4452651 C135.529853,31.3778591 133.933941,31.2572104 133.933941,31.2572104 L134.015911,30.7662372 C134.220001,30.5182371 134.425763,30.2333721 134.507733,30.0272639 C134.558588,29.9512055 134.59962,29.8690019 134.629852,29.7826151 C134.711823,29.8647232 134.915912,29.9468314 135.121674,30.0272639 L135.16015,30.0272639 L135.16015,30.0255882 L135.16015,30.0255882 Z M164.30645,33.4288872 C164.182658,33.5109953 164.100688,33.5931035 164.100688,33.7556441 C164.100688,33.7556441 164.182658,34.0002929 164.714629,34.1645092 C164.714629,34.1645092 164.796599,33.7154279 164.672807,33.222779 C164.671134,33.222779 164.468718,33.3048871 164.30645,33.4288872 Z M145.638967,32.6882382 L145.925026,32.60613 C145.925026,32.60613 145.638967,32.3614813 145.598818,32.197265 C145.598818,32.197265 145.598818,31.870508 145.230788,31.5822917 L145.270937,31.870508 L145.270937,32.2793731 L145.393056,32.4033732 L145.393056,32.7301301 L145.638967,32.6882382 L145.638967,32.6882382 Z M146.948819,34.1259686 L146.990641,34.7409419 L147.522611,34.1645092 C147.436692,34.16679 147.356928,34.1200207 147.316849,34.0438605 C147.11276,33.8796442 146.990641,33.6349954 146.990641,33.6349954 L146.948819,34.1259686 Z M148.799006,30.0406693 C149.110159,30.0054801 149.371125,30.0272639 149.518337,30.2048856 C149.514991,29.94348 149.628746,29.6820745 150.018523,29.6150474 C150.018523,29.6150474 149.158672,29.4508311 148.38079,29.1626148 C147.890641,28.9983985 147.398819,28.7922903 147.234879,28.5476415 L146.866849,28.6716416 L146.579116,28.7922903 L146.579116,28.9162903 C146.579116,28.9162903 147.356998,29.036939 147.766849,29.368723 L147.766849,29.2011553 C147.766849,29.202831 148.511273,29.3435878 148.799006,30.0406693 Z M150.958673,31.6643998 C150.958673,31.5822917 151.000494,31.5001835 151.000494,31.3761835 L151.614435,32.0347243 C151.614435,32.0347243 151.734881,32.4435894 151.490643,32.6899138 C151.490643,32.6899138 151.370197,32.5692651 151.206256,32.487157 C151.10394,32.4353853 150.99131,32.4073236 150.876702,32.4050488 L150.838226,31.8721837 C150.838226,31.870508 150.920197,31.7883999 150.958673,31.6643998 L150.958673,31.6643998 Z M101.185966,9.27736159 C101.185966,9.27736159 107.285226,12.3941199 108.021286,13.0090932 C108.799168,13.6240665 108.389316,14.0346072 108.389316,14.0346072 C108.389316,14.0346072 108.103256,14.4434723 107.407345,14.6076886 C106.709761,14.730013 106.917196,15.30477 106.917196,15.30477 L106.835226,29.8613719 C109.700841,32.6899138 112.402516,31.1734266 112.402516,31.1734266 C113.426308,30.8466697 113.304189,29.94348 113.304189,29.94348 C113.304189,29.94348 113.509951,16.2498516 113.426308,15.7974189 C113.344338,15.3064457 112.936159,15.3064457 112.936159,15.3064457 C112.936159,15.3064457 110.398425,13.7061746 109.988574,13.4213096 C109.5369,13.1347689 110.028722,12.6840119 110.028722,12.6840119 C110.028722,12.6840119 114.326309,9.69125369 114.941922,9.11649664 C115.555863,8.58363151 116.047685,8.91038843 116.047685,8.91038843 C116.047685,8.91038843 123.128916,12.8884445 123.946946,13.5034178 C124.764977,14.118391 124.356798,14.3228236 124.356798,14.3228236 L122.351035,16.3319597 C121.941183,16.7425005 122.145272,17.1111493 122.145272,17.1111493 L122.063302,30.560129 C121.531331,34.0036442 116.127983,34.4979688 116.127983,34.4979688 C109.618871,34.580077 106.590988,31.7917512 106.590988,31.7917512 C104.011432,30.1914802 101.023698,31.2974267 101.023698,31.2974267 C97.217934,32.6094814 96.9302014,35.0710502 96.9302014,35.0710502 C96.8064095,36.8355375 98.7720241,37.6951596 98.7720241,37.6951596 C101.187639,39.2535388 104.707344,38.268241 104.707344,38.268241 C107.695078,37.2444026 112.320545,35.6860235 112.320545,35.6860235 C115.226309,35.0710502 117.518132,35.5620234 117.518132,35.5620234 C120.137836,36.1384561 121.161629,37.3684027 121.161629,37.3684027 C122.839511,39.0893225 122.717392,41.3028911 122.717392,41.3028911 C122.839511,46.1439206 116.904191,47.7827322 116.904191,47.7827322 C114.244338,48.3155973 113.508278,47.7006241 113.508278,47.7006241 C111.624634,47.2884076 113.630397,47.0856508 113.630397,47.0856508 C113.630397,47.0856508 110.19099,47.2884076 113.916457,47.1241913 C117.641924,47.0035426 118.051775,45.2005147 118.051775,45.2005147 C119.403449,42.7791621 117.315716,42.3702971 117.315716,42.3702971 C114.4501,41.961432 111.340247,44.2973251 111.340247,44.2973251 C104.381135,47.4124077 99.1015782,44.8301902 99.1015782,44.8301902 C93.6982292,42.7389459 94.3941404,38.7206736 94.3941404,38.7206736 C94.5162595,33.5143467 97.7917261,31.4649943 97.7917261,31.4649943 L97.5876368,15.3500133 C97.4236962,14.9394725 97.0138446,14.8171481 97.0138446,14.8171481 C97.0138446,14.8171481 94.7621704,13.9139585 94.3941404,13.4229853 C94.0662592,12.9303364 94.5982298,12.7259039 94.5982298,12.7259039 L99.7974894,9.28071294 C100.408085,8.41773953 101.185966,9.27736159 101.185966,9.27736159 L101.185966,9.27736159 Z M0.325682301,6.81746846 C-0.452199208,6.28460333 0.407652611,5.99806265 0.407652611,5.99806265 L8.22661643,0.257194909 L28.8965173,0.257194909 C33.3580442,0.666059979 32.9900142,6.40692772 32.9900142,6.40692772 L32.9080439,27.5623437 C25.6628723,28.9565066 22.1833163,35.1095907 22.1833163,35.1095907 C15.4282936,33.1825627 3.84538702,34.9034825 3.84538702,34.9034825 C2.82159458,34.9855907 3.51750578,34.2064011 3.51750578,34.2064011 C7.52903236,27.1534786 15.2242043,27.3595869 15.2242043,27.3595869 C15.7210447,27.3495328 16.207848,27.3629382 16.6812684,27.3931004 L16.7214171,7.03195506 L0.325682301,6.81746846 Z M10.6405584,7.96530688 C12.1544998,7.26822545 11.8684402,8.29373947 11.8684402,8.29373947 L11.8684402,20.06034 C11.7463211,25.0220181 7.8569136,27.7299114 7.8569136,27.7299114 C6.71100213,29.2882905 2.33144559,31.0913185 2.33144559,31.0913185 C0.817504159,31.6643998 1.7175047,30.1881288 1.7175047,30.1881288 C3.14947582,28.058344 3.14947582,26.5385054 3.14947582,26.5385054 L3.14947582,12.3941199 C3.14947582,11.9835792 3.31341644,11.8193629 3.31341644,11.8193629 L10.6405584,7.96530688 L10.6405584,7.96530688 Z M17.3738338,27.4517491 C20.9520888,27.8120195 23.5768115,29.0821823 23.5768115,29.0821823 L23.5232799,19.9849345 L23.4680754,20.0268264 C23.4597111,20.0167724 20.5957689,16.2297434 17.3872167,20.1659076 L17.3738338,27.4517491 L17.3738338,27.4517491 Z M23.5165885,19.0633124 L23.4948412,15.247797 C22.3991157,16.2749867 19.8446532,18.0026092 17.3955811,14.8037427 L17.3872167,19.1236368 C20.0838726,16.38223 22.5095247,18.0897444 23.5165885,19.0633124 Z M23.4881498,14.2524452 L23.4513468,7.88319873 C23.7374064,6.81746846 22.2652866,7.10400915 22.2652866,7.10400915 L17.4123097,7.04033344 L17.4005996,13.5737962 C20.1457686,18.1316363 23.2071087,14.5959588 23.4881498,14.2524452 Z M79.9807489,4.27546719 C79.9807489,4.27546719 88.9857729,1.36481709 90.1316843,1.0782764 C91.3177445,0.791735717 91.2374471,1.36481709 91.2374471,1.36481709 C91.2374471,1.36481709 90.993209,27.0311543 91.1972984,27.9343439 C91.4013877,28.8375335 91.8112392,28.5928848 91.8112392,28.5928848 C91.8112392,28.5928848 93.8989728,30.0691558 94.3489731,30.2719126 C94.840795,30.4780208 94.594884,30.9689941 94.594884,30.9689941 L89.5194163,34.9068339 C89.5194163,34.9068339 81.2504522,31.2572104 80.5963626,30.8483454 C79.7783324,30.2719126 80.310303,29.9451557 80.310303,29.9451557 L81.7840957,28.4688847 C81.7840957,28.4688847 82.0283337,7.47600933 81.620155,6.36838716 C81.2103035,5.26076498 79.9004514,4.810008 79.9004514,4.810008 C79.6127189,4.35757534 79.9807489,4.27546719 79.9807489,4.27546719 L79.9807489,4.27546719 Z M69.871635,8.62217207 C70.1576946,9.3192535 70.8937545,9.19692911 70.8937545,9.19692911 C74.1692212,7.8848744 75.4790733,4.76811609 75.4790733,4.76811609 C76.2971035,1.69324968 74.3733105,0.873843867 74.3733105,0.873843867 C72.6536069,-0.15167016 71.3855764,0.667735655 71.3855764,0.667735655 C69.4199618,1.73346592 68.8879912,3.78449397 68.8879912,3.78449397 C68.3978422,6.49071154 69.871635,8.62217207 69.871635,8.62217207 L69.871635,8.62217207 Z M68.3978422,10.0163349 C68.3978422,10.0163349 63.0764636,13.2973095 62.666612,13.9122828 C62.2567605,14.5272561 62.5863146,14.8154725 62.5863146,14.8154725 C62.5863146,14.8154725 64.8781375,16.2498516 65.4920784,16.496176 C66.146168,16.7006085 65.9002571,17.0290411 65.9002571,17.0290411 L66.0641977,27.6896951 C66.146168,27.9779115 66.0641977,28.7135335 66.0641977,28.7135335 C66.0641977,28.7135335 65.1625243,29.4525068 64.6723753,29.8630476 C64.100256,30.3540208 64.5485834,30.8483454 64.5485834,30.8483454 L72.7773988,34.988942 C72.7773988,34.988942 78.3430155,30.9706697 78.8348374,30.7662372 C79.3249864,30.560129 78.8348374,30.1512639 78.8348374,30.1512639 C78.8348374,30.1512639 76.4192225,28.7571011 76.0110439,28.5509929 C75.6028652,28.3448846 75.7668058,27.9360196 75.7668058,27.9360196 C75.7668058,27.9360196 75.4389246,17.3960143 75.6848355,16.4945003 C75.8889248,15.6332026 76.1749845,15.9197433 76.1749845,15.9197433 C76.1749845,15.9197433 76.9110444,15.7153108 77.5668069,15.30477 C78.1807478,14.8942293 77.6086285,14.5255804 77.6086285,14.5255804 C77.6086285,14.5255804 69.9536053,10.5089838 69.381486,10.0163349 C68.8060209,9.52368603 68.3978422,10.0163349 68.3978422,10.0163349 L68.3978422,10.0163349 Z M34.4838813,27.7701276 C34.4638069,27.6880195 35.1178966,33.9617523 43.1409497,34.9872663 L48.4623284,30.6841291 C48.4623284,30.6841291 48.748388,30.1898045 49.1582396,30.5986696 L58.1632636,34.9872663 L63.6485829,30.6841291 C63.6485829,30.6841291 63.8944938,30.1898045 63.4846423,29.6988313 L59.677205,27.1551543 L59.677205,16.6989329 C59.677205,16.6989329 59.6370563,16.2079597 59.9632647,16.1258515 L61.4370574,14.9377969 C61.4370574,14.9377969 61.6829683,14.5272561 61.1928193,13.994391 C60.7411462,13.4213096 51.7779438,8.99249658 51.7779438,8.99249658 C51.7779438,8.99249658 51.4500625,8.50152336 50.6303594,9.07460473 C50.6303594,9.07460473 40.8474539,13.0107689 36.999868,18.0528795 C37.0015408,18.0528795 33.9318364,20.0201237 34.4838813,27.7701276 L34.4838813,27.7701276 Z M42.1589789,24.4087205 C42.4048898,24.8578018 40.5212455,21.7427192 41.4229189,18.3394202 C41.4229189,18.3394202 41.5467108,15.3466619 45.024594,13.8301747 L49.7320318,16.9050411 L49.6500614,29.0402904 C49.6500614,29.0402904 49.0361206,30.0674801 47.5221791,29.3703987 C47.5221791,29.3703987 43.6327716,27.4433707 42.1589789,24.4087205 Z M267.742944,10.3430919 C267.742944,10.3430919 262.423238,13.5821746 262.011713,14.2390397 C261.603535,14.854013 261.929743,15.1405537 261.929743,15.1405537 C261.929743,15.1405537 264.223239,16.5749328 264.83718,16.781041 C265.491269,16.9871492 265.245359,17.3541224 265.245359,17.3541224 L265.409299,28.0147764 C265.491269,28.3029927 265.409299,29.0386147 265.409299,29.0386147 C265.409299,29.0386147 264.507626,29.7356962 264.017477,30.1479126 C263.445357,30.6388858 263.897031,31.129859 263.897031,31.129859 L272.124173,35.3123476 C272.124173,35.3123476 277.691463,31.2940753 278.181612,31.0477509 C278.671761,30.844994 278.181612,30.4327776 278.181612,30.4327776 C278.181612,30.4327776 275.806146,29.0386147 275.357818,28.8358579 C274.946294,28.6297497 275.110234,28.2208846 275.110234,28.2208846 C275.110234,28.2208846 274.784026,17.682555 275.028264,16.781041 C275.234026,15.9616352 275.521759,16.2079597 275.521759,16.2079597 C275.521759,16.2079597 276.256146,16.0018514 276.913581,15.5929864 C277.527522,15.1824456 276.952057,14.8556887 276.952057,14.8556887 C276.952057,14.8556887 269.297034,10.8374164 268.724915,10.3447675 C268.192944,9.85211863 267.742944,10.3430919 267.742944,10.3430919 L267.742944,10.3430919 Z M186.366501,6.8576847 C185.09847,6.16060327 186.000144,5.83217067 186.000144,5.83217067 L192.383791,1.73179024 C192.709999,1.44524956 192.997731,1.8557903 192.997731,1.8557903 L198.810932,5.25908931 C198.810932,5.25908931 206.668372,1.07660072 207.202015,0.749843804 C207.528223,0.543735593 207.815956,0.831951954 207.815956,0.831951954 L214.44886,4.52179164 L221.120239,0.339303058 C221.854626,-0.275670222 222.060388,0.133194847 222.060388,0.133194847 L229.879352,4.72622417 C230.533442,5.13676492 230.245709,5.25908931 230.245709,5.25908931 L230.245709,26.4999648 C230.533442,29.1207229 232.744967,30.1495883 232.744967,30.1495883 C233.358908,30.6405615 233.071176,31.010886 233.071176,31.010886 L227.052213,35.3140233 C221.854626,33.5495359 221.364477,29.3285068 221.364477,29.3285068 L221.364477,9.03103714 C221.240685,8.33395571 220.750536,8.16973941 220.750536,8.16973941 L216.732318,6.11871136 L216.76243,15.138878 L221.078417,15.138878 L216.782504,21.3422325 L216.80927,28.809047 L219.81206,30.844994 C220.220238,31.3359672 219.567822,31.4180754 219.567822,31.4180754 L213.343097,35.3123476 L204.093835,30.3925613 C203.233983,29.8161286 203.888073,29.4893717 203.888073,29.4893717 L205.893836,28.2192089 L205.893836,21.6991516 L201.489186,21.6991516 L201.505915,30.0691558 L202.989745,31.0092103 C203.441418,31.5001835 202.907775,31.8269404 202.907775,31.8269404 L196.726544,35.3123476 L188.663342,31.0477509 C187.967431,30.5953182 188.701818,30.2300207 188.701818,30.2300207 L190.995314,28.917966 L190.995314,10.1386593 L186.573936,6.94146853 L186.366501,6.8576847 Z M216.176928,5.8656842 C214.955737,5.48530563 215.144771,6.2443871 215.144771,6.2443871 L215.226741,14.4853642 L215.226741,15.1422294 L216.210385,15.1422294 L216.176928,5.8656842 Z M216.230459,21.7008273 L215.226741,21.7008273 L215.226741,27.7299114 C215.265217,27.8941277 215.758712,28.0968845 215.758712,28.0968845 L216.252206,28.4336955 L216.230459,21.7008273 L216.230459,21.7008273 Z M201.487513,20.5345564 L205.114281,15.1405537 L205.892163,15.1405537 L205.892163,9.03103714 C205.771717,8.70428022 205.320044,8.37584762 205.320044,8.37584762 L201.464093,6.36671148 L201.487513,20.5345564 Z M200.910376,6.23433304 C199.77952,6.25946818 199.714278,7.02357667 199.714278,7.02357667 L199.628962,28.9196417 C199.628962,29.0402904 199.998665,29.1223985 199.998665,29.1223985 L200.948851,29.7239664 L200.910376,6.23433304 L200.910376,6.23433304 Z M233.837347,27.7701276 C233.817273,27.6880195 234.471362,33.9617523 242.496088,34.9872663 L247.815794,30.6841291 C247.815794,30.6841291 248.103527,30.1898045 248.511705,30.5986696 L257.516729,34.9872663 L263.002049,30.6841291 C263.002049,30.6841291 263.246287,30.1898045 262.838108,29.6988313 L259.032344,27.1551543 L259.032344,16.6989329 C259.032344,16.6989329 258.993868,16.2079597 259.320076,16.1258515 L260.793869,14.9377969 C260.793869,14.9377969 261.038107,14.5272561 260.549631,13.994391 C260.097958,13.4213096 251.133082,8.99249658 251.133082,8.99249658 C251.133082,8.99249658 250.806874,8.50152336 249.985498,9.07460473 C249.985498,9.07460473 240.202593,13.0107689 236.355007,18.0528795 C236.353334,18.0528795 233.285302,20.0201237 233.837347,27.7701276 L233.837347,27.7701276 Z M241.512445,24.4087205 C241.756683,24.8578018 239.874711,21.7427192 240.778058,18.3394202 C240.778058,18.3394202 240.898504,15.3466619 244.37806,13.8301747 L249.085498,16.9050411 L249.003527,29.0402904 C249.003527,29.0402904 248.389586,30.0674801 246.873972,29.3703987 C246.873972,29.3703987 242.986237,27.4433707 241.512445,24.4087205 L241.512445,24.4087205 Z M279.327523,4.27546719 C279.327523,4.27546719 288.289053,1.36481709 289.478459,1.0782764 C290.622697,0.791735717 290.582549,1.36481709 290.582549,1.36481709 C290.582549,1.36481709 290.33831,27.3193706 290.540727,28.2225603 C290.746489,29.1223985 291.154668,28.9196417 291.154668,28.9196417 C291.154668,28.9196417 293.242401,30.3959127 293.694075,30.5986696 C294.184224,30.8047778 293.938313,31.295751 293.938313,31.295751 L288.864518,35.2335908 C288.864518,35.2335908 280.595554,31.5839673 279.941464,31.1332104 C279.121761,30.6003452 279.653732,30.2333721 279.653732,30.2333721 L281.127524,28.7973173 C281.127524,28.7973173 281.371762,7.4357931 280.963584,6.32817092 C280.555405,5.22054875 279.245553,4.81168368 279.245553,4.81168368 C278.959493,4.31568343 279.327523,4.27546719 279.327523,4.27546719 L279.327523,4.27546719 Z M269.216736,8.95060467 C269.504469,9.6476861 270.238856,9.52368603 270.238856,9.52368603 C273.515995,8.16973941 274.825848,5.05465677 274.825848,5.05465677 C275.642205,2.0200066 273.718412,1.20060079 273.718412,1.20060079 C272.000381,0.134870524 270.732351,0.994492576 270.732351,0.994492576 C268.765063,2.06022284 268.236438,4.11125089 268.236438,4.11125089 C267.742944,6.81746846 269.216736,8.95060467 269.216736,8.95060467 Z"/></svg>