<svg xmlns="http://www.w3.org/2000/svg" width="33" height="32" viewBox="0 0 33 32"><path fill="#FFF" d="M32.4574468,0 L32.4574468,32 L0.542553191,32 L0.542553191,0 L32.4574468,0 Z M16.5,8 C12.0934671,8 8.5212766,11.5817164 8.5212766,16 C8.5212766,20.4183273 12.0934671,24 16.5,24 C20.9065764,24 24.4787234,20.4183273 24.4787234,16 C24.4787234,11.5817164 20.9065764,8 16.5,8 Z M16.5,10.9090909 C19.3041586,10.9090909 21.5773694,13.1883636 21.5773694,16 C21.5773694,18.8116364 19.3041586,21.0909091 16.5,21.0909091 C13.6958414,21.0909091 11.4226306,18.8116364 11.4226306,16 C11.4226306,13.1883636 13.6958414,10.9090909 16.5,10.9090909 Z M27.3800774,5.09090909 L24.4787234,5.09090909 L24.4787234,8 L27.3800774,8 L27.3800774,5.09090909 Z"/></svg>