<svg xmlns="http://www.w3.org/2000/svg" width="151" height="50" viewBox="0 0 151 50"><path fill="#FFF" d="M37.2,0.7 C42.4,0.7 46.5,5.4 46.5,8.3 C46.5,12.2 42.65,18.45 37.45,24.85 C40.55,23.6 43.35,22.85 45.55,22.85 C46.7499099,22.85 50.2013333,21.6254926 53.6573144,21.3532164 C57.2630771,17.6789036 61.9917063,14.3 65.3,14.3 C66.55,14.3 69.35,16.65 69.35,17.7 C69.35,18.95 67.4,19.85 66.7,19.85 C66.55,19.85 66.45,19.8 66.45,19.7 C66.45,19.15 67.4,18.6 67.4,18.25 C67.4,17.9 66.85,17.2 65.55,17.2 C60.1,17.2 50.9,27.15 50.9,29.05 C50.9,29.2 51,29.3 51.15,29.3 C52.7,29.3 61.35,22.7 63.4,21.15 C63.7,20.6 63.95,20.25 64.2,20.25 C65.8,20.25 68.05,22.9 68.05,24.1 C68.05,24.9 65.2,25.95 65.2,27.25 C65.2,28.6 65.6,30.4 67.3,30.4 C73.35,30.4 76.65,25.2 76.9,24.95 C76.95,24.9 76.95,24.9 77,24.9 L77.0152547,24.9030409 C77.8901999,20.5490114 83.6333216,14.75 90.35,14.75 C91.95,14.75 95.4,17.2 95.4,18.6 C95.4,20.6 89.65,21.95 89.2,21.95 C88.95,21.95 88.8,21.8 88.8,21.7 C88.8,21.6 88.95,21.5 89.2,21.5 C89.75,21.5 92.8,18.2 92.8,17.35 C92.8,17.1 92.2,17.05 91.95,17.05 C85.75,17.05 79.35,24.25 79.35,28.15 C79.35,29.6 80.25,30.6 82.35,30.6 C91.5900225,30.6 99.582649,24.9243485 103.126222,21.971239 C105.252223,18.8670781 108.434628,15.9 111.65,15.9 C112.05,15.9 112.45,16 112.8,16.2 C112.85,16.1 112.9,16 113,15.9 C113.2,15.65 113.65,15.25 114.3,15.25 C116.7,15.25 118.85,18.4 118.85,19.8 C118.85,24.9 109.55,34.15 104.55,34.15 C103,34.15 102.9,32.4 102.05,31.55 C101.25,30.7 100.55,29.3 100.55,27.95 C100.55,27.2309847 100.85566,26.1813005 101.396234,24.9968118 C97.9149566,28.9988924 92.2708912,34.75 83.2,34.75 C81.0289162,34.75 77.0074503,30.7570702 76.9021113,26.1830618 C75.6742584,28.4526069 71.4574675,34.7 69,34.7 C64.7,34.7 62.1,29.15 62.1,26.35 L62.1,25.8 C58.55,29.4 52.15,34.1 51.2,34.1 C49.85,34.1 48.45,32 48.45,29.35 C48.45,27.7434129 50.4323019,24.7510499 53.1741225,21.8551916 C49.5075285,22.671812 41.0576143,25.1672563 33.15,29.8 C24.1,39.9 13.25,49.2 10.8,49.2 C10,49.2 10,48.75 9.45,48.75 C7.7,48.75 7.25,47.2 7.25,46.45 C7.25,46 7.75,45.2 9.3,43.6 C14.45,38.4 23.1,32.1 31.1,27.8 C38.2,20.2 44.55,12.2 44.55,7.65 C44.55,5.25 42.4,4.2 39.1,4.2 C28.45,4.2 5.8,15.3 5.8,27.9 C5.8,30.55 7.75,32.55 10.75,32.55 C16.15,32.55 23.6,26.85 27.35,23.1 C27.4,23.05 27.5,23 27.55,23 C27.6,23 27.65,23.05 27.65,23.1 C27.65,23.2 27.6,23.3 27.45,23.4 C27.1466667,23.7466667 27.1062222,25.0697778 27.1008296,25.7744741 L27.1,26.05 C27.1,28.4 19.2,34.6 11.15,34.6 C6.65,34.6 3.8,31.95 3.8,29.45 C3.8,27.55 0.5,26.35 0.5,22.45 C0.5,16.05 16.35,0.7 37.2,0.7 Z M132.3,4.35 C133.6,4.35 136.6,6.35 136.6,8.55 C136.6,9.7490566 134.176344,13.8505162 131.504846,18.0073027 L131.112378,18.6156774 C130.456159,19.6291919 129.791509,20.6377358 129.15,21.6 C132.7,18 136.45,15.25 138.3,15.25 C140.35,15.25 142.75,17.8 142.75,19.55 C142.75,21.95 139.9,26.85 136.45,30.25 C143.95,28.15 149.9,23.15 150.25,22.7 C150.35,22.6 150.45,22.55 150.55,22.55 C150.65,22.55 150.75,22.6 150.75,22.7 C150.75,22.8 150.7,22.95 150.55,23.1 C150.15,23.55 147.95,25.45 145.25,28.1 C144.45,28.9 145.05,28.95 144.4,29.6 C141.9,32.15 137.05,34.85 130.3,34.85 C127.95,34.85 126.15,31.8 126.15,30 C126.15,29.55 126.25,29.2 126.5,28.95 C126.65,28.8 126.95,28.6 127.1,28.6 C127.65,28.6 127.85,29.3 128.25,29.95 C133.95,29.4 139.25,20.6 139.25,17.7 C139.25,17.15 139.05,16.8 138.6,16.8 C136.05,16.8 129,22.35 124.4,29 C122.95,31.5 122.45,33.45 121.9,33.45 C119.15,33.45 118.85,30.45 118.85,29.2 C118.85,28.65 119.4,28.65 120.35,27.7 C124,24.05 131.95,12 131.95,6.25 C131.95,5.05 131.7,5.3 131.7,4.85 C131.7,4.5 131.95,4.35 132.3,4.35 Z M113.95,16.55 C113.7,16.55 113.6,16.6 113.55,16.65 C114.25,17.25 114.8,18 114.8,18.6 C114.8,19.25 114.7,19.4 114.35,19.4 C114.05,19.4 113.55,19.3 112.75,19.3 C109.1,19.3 104.1,26.45 104.1,29.7 C104.1,30.65 104.5,31.3 105.55,31.3 C107.55,31.3 115.7,23.55 115.7,19.25 C115.7,17.35 114.65,16.55 113.95,16.55 Z"/></svg>